<svg width="38" height="38" viewBox="0 0 38 38" fill="none" xmlns="http://www.w3.org/2000/svg">
<circle cx="19.0029" cy="18.5185" r="18.5185" fill="#3C3B6E"/>
<path d="M20.912 18.6455C20.7364 18.6455 20.5938 18.7881 20.5938 18.9638C20.5938 19.1395 20.7364 19.2821 20.912 19.2821C21.0877 19.2821 21.2303 19.1395 21.2303 18.9638C21.2303 18.7881 21.0877 18.6455 20.912 18.6455Z" fill="#E4B335"/>
<path d="M14.1073 22.1397L10.9245 26.15C10.8485 26.2457 10.8341 26.3763 10.8872 26.4862C10.9402 26.5963 11.0516 26.6661 11.1737 26.6661H26.8332C26.9553 26.6661 27.0667 26.5963 27.1198 26.4862C27.173 26.3763 27.1584 26.2457 27.0825 26.15L23.8996 22.1397C23.8393 22.0636 23.7475 22.0192 23.6504 22.0192H20.8623L23.2426 18.2859C23.8009 17.4488 24.096 16.4725 24.096 15.4626C24.096 12.6547 21.8115 10.3701 19.0035 10.3701C16.1954 10.3701 13.911 12.6547 13.911 15.4626C13.911 16.4725 14.206 17.4486 14.7643 18.2859L17.1446 22.0192H14.3565C14.2594 22.0192 14.1677 22.0636 14.1073 22.1397ZM12.9189 24.661H14.8434L13.7573 26.0296H11.8327L12.9189 24.661ZM17.5505 22.6558L18.4231 24.0244H16.1613L17.2476 22.6558H17.5505ZM20.4565 22.6558H20.7595L21.8456 24.0244H19.5839L20.4565 22.6558ZM22.3509 24.661L23.437 26.0296H14.5699L15.6562 24.661H22.3509ZM24.2498 26.0296L23.1635 24.661H25.0881L26.1742 26.0296H24.2498ZM24.5828 24.0244H22.6583L21.5721 22.6558H23.4967L24.5828 24.0244ZM15.2957 17.9353C14.8062 17.2025 14.5475 16.3475 14.5475 15.4626C14.5475 13.0056 16.5465 11.0067 19.0035 11.0067C21.4604 11.0067 23.4594 13.0056 23.4594 15.4626C23.4594 16.3475 23.2007 17.2025 22.7113 17.9353C22.7099 17.9371 22.7088 17.939 22.7076 17.9409C22.4986 18.2687 19.1645 23.4982 19.0035 23.7506C18.5985 23.1154 15.7117 18.5876 15.2993 17.9409C15.2982 17.939 15.297 17.9371 15.2957 17.9353ZM16.4348 22.6558L15.3487 24.0244H13.4241L14.5103 22.6558H16.4348Z" fill="#E4B335"/>
<path d="M19.0031 18.6459C20.7504 18.6459 22.1859 17.2309 22.1859 15.4631C22.1859 13.7081 20.7582 12.2803 19.0031 12.2803C17.2481 12.2803 15.8203 13.7081 15.8203 15.4631C15.8203 17.2314 17.2563 18.6459 19.0031 18.6459ZM19.0031 12.9168C20.4072 12.9168 21.5494 14.059 21.5494 15.4631C21.5494 16.8802 20.398 18.0093 19.0031 18.0093C17.6079 18.0093 16.4569 16.8802 16.4569 15.4631C16.4569 14.059 17.5991 12.9168 19.0031 12.9168Z" fill="#E4B335"/>
<path d="M20.3465 19.7323C20.1961 19.6415 20.0004 19.69 19.9096 19.8406L18.7332 21.7923C18.6425 21.9428 18.691 22.1384 18.8415 22.2292C18.9927 22.3203 19.188 22.2708 19.2784 22.1209L20.4548 20.1692C20.5456 20.0186 20.4971 19.823 20.3465 19.7323Z" fill="#E4B335"/>
</svg>
