<svg xmlns="http://www.w3.org/2000/svg" viewBox="0 0 135.58 135.58"><defs><style>.cls-1{fill:#00c8ff;}.cls-2{fill:#001d26;}</style></defs><title>photoshop-icon</title><g id="Layer_2" data-name="Layer 2"><g id="Website"><rect id="_Rectangle_" data-name="&lt;Rectangle&gt;" class="cls-1" width="135.58" height="135.58"/><rect id="_Rectangle_2" data-name="&lt;Rectangle&gt;" class="cls-2" x="5.97" y="5.97" width="123.65" height="123.65"/><g id="_Group_" data-name="&lt;Group&gt;"><path id="_Compound_Path_" data-name="&lt;Compound Path&gt;" class="cls-1" d="M33,32.75c0-.47.08-.65.48-.65,3-.1,9.06-.19,15.16-.19,15.72,0,21.72,9.15,21.8,20,0,14.83-11,20.45-22.84,20.45h-5V93.52c0,.56-.16.75-.56.75h-8.5c-.4,0-.56-.19-.56-.65Zm9.62,30.54a41.89,41.89,0,0,0,5.22.18c6.34,0,12.43-1.8,12.43-11.13,0-7.46-4.09-11.3-11.63-11.3-3.13,0-5.38.1-6,.19Z"/></g><g id="_Group_2" data-name="&lt;Group&gt;"><path id="_Compound_Path_2" data-name="&lt;Compound Path&gt;" class="cls-1" d="M90.42,56.31c-3.87,0-4.89,2.42-4.89,4.19,0,2.24,1,3.45,6.94,6.25,8.11,3.92,11.58,7.37,11.58,14.09,0,9.33-6.07,14.63-14.74,14.63-4.18,0-9.45-.4-12.76-2.82a1,1,0,0,1-.47-.93V83.14c0-.47.31-.66.55-.47a20.74,20.74,0,0,0,12.77,4c3.63,0,4.89-2.42,4.89-4.47,0-2.42-.88-3.82-6.55-6.53-8.12-3.91-11.5-7.28-11.5-14.09,0-7.56,5.66-13.8,15-13.8,4.81,0,8.2.13,10.41,1.62a1.41,1.41,0,0,1,.47,1.22v7.65c0,.55-.31.83-.71.55C98.53,56.91,94.51,56.31,90.42,56.31Z"/></g></g></g></svg>