<?xml version="1.0" encoding="iso-8859-1"?>
<!-- Generator: Adobe Illustrator 19.0.0, SVG Export Plug-In . SVG Version: 6.00 Build 0)  -->
<svg version="1.1" id="Capa_1" xmlns="http://www.w3.org/2000/svg" xmlns:xlink="http://www.w3.org/1999/xlink" x="0px" y="0px"
	 viewBox="0 0 512 512" style="enable-background:new 0 0 512 512;" xml:space="preserve">
<g>
	<g>
		<path d="M176.258,444.961c-9.385,0-17.039,7.654-17.039,17.039s7.654,17.039,17.039,17.039s17.039-7.654,17.039-17.039
			S185.643,444.961,176.258,444.961z"/>
	</g>
</g>
<g>
	<g>
		<path d="M76,301.004c-5.523,0-10,4.478-10,10v0.477c0,5.522,4.477,10,10,10s10-4.478,10-10v-0.477
			C86,305.481,81.523,301.004,76,301.004z"/>
	</g>
</g>
<g>
	<g>
		<path d="M76,330.565c-5.523,0-10,4.477-10,10v41.438c0,5.522,4.477,10,10,10s10-4.478,10-10v-41.438
			C86,335.042,81.523,330.565,76,330.565z"/>
	</g>
</g>
<g>
	<g>
		<path d="M336,39.998c-3.389,0-6.75,0.124-10.083,0.347C324.591,17.875,305.898,0,283.102,0H68.897C45.244,0,26,19.243,26,42.896
			v426.205C26,492.756,45.244,512,68.897,512h214.204c23.654,0,42.897-19.244,42.897-42.898v-47.08c0-0.007,0.001-0.013,0.001-0.02
			c0-0.007-0.001-0.013-0.001-0.02v-82.329C329.315,339.87,332.647,340,336,340c82.71,0,150-67.291,150-150.002
			C486,107.288,418.71,39.998,336,39.998z M68.897,20h214.204c11.643,0,21.278,8.737,22.708,19.998H46.19
			C47.62,28.737,57.254,20,68.897,20z M305.999,469.102c0,12.626-10.271,22.898-22.897,22.898H68.897
			C56.271,492,46,481.728,46,469.102v-37.1h259.999V469.102z M305.999,412.002H46V59.998h215.229
			c-44.928,25.941-75.23,74.498-75.23,130c0,31.076,9.336,60.686,27.053,85.95l-9.058,33.81c-0.925,3.451,0.062,7.133,2.588,9.659
			c2.526,2.524,6.21,3.515,9.659,2.588l33.804-9.057l0.006-0.002c16.977,11.905,35.921,20.007,55.948,24.054V412.002z M336,320
			c-28.362,0-55.311-8.972-77.934-25.944c-1.75-1.313-3.86-2.001-6.002-2.001c-0.864,0-1.734,0.112-2.587,0.341l-21.682,5.809
			l5.809-21.68c0.795-2.967,0.183-6.134-1.66-8.59C214.971,245.312,206,218.363,206,189.998c0-71.683,58.318-130,130.001-130
			c71.682,0,130,58.317,130,130C466,261.682,407.682,320,336,320z"/>
	</g>
</g>
<g>
	<g>
		<path d="M400.705,146.081c-4.358-26.447-27.391-46.685-55.063-46.685c-27.755,0-50.843,20.361-55.103,46.924
			c-16.46,4.119-28.733,18.917-28.995,36.568c-15.849,0.077-28.72,12.992-28.72,28.855c0,15.911,12.948,28.855,28.862,28.855h129.76
			c26.317,0,47.729-21.403,47.729-47.711C439.176,169.747,422.608,150.4,400.705,146.081z M391.447,220.6h-129.76
			c-4.887,0-8.862-3.973-8.862-8.855c0-4.883,3.976-8.855,8.862-8.855h11.465c3.246,0,6.291-1.576,8.165-4.227
			c1.874-2.65,2.345-6.046,1.263-9.106c-0.69-1.951-1.04-4.001-1.04-6.093c0-10.081,8.208-18.283,18.296-18.283
			c5.523,0,10-4.478,10-10c0-19.732,16.063-35.783,35.806-35.783c19.743,0,35.805,16.052,35.805,35.783c0,5.522,4.477,10,10,10
			c15.289,0,27.729,12.43,27.729,27.709C419.176,208.169,406.737,220.6,391.447,220.6z"/>
	</g>
</g>
<g>
</g>
<g>
</g>
<g>
</g>
<g>
</g>
<g>
</g>
<g>
</g>
<g>
</g>
<g>
</g>
<g>
</g>
<g>
</g>
<g>
</g>
<g>
</g>
<g>
</g>
<g>
</g>
<g>
</g>
</svg>
