<svg width="60" height="60" viewBox="0 0 60 60" fill="none" xmlns="http://www.w3.org/2000/svg">
<path d="M51.2133 8.78672C45.547 3.12047 38.0133 0 30 0C21.9867 0 14.453 3.12047 8.78672 8.78672C3.12059 14.453 0 21.9867 0 30C0 38.0133 3.12059 45.547 8.78672 51.2133C14.453 56.8795 21.9867 60 30 60C38.0133 60 45.547 56.8795 51.2133 51.2133C56.8794 45.547 60 38.0133 60 30C60 21.9867 56.8794 14.453 51.2133 8.78672ZM30 56.4844C15.3964 56.4844 3.51562 44.6036 3.51562 30C3.51562 15.3964 15.3964 3.51562 30 3.51562C44.6036 3.51562 56.4844 15.3964 56.4844 30C56.4844 44.6036 44.6036 56.4844 30 56.4844Z" fill="black"/>
<path d="M31.8808 28.2421H28.1151C25.9698 28.2421 24.2245 26.4968 24.2245 24.3516C24.2245 22.2062 25.9699 20.4609 28.1151 20.4609H35.6464C36.6172 20.4609 37.4042 19.6739 37.4042 18.7031C37.4042 17.7323 36.6172 16.9453 35.6464 16.9453H31.7558V13.0547C31.7558 12.0839 30.9688 11.2969 29.998 11.2969C29.0272 11.2969 28.2402 12.0839 28.2402 13.0547V16.9453H28.1152C24.0314 16.9453 20.709 20.2678 20.709 24.3516C20.709 28.4353 24.0315 31.7577 28.1152 31.7577H31.8809C34.0262 31.7577 35.7714 33.5031 35.7714 35.6483C35.7714 37.7936 34.0262 39.5389 31.8809 39.5389H24.3496C23.3789 39.5389 22.5918 40.326 22.5918 41.2968C22.5918 42.2675 23.3789 43.0546 24.3496 43.0546H28.2402V46.9453C28.2402 47.9161 29.0272 48.7031 29.998 48.7031C30.9688 48.7031 31.7558 47.9161 31.7558 46.9453V43.0546H31.8808C35.9646 43.0546 39.287 39.7321 39.287 35.6483C39.287 31.5646 35.9646 28.2421 31.8808 28.2421Z" fill="black"/>
</svg>
