<?xml version="1.0" encoding="utf-8"?>
<!-- Generator: Adobe Illustrator 24.1.1, SVG Export Plug-In . SVG Version: 6.00 Build 0)  -->
<svg version="1.1" xmlns="http://www.w3.org/2000/svg" xmlns:xlink="http://www.w3.org/1999/xlink" x="0px" y="0px"
	 viewBox="0 0 122 122" style="enable-background:new 0 0 122 122;" xml:space="preserve">
<style type="text/css">
	.st0{opacity:0.2;fill:#002C53;}
	.st1{fill:#FFC72C;}
	.st2{fill:#CD003A;}
	.st3{fill:#FFFFFF;}
	.st4{fill:#FF7260;}
	.st5{fill:#F2F2F2;}
	.st6{fill:#AAC4DA;}
	.st7{fill:#D9EEF7;}
	.st8{fill:#4C5B66;}
	.st9{fill:#FB8406;}
	.st10{fill:#D48D77;}
	.st11{fill:#EEA47D;}
	.st12{fill:#334353;}
	.st13{fill:#3E4E60;}
	.st14{fill:#3F5D77;}
	.st15{fill:#3F6C8E;}
	.st16{fill:#CDE6F6;}
	.st17{fill:#EA792E;}
	.st18{fill:#DD5E26;}
	.st19{fill:#F39E22;}
	.st20{fill:#C68132;}
	.st21{fill:#F9C744;}
	.st22{fill:#EBD9EA;}
	.st23{fill:#C1B7D3;}
	.st24{fill:#EE6781;}
	.st25{fill:#F0A6B3;}
	.st26{fill:#D65171;}
	.st27{fill:#F5B890;}
	.st28{fill:#FBD9A3;}
	.st29{fill:#2E3140;}
	.st30{fill:#E9465E;}
	.st31{fill:#002C53;}
	.st32{fill:#263238;}
	.st33{fill:#FFD740;}
	.st34{fill:#40C4FF;}
	.st35{fill:#FF5252;}
	.st36{fill:#F9BA48;}
	.st37{fill:#333333;}
	.st38{stroke:#000000;stroke-width:2.7735;stroke-miterlimit:10;}
	.st39{fill:#DBD9D7;}
	.st40{fill:none;stroke:#002C53;stroke-width:3;stroke-linecap:round;stroke-miterlimit:10;}
	.st41{fill:none;stroke:#000000;stroke-width:5;stroke-miterlimit:10;}
	.st42{fill:none;stroke:#CD003A;stroke-width:5;stroke-miterlimit:10;}
	.st43{fill:none;stroke:#CD003A;stroke-width:5;stroke-linecap:round;stroke-linejoin:round;stroke-miterlimit:10;}
	.st44{fill:none;stroke:#000000;stroke-width:2;stroke-linecap:round;stroke-miterlimit:10;}
	.st45{fill:none;stroke:#000000;stroke-width:2;stroke-linecap:round;stroke-miterlimit:10;stroke-dasharray:5.5323,5.5323;}
	.st46{fill:none;stroke:#CD003A;stroke-width:5.7778;stroke-linecap:round;stroke-linejoin:round;stroke-miterlimit:10;}
	.st47{fill:none;stroke:#000000;stroke-width:2.3111;stroke-linecap:round;stroke-miterlimit:10;}
	.st48{fill:none;stroke:#000000;stroke-width:2.3111;stroke-linecap:round;stroke-miterlimit:10;stroke-dasharray:6.393,6.393;}
	.st49{clip-path:url(#SVGID_2_);}
	.st50{fill:url(#SVGID_3_);}
	.st51{fill:#FCDA90;}
	.st52{fill:#CD003A;stroke:#CD003A;stroke-width:0.75;stroke-miterlimit:10;}
	.st53{fill:none;stroke:#CD003A;stroke-width:4;stroke-miterlimit:10;}
	.st54{stroke:#000000;stroke-width:2;stroke-miterlimit:10;}
	.st55{opacity:0.44;}
	.st56{opacity:0;fill:#FFC72C;}
	.st57{fill:none;stroke:#000000;stroke-width:2.6567;stroke-linecap:round;stroke-miterlimit:10;}
	.st58{fill:none;stroke:#000000;stroke-width:2.6567;stroke-linecap:round;stroke-miterlimit:10;stroke-dasharray:8.3734,8.3734;}
	.st59{opacity:0.2;fill:#CD003A;}
	.st60{fill:#002C53;stroke:#002C53;stroke-width:0.9824;stroke-miterlimit:10;}
	.st61{fill:#CD003A;stroke:#CD003A;stroke-width:0.9824;stroke-miterlimit:10;}
	.st62{stroke:#000000;stroke-width:0.9824;stroke-miterlimit:10;}
	.st63{fill:#FFE3A4;}
	.st64{opacity:0;}
	.st65{fill:none;stroke:#002C53;stroke-width:2.1;stroke-linecap:round;stroke-miterlimit:10;}
	.st66{fill:none;stroke:#000000;stroke-width:1.3;stroke-miterlimit:10;}
</style>
<g id="Layer_1">
	<circle class="st0" cx="61" cy="61" r="60"/>
	<g>
		<g>
			<path class="st65" d="M73.48,101.19C51.46,108,27.39,95.23,20.58,73.25c-1.66-5.37-2.22-11.06-1.67-16.65"/>
			<g>
				<polygon class="st31" points="27.22,64.08 25.59,65.42 19.02,57.42 11.52,64.57 10.07,63.04 19.2,54.34 				"/>
			</g>
		</g>
	</g>
	<g>
		<g>
			<path class="st65" d="M67.43,18.98c20.48,3.15,36.05,21.39,35.86,42.13c-0.05,5.15-1.04,10.29-2.91,15.09"/>
			<g>
				<polygon class="st31" points="94.35,66.78 96.27,65.92 100.49,75.38 109.61,70.48 110.61,72.34 99.49,78.3 				"/>
			</g>
		</g>
	</g>
	<g>
		<g>
			<path d="M77.33,83.65c2.13,1.96,4.87,3.06,7.72,3.06c2.85,0,5.59-1.1,7.73-3.06c0.71,0.43,1.39,0.85,2.01,1.31
				c0.83,0.62,1.35,1.6,1.66,3.08c0.21,1.01,0.34,2,0.41,2.95c0.04,0.5-0.12,0.94-0.43,1.28c-0.37,0.39-0.91,0.61-1.54,0.61
				c-2.5,0-5,0.01-7.5,0.01l-4.17,0l-4.17,0l-1.15,0l-1.18,0c-0.53,0-1.07,0-1.6-0.01c-0.58-0.01-1.09-0.23-1.44-0.61
				c-0.22-0.25-0.47-0.68-0.41-1.31c0.11-1.2,0.35-2.5,0.73-3.96c0.26-1.01,0.91-1.86,1.93-2.51C76.37,84.2,76.84,83.93,77.33,83.65
				 M92.45,81.1c-1.97,2.41-4.68,3.61-7.39,3.61c-2.7,0-5.4-1.2-7.34-3.57c-0.97,0.56-1.95,1.07-2.88,1.66
				c-1.37,0.88-2.37,2.11-2.78,3.69c-0.36,1.4-0.65,2.84-0.79,4.28c-0.21,2.27,1.53,4.08,3.82,4.11c0.54,0.01,1.08,0.01,1.63,0.01
				c0.78,0,1.56,0,2.33-0.01c2.78,0,5.56,0,8.34,0c2.5,0,5,0,7.5-0.01c2.36,0,4.13-1.78,3.97-4.04c-0.08-1.08-0.23-2.16-0.45-3.21
				c-0.34-1.68-1.01-3.23-2.42-4.28C94.87,82.52,93.62,81.84,92.45,81.1L92.45,81.1z"/>
		</g>
		<g>
			<path d="M85.17,70.06L85.17,70.06c0.06,0,0.13,0,0.19,0c1.37,0.04,2.67,0.65,3.65,1.7c1,1.07,1.54,2.49,1.49,3.9
				c-0.11,2.9-2.51,5.26-5.36,5.26c-0.06,0-0.11,0-0.17,0c-1.51-0.05-2.9-0.67-3.92-1.76c-0.97-1.04-1.48-2.37-1.43-3.77
				C79.72,72.35,82.11,70.06,85.17,70.06 M85.16,68.06c-4.13,0-7.4,3.13-7.54,7.26c-0.13,4.06,3.13,7.46,7.29,7.59
				c0.08,0,0.15,0,0.23,0c3.9,0,7.21-3.2,7.35-7.18c0.15-4.03-3.1-7.55-7.08-7.67C85.33,68.06,85.25,68.06,85.16,68.06L85.16,68.06z
				"/>
		</g>
	</g>
	<path class="st66" d="M75.61,67.14c-1.24-2.87-3.53-4.56-6.46-5.39c-3.65-1.03-7.12-0.57-10.23,1.64
		c-4.99,3.55-4.88,10.05,0.2,13.48c2.15,1.46,4.55,2.08,7.14,1.94c0.66-0.03,1.21,0.13,1.79,0.45c1.16,0.63,2.38,1.17,3.59,1.71
		c0.44,0.19,0.93,0.2,1.29-0.22c0.36-0.42,0.2-0.84,0.03-1.31c-0.23-0.66-0.37-1.36-0.52-2.05c-0.08-0.36,0.09-0.62,0.4-0.85
		c1.67-1.27,2.81-2.9,3.25-4.97c0.05-0.25,0.11-0.51,0.17-0.76c0-0.45,0-0.9,0-1.35C76.04,68.68,75.93,67.87,75.61,67.14z"/>
	<path class="st2" d="M60.24,71.38c-0.88,0-1.56-0.68-1.55-1.56c0-0.83,0.7-1.54,1.53-1.56c0.84-0.02,1.57,0.7,1.57,1.57
		C61.8,70.71,61.14,71.38,60.24,71.38z"/>
	<path class="st2" d="M65.72,71.38c-0.88-0.01-1.57-0.71-1.55-1.58c0.01-0.82,0.73-1.53,1.56-1.54c0.84-0.01,1.57,0.72,1.57,1.58
		C67.31,70.71,66.62,71.38,65.72,71.38z"/>
	<path class="st2" d="M71.22,71.38c-0.88-0.01-1.57-0.71-1.55-1.58c0.01-0.82,0.73-1.53,1.56-1.54c0.84-0.01,1.57,0.72,1.57,1.58
		C72.81,70.71,72.11,71.38,71.22,71.38z"/>
	<g>
		<g>
			<path d="M25.61,38.49c2.13,1.96,4.87,3.06,7.72,3.06c2.85,0,5.59-1.1,7.73-3.06c0.71,0.43,1.39,0.85,2.01,1.31
				c0.83,0.62,1.35,1.6,1.66,3.08c0.21,1.01,0.34,2,0.41,2.95c0.04,0.5-0.12,0.94-0.43,1.28c-0.37,0.39-0.91,0.61-1.54,0.61
				c-2.46,0-4.93,0.01-7.39,0.01l-4.04,0l-4.04,0h-0.37l-1.15,0l-1.18,0c-0.53,0-1.07,0-1.6-0.01c-0.58-0.01-1.09-0.23-1.44-0.61
				c-0.22-0.25-0.47-0.68-0.41-1.31c0.11-1.2,0.35-2.5,0.73-3.96c0.26-1.01,0.91-1.86,1.93-2.51
				C24.64,39.04,25.11,38.77,25.61,38.49 M40.72,35.95c-1.97,2.41-4.68,3.61-7.39,3.61c-2.7,0-5.4-1.2-7.34-3.57
				c-0.97,0.56-1.95,1.07-2.88,1.66c-1.37,0.88-2.37,2.11-2.78,3.69c-0.36,1.4-0.65,2.84-0.79,4.28c-0.21,2.27,1.53,4.08,3.82,4.11
				c0.54,0.01,1.08,0.01,1.63,0.01c0.78,0,1.56,0,2.33-0.01c0.12,0,0.25,0,0.37,0c2.69,0,5.39,0,8.08,0c2.46,0,4.93,0,7.39-0.01
				c2.36,0,4.13-1.78,3.97-4.04c-0.08-1.08-0.23-2.16-0.45-3.21c-0.34-1.68-1.01-3.23-2.42-4.28
				C43.14,37.36,41.89,36.69,40.72,35.95L40.72,35.95z"/>
		</g>
		<g>
			<path d="M33.44,24.9L33.44,24.9c0.06,0,0.13,0,0.19,0c1.37,0.04,2.67,0.65,3.65,1.7c1,1.07,1.54,2.49,1.49,3.9
				c-0.11,2.9-2.51,5.26-5.36,5.26c-0.06,0-0.11,0-0.17,0c-1.51-0.05-2.9-0.67-3.92-1.76c-0.97-1.04-1.48-2.37-1.43-3.77
				C27.99,27.19,30.38,24.9,33.44,24.9 M33.44,22.9c-4.13,0-7.4,3.13-7.54,7.26c-0.13,4.06,3.13,7.46,7.29,7.59
				c0.08,0,0.15,0,0.23,0c3.9,0,7.21-3.2,7.35-7.18c0.15-4.03-3.1-7.55-7.08-7.67C33.6,22.9,33.52,22.9,33.44,22.9L33.44,22.9z"/>
		</g>
	</g>
	<path class="st66" d="M44.06,27.94c0,0.45,0,0.9,0,1.35c0.06,0.25,0.11,0.51,0.17,0.76c0.45,2.07,1.59,3.7,3.25,4.97
		c0.3,0.23,0.48,0.49,0.4,0.85c-0.15,0.69-0.29,1.39-0.52,2.05c-0.16,0.47-0.33,0.89,0.03,1.31c0.36,0.43,0.85,0.42,1.29,0.22
		c1.21-0.53,2.43-1.07,3.59-1.71c0.58-0.32,1.13-0.48,1.79-0.45c2.59,0.13,4.98-0.48,7.14-1.94c5.08-3.43,5.19-9.94,0.2-13.48
		c-3.12-2.21-6.59-2.67-10.23-1.64c-2.93,0.83-5.22,2.52-6.46,5.39C44.38,26.35,44.26,27.16,44.06,27.94z"/>
	<path class="st2" d="M58.51,28.3c0.01-0.87,0.73-1.59,1.57-1.57c0.83,0.02,1.53,0.73,1.53,1.56c0,0.89-0.67,1.57-1.55,1.56
		C59.17,29.85,58.51,29.19,58.51,28.3z"/>
	<path class="st2" d="M53,28.31c0-0.86,0.73-1.59,1.57-1.58c0.83,0.01,1.54,0.72,1.56,1.54c0.01,0.87-0.67,1.57-1.55,1.58
		C53.69,29.86,53,29.19,53,28.31z"/>
	<path class="st2" d="M47.5,28.31c0-0.86,0.73-1.59,1.57-1.58c0.83,0.01,1.54,0.72,1.56,1.54c0.01,0.87-0.67,1.57-1.55,1.58
		C48.19,29.86,47.5,29.19,47.5,28.31z"/>
</g>
<g id="Layer_2">
</g>
<g id="Layer_3">
</g>
</svg>
