<?xml version="1.0" encoding="utf-8"?>
<!-- Generator: Adobe Illustrator 24.1.1, SVG Export Plug-In . SVG Version: 6.00 Build 0)  -->
<svg version="1.1" xmlns="http://www.w3.org/2000/svg" xmlns:xlink="http://www.w3.org/1999/xlink" x="0px" y="0px"
	 viewBox="0 0 122 122" style="enable-background:new 0 0 122 122;" xml:space="preserve">
<style type="text/css">
	.st0{opacity:0.2;fill:#002C53;}
	.st1{fill:#FFC72C;}
	.st2{fill:#CD003A;}
	.st3{fill:#FFFFFF;}
	.st4{fill:#FF7260;}
	.st5{fill:#F2F2F2;}
	.st6{fill:#AAC4DA;}
	.st7{fill:#D9EEF7;}
	.st8{fill:#4C5B66;}
	.st9{fill:#FB8406;}
	.st10{fill:#D48D77;}
	.st11{fill:#EEA47D;}
	.st12{fill:#334353;}
	.st13{fill:#3E4E60;}
	.st14{fill:#3F5D77;}
	.st15{fill:#3F6C8E;}
	.st16{fill:#CDE6F6;}
	.st17{fill:#EA792E;}
	.st18{fill:#DD5E26;}
	.st19{fill:#F39E22;}
	.st20{fill:#C68132;}
	.st21{fill:#F9C744;}
	.st22{fill:#EBD9EA;}
	.st23{fill:#C1B7D3;}
	.st24{fill:#EE6781;}
	.st25{fill:#F0A6B3;}
	.st26{fill:#D65171;}
	.st27{fill:#F5B890;}
	.st28{fill:#FBD9A3;}
	.st29{fill:#2E3140;}
	.st30{fill:#E9465E;}
	.st31{fill:#002C53;}
	.st32{fill:#263238;}
	.st33{fill:#FFD740;}
	.st34{fill:#40C4FF;}
	.st35{fill:#FF5252;}
	.st36{fill:#F9BA48;}
	.st37{fill:#333333;}
	.st38{stroke:#000000;stroke-width:2.7735;stroke-miterlimit:10;}
	.st39{fill:#DBD9D7;}
	.st40{fill:none;stroke:#002C53;stroke-width:3;stroke-linecap:round;stroke-miterlimit:10;}
	.st41{fill:none;stroke:#000000;stroke-width:5;stroke-miterlimit:10;}
	.st42{fill:none;stroke:#CD003A;stroke-width:5;stroke-miterlimit:10;}
	.st43{fill:none;stroke:#CD003A;stroke-width:5;stroke-linecap:round;stroke-linejoin:round;stroke-miterlimit:10;}
	.st44{fill:none;stroke:#000000;stroke-width:2;stroke-linecap:round;stroke-miterlimit:10;}
	.st45{fill:none;stroke:#000000;stroke-width:2;stroke-linecap:round;stroke-miterlimit:10;stroke-dasharray:5.5323,5.5323;}
	.st46{fill:none;stroke:#CD003A;stroke-width:5.7778;stroke-linecap:round;stroke-linejoin:round;stroke-miterlimit:10;}
	.st47{fill:none;stroke:#000000;stroke-width:2.3111;stroke-linecap:round;stroke-miterlimit:10;}
	.st48{fill:none;stroke:#000000;stroke-width:2.3111;stroke-linecap:round;stroke-miterlimit:10;stroke-dasharray:6.393,6.393;}
	.st49{clip-path:url(#SVGID_2_);}
	.st50{fill:url(#SVGID_3_);}
	.st51{fill:#FCDA90;}
	.st52{fill:#CD003A;stroke:#CD003A;stroke-width:0.75;stroke-miterlimit:10;}
	.st53{fill:none;stroke:#CD003A;stroke-width:4;stroke-miterlimit:10;}
	.st54{stroke:#000000;stroke-width:2;stroke-miterlimit:10;}
	.st55{opacity:0.44;}
	.st56{opacity:0;fill:#FFC72C;}
	.st57{fill:none;stroke:#000000;stroke-width:2.6567;stroke-linecap:round;stroke-miterlimit:10;}
	.st58{fill:none;stroke:#000000;stroke-width:2.6567;stroke-linecap:round;stroke-miterlimit:10;stroke-dasharray:8.3734,8.3734;}
	.st59{opacity:0.2;fill:#CD003A;}
	.st60{fill:#002C53;stroke:#002C53;stroke-width:0.9824;stroke-miterlimit:10;}
	.st61{fill:#CD003A;stroke:#CD003A;stroke-width:0.9824;stroke-miterlimit:10;}
	.st62{stroke:#000000;stroke-width:0.9824;stroke-miterlimit:10;}
	.st63{fill:#FFE3A4;}
	.st64{opacity:0;}
	.st65{fill:none;stroke:#002C53;stroke-width:2.1;stroke-linecap:round;stroke-miterlimit:10;}
	.st66{fill:none;stroke:#000000;stroke-width:1.3;stroke-miterlimit:10;}
</style>
<g id="Layer_1">
	<g>
		<path d="M23.07,53.78c-0.05,0.65-0.05,1.32-0.15,1.96c-0.07,0.47-0.41,0.77-0.88,0.87c-0.73,0.15-1.48,0.23-2-0.45
			c-0.16-0.21-0.26-0.53-0.27-0.8c-0.03-1.03-0.01-2.06-0.01-3.09c0-0.79,0.53-1.27,1.32-1.33c1.49-0.11,2.03,0.47,1.95,1.96
			c-0.02,0.29,0,0.59,0,0.88C23.04,53.78,23.06,53.78,23.07,53.78z M21.87,52.15c-0.1-0.03-0.17-0.06-0.24-0.08
			c-0.53-0.13-0.79,0.06-0.8,0.59c-0.01,0.82,0.01,1.65-0.01,2.47c-0.01,0.49,0.34,0.36,0.61,0.39c0.29,0.03,0.44-0.05,0.43-0.38
			C21.86,54.16,21.87,53.18,21.87,52.15z"/>
		<path d="M19.76,63.07c0-0.49,0.03-0.97-0.01-1.46c-0.05-0.75,0.55-1.48,1.38-1.38c0.33,0.04,0.69-0.03,1.01,0.05
			c0.53,0.13,0.88,0.67,0.89,1.27c0.01,1,0.02,2,0,3c-0.01,0.85-0.61,1.4-1.47,1.39c-0.01,0-0.03,0-0.04,0
			c-1.27,0.05-1.85-0.38-1.76-1.81C19.78,63.78,19.76,63.42,19.76,63.07z M21.87,63.06c0,0-0.01,0-0.01,0c0-0.47-0.01-0.94,0-1.41
			c0.01-0.32-0.2-0.35-0.44-0.34c-0.24,0-0.55-0.06-0.56,0.31c-0.02,0.97-0.03,1.94-0.01,2.91c0.01,0.44,0.39,0.28,0.64,0.3
			c0.25,0.03,0.38-0.08,0.38-0.35C21.86,64,21.87,63.53,21.87,63.06z"/>
		<path d="M19.76,72.33c0-0.53,0-1.06,0-1.59c0.01-0.69,0.47-1.17,1.15-1.23c1.5-0.13,2.21,0.27,2.12,1.95
			c-0.04,0.75-0.02,1.5,0,2.25c0.02,0.97-0.63,1.57-1.48,1.48c-0.43-0.05-0.88,0.1-1.27-0.23c-0.34-0.28-0.54-0.59-0.53-1.04
			C19.77,73.39,19.76,72.86,19.76,72.33z M21.87,72.35C21.87,72.35,21.87,72.35,21.87,72.35c0-0.46-0.02-0.91,0-1.37
			c0.01-0.31-0.15-0.38-0.41-0.36c-0.26,0.02-0.61-0.07-0.62,0.36c-0.01,0.91-0.01,1.82-0.02,2.73c0,0.35,0.21,0.39,0.49,0.38
			c0.27-0.01,0.55,0.03,0.55-0.38C21.86,73.26,21.87,72.8,21.87,72.35z"/>
		<g>
			<circle class="st59" cx="61" cy="61" r="60"/>
			<path class="st1" d="M35.77,64.61c0,0,0.81,3.24,2.55,4.62c1.79,0.41,3.17,0.3,3.62-1.76c0.12-0.81-0.8-2.32-2.04-2.62
				C38.92,64.53,36.26,63.8,35.77,64.61z"/>
			<path class="st31" d="M27.21,67.84c1.16,0.33,2.05,1.22,2.38,2.38c0.23,0.82,1.4,0.82,1.63,0c0.33-1.16,1.22-2.05,2.38-2.38
				c0.82-0.23,0.82-1.4,0-1.63c-1.16-0.33-2.05-1.22-2.38-2.38c-0.23-0.82-1.4-0.82-1.63,0c-0.33,1.16-1.22,2.05-2.38,2.38
				C26.39,66.44,26.39,67.61,27.21,67.84z M30.41,64.83c0.45,0.97,1.23,1.74,2.2,2.2c-0.97,0.45-1.74,1.23-2.2,2.2
				c-0.45-0.97-1.23-1.74-2.2-2.2C29.18,66.57,29.95,65.8,30.41,64.83z"/>
			<path d="M102.71,48c-1.46-1.22-3.1-1.61-4.94-1.05c-1.03,0.32-2.08,0.57-3.15,0.28c-0.95-0.26-1.87-0.62-2.79-0.97
				c-0.19-0.07-0.4-0.32-0.44-0.52c-0.43-1.96-0.84-3.92-1.24-5.89c-0.34-1.64-0.64-3.28-1-4.91c-0.16-0.72-0.28-1.52-0.67-2.1
				c-0.78-1.14-1.73-2.16-2.65-3.2c-0.18-0.21-0.27-0.38-0.27-0.64c0-1.09,0-2.18,0-3.27c0-0.64-0.1-0.74-0.74-0.74
				c-1.53,0-3.06,0-4.6,0c-0.46,0-0.91,0.02-1.37,0.03c-0.36,0.01-0.48,0.19-0.47,0.54c0.01,1.03,0.02,2.06,0,3.09
				c-0.02,1.12-0.52,1.6-1.63,1.6c-1.77,0-3.54,0.02-5.3,0c-1.71-0.02-3.41,0.1-5.12-0.14c-0.31-0.04-0.65,0.02-0.96,0.1
				c-0.73,0.19-1.49-0.4-1.49-1.29c0.01-1.06,0-2.12,0-3.18c0-0.61-0.07-0.73-0.65-0.74c-1.99-0.02-3.97-0.02-5.96,0
				c-0.57,0.01-0.63,0.12-0.63,0.71c0.01,1.6,0.02,3.21,0.03,4.81c0.01,2.9,0,5.81,0.01,8.71c0,7.12,0,14.23,0.01,21.35
				c0,0.55,0.18,0.74,0.68,0.75c1.92,0,3.83,0.01,5.75,0c0.55,0,0.7-0.16,0.7-0.73c0-1.05,0-2.09,0-3.14c0-0.88,0.57-1.47,1.45-1.47
				c3.9,0,7.81,0,11.71,0.01c0.91,0,1.44,0.57,1.44,1.47c-0.01,1.02-0.01,2.03,0,3.05c0,0.65,0.16,0.81,0.8,0.81
				c1.87,0,3.74,0,5.61-0.01c0.54,0,0.69-0.16,0.69-0.72c0-3.96,0-7.93,0-11.89c0-0.38,0-0.76,0-1.28c0.98,0.49,1.84,0.95,2.73,1.36
				c0.44,0.2,0.56,0.48,0.63,0.95c0.19,1.42-0.07,2.72-0.78,3.95c-1.07,1.86-1.08,3.71,0.03,5.55c0.73,1.2,1.84,1.91,3.19,2.12
				c1.05,0.17,2.02-0.23,2.81-0.97c2.11-1.97,1.95-5.65-0.31-7.57c-0.4-0.34-0.79-0.69-1.12-1.09c-0.57-0.67-0.95-1.46-1.11-2.35
				c0.07-0.01,0.13-0.02,0.19-0.02c0.07,0.01,0.14,0.02,0.21,0.04c1.51,0.44,2.64,1.38,3.36,2.76c0.45,0.86,0.98,1.61,1.81,2.13
				c1.76,1.11,3.57,1.31,5.41,0.26c1.18-0.67,1.77-1.75,1.8-3.09C104.4,50.03,103.78,48.9,102.71,48z M85.9,31.28
				c1.02,1.11,1.92,2.13,2.14,3.65c0.28,1.91,0.76,3.79,1.16,5.68c0.33,1.59,0.67,3.18,1.04,4.9c-0.62-0.31-1.2-0.53-1.68-0.88
				c-0.2-0.15-0.21-0.58-0.27-0.89c-0.57-2.82-1.12-5.64-1.68-8.46c-0.24-1.21-0.47-2.42-0.71-3.64
				C85.88,31.56,85.9,31.47,85.9,31.28z M85.6,37.65c0-0.57,0-1.13,0-1.7c0.02,0,0.03-0.01,0.05-0.01c0.53,2.67,1.06,5.33,1.61,8.11
				c-0.58-0.28-1.07-0.5-1.54-0.76c-0.1-0.06-0.16-0.28-0.16-0.43C85.57,41.12,85.59,39.39,85.6,37.65z M81.5,26.14h0.76
				c0,0.41,0.05,0.84-0.03,1.24c-0.03,0.13-0.42,0.19-0.73,0.31V26.14z M59.67,26.14h0.75c0,0.41,0.02,0.81-0.01,1.19
				c-0.01,0.09-0.16,0.21-0.27,0.24c-0.13,0.04-0.29,0.01-0.47,0.01V26.14z M60.36,60.17c-0.06,0.02-0.12,0.04-0.18,0.07
				c-0.1-0.15-0.19-0.3-0.29-0.45c-0.03,0.08-0.09,0.22-0.2,0.49v-1.95h0.67V60.17z M82.23,60.13H81.5v-1.8h0.72V60.13z
				 M84.48,59.79v0.5h-1.07c0-0.61,0.01-1.19,0-1.77c-0.01-0.73-0.32-1.2-0.96-1.33c-0.38-0.07-0.79-0.07-1.17,0
				c-0.6,0.12-0.9,0.56-0.93,1.21c-0.01,0.31-0.01,0.62-0.01,0.93c0,0.31,0,0.62,0,0.97h-0.91c0-0.68,0.01-1.35,0-2.02
				c-0.01-0.65,0.08-1.31-0.23-1.94c-0.39-0.79-1.01-1.24-1.86-1.33c-0.63-0.06-1.27-0.02-1.9-0.02c-3.37,0-6.75,0-10.12,0
				c-1.29,0-2.12,0.57-2.44,1.71c-0.07,0.26-0.07,0.55-0.07,0.83c-0.01,0.85-0.02,1.71-0.02,2.56c0,0.06-0.02,0.11-0.04,0.23
				c-0.33,0-0.67,0.02-1-0.02c-0.09-0.01-0.23-0.2-0.24-0.31c-0.03-0.56-0.04-1.12-0.02-1.68c0.02-0.75-0.52-1.11-1.06-1.16
				c-0.39-0.03-0.79,0.02-1.18,0.09c-0.43,0.08-0.76,0.61-0.77,1.16c-0.01,0.62,0,1.23,0,1.89h-0.78V26.12h0.78
				c0,0.43,0,0.85,0,1.28c0,0.72,0.37,1.18,1.08,1.33c0.91,0.19,1.77-0.19,1.89-0.89c0.07-0.37,0.02-0.76,0.03-1.15
				c0.01-0.19,0.03-0.37,0.05-0.57h1.24c0.01,0.16,0.02,0.31,0.02,0.47c0,0.84,0,1.68,0.01,2.52c0.01,1.26,0.91,2.2,2.17,2.21
				c4.1,0.02,8.21,0.04,12.31-0.02c1.13-0.01,2.09-0.95,2.13-2.26c0.03-0.96,0.01-1.91,0.01-2.9h0.87c0.04,0.55,0.06,1.1,0.12,1.65
				c0.04,0.39,0.26,0.68,0.64,0.82c0.67,0.24,1.32,0.26,1.93-0.18c0.35-0.25,0.38-0.64,0.4-1.01c0.02-0.41,0.01-0.82,0.01-1.27h1.06
				V42.7c-0.65-0.32-1.27-0.64-1.91-0.94c-0.95-0.46-1.91-0.89-2.84-1.36c-0.13-0.07-0.25-0.29-0.25-0.45
				c-0.03-0.66-0.01-1.33-0.01-1.99c0-1.4-1.07-2.48-2.47-2.48c-3.91,0-7.81-0.01-11.72,0c-1.22,0-2.45,0.91-2.44,2.39
				c0.02,3.7,0.03,7.4,0,11.1c-0.01,1.19,1.11,2.26,2.17,2.25c3.88-0.02,7.75,0,11.63,0c0.39,0,0.8-0.01,1.18-0.09
				c0.93-0.21,1.67-1.22,1.66-2.26c-0.01-1.44,0-2.89,0-4.4c0.44,0.21,0.84,0.4,1.23,0.6c1.21,0.61,2.42,1.21,3.61,1.84
				c0.12,0.06,0.2,0.3,0.2,0.46c0.01,2.28,0.01,4.57,0.01,6.85C84.48,56.08,84.48,57.93,84.48,59.79z M72.97,38.73
				c0.79,1.11,1.57,2.24,2.46,3.27c0.43,0.5,1.06,0.9,1.67,1.18c0.9,0.41,1.3,0.96,1.2,2c-0.11,1.21-0.06,2.44-0.01,3.66
				c0.02,0.63-0.61,1.31-1.32,1.31c-3.92-0.01-7.84,0-11.75-0.01c-0.74,0-1.33-0.58-1.33-1.34c-0.01-3.61,0-7.22-0.01-10.83
				c0-0.66,0.61-1.37,1.37-1.36c3.9,0.02,7.81,0.01,11.71,0.01c0.78,0,1.31,0.5,1.32,1.27c0.01,0.47,0,0.94,0,1.41
				c0,0.07-0.02,0.15-0.03,0.24c-0.09-0.01-0.19-0.01-0.26-0.04c-1.3-0.63-2.59-1.27-3.88-1.9c-0.43-0.21-0.79-0.13-1.14,0.22
				C72.67,38.13,72.79,38.47,72.97,38.73z M93.6,54.42c0,0,0.7,1.03,0.82,1.63c0.27,1.38-0.06,2.63-1.14,3.57
				c-0.7,0.61-1.54,0.8-2.45,0.47c-0.54-0.2-1.06-0.42-1.4-0.92c-0.66-0.61-0.96-1.41-1.04-2.28c-0.07-0.73-0.06-1.47,0.37-2.13
				c0.23-0.47,0.46-0.94,0.69-1.41c0.57-1.16,0.62-2.39,0.48-3.64c-0.01-0.09-0.02-0.17-0.03-0.26c0-0.04,0.01-0.08,0.03-0.14
				c0.14-0.04,0.27-0.07,0.38-0.1c0.3,0.84,0.9,2.56,0.9,2.56 M90.69,48.04c-0.27-0.02-0.55,0.07-0.83,0.07
				c-0.29,0-0.62,0.03-0.87-0.1c-2.82-1.39-5.64-2.8-8.44-4.23c-1.2-0.61-2.38-1.28-3.55-1.95c-1.05-0.6-1.62-1.65-2.35-2.54
				c0.02-0.03,0.04-0.06,0.06-0.1c5.64,2.73,11.28,5.47,16.95,8.21C91.4,48.13,91.4,48.11,90.69,48.04z M101.51,53.85
				c-1.22,0.49-2.42,0.32-3.52-0.36c-0.36-0.22-0.69-0.52-0.97-0.91c-0.99-1.36-1.72-2.99-3.39-3.74c-0.35-0.16-0.7-0.33-1.12-0.53
				c0.09-0.16,0.16-0.3,0.24-0.44c0.51,0.15,0.99,0.33,1.49,0.44c1.33,0.3,2.63,0.13,3.91-0.29c0.99-0.33,1.98-0.25,2.9,0.21
				c1.2,0.61,2.09,1.52,2.2,2.94C103.33,52.48,102.66,53.39,101.51,53.85z"/>
			<path d="M95.64,82.86c0,4.17,0,8.34,0,12.51c0,0.81-0.13,0.94-0.95,0.93c-1.72,0-3.45-0.01-5.17-0.01
				c-0.41,0-0.67-0.13-0.81-0.56c-0.22-0.68-0.82-0.93-1.43-1.1c-0.35-0.09-0.72-0.1-1.09-0.1c-4.67-0.01-9.34-0.02-14.01,0.01
				c-0.8,0-1.61,0.15-2.12,0.92c-0.02,0.04-0.07,0.07-0.07,0.11c-0.12,0.76-0.67,0.74-1.26,0.74c-1.68-0.02-3.36-0.01-5.04-0.01
				c-0.54,0-0.78-0.23-0.79-0.77c-0.01-1.06-0.01-2.12,0-3.18c0.03-4.31,0.07-8.62,0.09-12.94c0.02-3.05,0.01-6.1,0.01-9.15
				c0-0.46,0.18-0.64,0.64-0.64c1.83,0,3.65-0.01,5.48,0.01c0.21,0,0.47,0.1,0.62,0.24c0.99,0.95,2.2,1.47,3.53,1.49
				c4.01,0.05,8.02,0.04,12.02,0.01c1.2-0.01,2.28-0.47,3.2-1.23c0.5-0.42,1.02-0.57,1.64-0.56c1.62,0.01,3.24,0,4.86,0
				c0.51,0,0.62,0.11,0.62,0.62c0.01,2.83,0.02,5.66,0.03,8.48c0,1.38,0,2.77,0,4.15C95.65,82.86,95.65,82.86,95.64,82.86z
				 M94.55,70.72c-0.07-0.03-0.09-0.05-0.12-0.05c-1.58,0-3.15-0.01-4.73,0c-0.14,0-0.3,0.1-0.42,0.19c-1.25,1-2.67,1.56-4.27,1.57
				c-3.76,0.02-7.51,0.01-11.27,0c-1.65-0.01-3.14-0.5-4.44-1.56c-0.15-0.12-0.39-0.2-0.59-0.2c-1.1-0.02-2.21-0.01-3.31-0.01
				c-0.44,0-0.87,0-1.32,0c0,8.19,0,16.33,0,24.5c1.6,0,3.16,0,4.72-0.01c0.11,0,0.25-0.12,0.32-0.23c0.6-0.98,1.56-1.42,2.62-1.43
				c5.05-0.04,10.11-0.04,15.16,0c1.07,0.01,2,0.44,2.64,1.39c0.09,0.14,0.32,0.26,0.48,0.26c1.37,0.02,2.74,0.02,4.11,0.02
				c0.14,0,0.28-0.01,0.43-0.02C94.55,86.97,94.55,78.85,94.55,70.72z"/>
			<g>
				<path class="st60" d="M100.79,69.48c-0.13,0.58-0.21,1.04-0.32,1.49c-0.22,0.84-0.46,1.67-0.7,2.51
					c-0.02,0.08-0.05,0.17-0.09,0.25c-0.14,0.3-0.35,0.47-0.7,0.35c-0.34-0.12-0.42-0.39-0.34-0.71c0.34-1.29,0.7-2.57,1.04-3.86
					c0.1-0.38,0.35-0.52,0.68-0.42C100.55,69.15,100.68,69.37,100.79,69.48z"/>
				<path class="st60" d="M101.67,62.37c-0.07,1.01-0.14,2.01-0.22,3.02c-0.04,0.44-0.32,0.72-0.65,0.67
					c-0.32-0.04-0.45-0.38-0.42-0.81c0.09-1.18,0.14-2.37,0.2-3.55c0.01-0.13-0.02-0.27,0.01-0.4c0.07-0.31,0.3-0.52,0.6-0.43
					c0.18,0.06,0.39,0.3,0.43,0.49c0.07,0.32,0.02,0.67,0.02,1.01C101.65,62.37,101.66,62.37,101.67,62.37z"/>
			</g>
			<g>
				<path class="st61" d="M39.12,26.1c-0.06,0.07-0.15,0.25-0.3,0.35c-1.09,0.76-2.19,1.49-3.27,2.25c-0.3,0.21-0.55,0.17-0.79-0.04
					c-0.22-0.2-0.17-0.61,0.11-0.81c1.14-0.8,2.29-1.59,3.45-2.37C38.67,25.26,39.12,25.54,39.12,26.1z"/>
				<path class="st61" d="M42.12,24.54c-0.12-0.1-0.34-0.2-0.41-0.37c-0.12-0.28-0.01-0.56,0.28-0.7c0.45-0.23,0.91-0.45,1.38-0.64
					c0.75-0.31,1.51-0.62,2.27-0.89c0.2-0.07,0.49-0.08,0.66,0.02c0.37,0.22,0.31,0.75-0.09,0.92c-1.24,0.53-2.49,1.06-3.74,1.58
					C42.39,24.49,42.3,24.5,42.12,24.54z"/>
				<path class="st61" d="M29.14,34.53c-0.19-0.15-0.41-0.23-0.44-0.37c-0.05-0.2-0.05-0.5,0.07-0.63c0.93-1,1.88-1.98,2.84-2.94
					c0.23-0.23,0.56-0.28,0.82,0.02c0.23,0.26,0.17,0.55-0.12,0.84c-0.88,0.9-1.74,1.81-2.62,2.71
					C29.55,34.29,29.35,34.38,29.14,34.53z"/>
				<path class="st61" d="M54.51,20.36c0,0.36-0.24,0.47-0.53,0.53c-0.93,0.18-1.86,0.35-2.79,0.53c-0.4,0.08-0.8,0.22-1.2,0.24
					c-0.19,0.01-0.51-0.18-0.56-0.34c-0.07-0.23-0.03-0.6,0.32-0.67c1.39-0.29,2.78-0.56,4.17-0.81
					C54.3,19.77,54.5,19.98,54.51,20.36z"/>
				<path class="st61" d="M60.12,19.39c0.63,0,1.27-0.03,1.9,0.01c0.23,0.02,0.5,0.15,0.66,0.32c0.09,0.1,0.06,0.48-0.04,0.55
					c-0.2,0.14-0.48,0.15-0.74,0.2c-0.13,0.02-0.26-0.02-0.39-0.02c-1.1,0-2.21,0.01-3.31,0.02c-0.42,0-0.67-0.18-0.65-0.53
					c0.03-0.37,0.28-0.54,0.63-0.54C58.83,19.38,59.47,19.39,60.12,19.39z"/>
			</g>
			<g>
				<path class="st62" d="M62.44,102.58c-0.24,0-0.44,0.06-0.53-0.01c-0.17-0.14-0.39-0.35-0.39-0.54c0-0.17,0.25-0.46,0.42-0.48
					c1-0.13,2.01-0.19,3.01-0.29c0.33-0.03,0.66-0.09,1-0.15c0.4-0.07,0.65,0.07,0.72,0.44c0.07,0.36-0.13,0.55-0.46,0.6
					c-0.51,0.09-1.03,0.19-1.54,0.24C63.9,102.48,63.12,102.52,62.44,102.58z"/>
				<path class="st62" d="M31.27,90.88c0.13-0.17,0.21-0.38,0.36-0.44c0.16-0.06,0.42-0.04,0.56,0.06c0.41,0.3,0.78,0.66,1.18,0.99
					c0.65,0.54,1.31,1.07,1.96,1.61c0.28,0.23,0.33,0.56,0.13,0.81c-0.21,0.26-0.55,0.29-0.86,0.04c-0.76-0.62-1.51-1.25-2.26-1.88
					c-0.27-0.22-0.53-0.46-0.77-0.71C31.45,91.24,31.39,91.07,31.27,90.88z"/>
				<path class="st62" d="M38.37,95.36c0.22,0.09,0.35,0.12,0.46,0.18c1.04,0.58,2.08,1.17,3.13,1.74c0.56,0.31,0.73,0.56,0.54,0.91
					c-0.2,0.36-0.45,0.39-1.04,0.06c-1.12-0.61-2.24-1.23-3.33-1.88c-0.15-0.09-0.24-0.44-0.2-0.63
					C37.96,95.58,38.23,95.47,38.37,95.36z"/>
				<path class="st62" d="M57.68,102.62c-1.33-0.16-2.66-0.31-3.98-0.5c-0.16-0.02-0.38-0.32-0.4-0.51
					c-0.04-0.31,0.19-0.54,0.52-0.51c0.59,0.04,1.19,0.13,1.78,0.19c0.62,0.06,1.25,0.11,1.88,0.17c0.19,0.02,0.37,0.05,0.56,0.08
					c0.31,0.06,0.47,0.29,0.44,0.56c-0.04,0.3-0.23,0.53-0.6,0.5c-0.06-0.01-0.12,0-0.18,0C57.68,102.6,57.68,102.61,57.68,102.62z"
					/>
				<path class="st62" d="M45.31,99.75c-0.02-0.61,0.37-0.84,0.83-0.7c1.23,0.39,2.45,0.78,3.68,1.17c0.38,0.12,0.55,0.36,0.43,0.73
					c-0.1,0.32-0.33,0.46-0.68,0.34c-1.26-0.4-2.52-0.78-3.77-1.19C45.59,100.03,45.42,99.83,45.31,99.75z"/>
				<path class="st62" d="M70.13,101.43c-0.16-0.17-0.41-0.32-0.47-0.52c-0.08-0.28,0.1-0.53,0.41-0.62
					c0.91-0.26,1.81-0.52,2.71-0.79c0.29-0.09,0.58-0.19,0.86-0.29c0.36-0.13,0.72-0.01,0.82,0.27c0.12,0.32-0.02,0.6-0.43,0.73
					c-1.2,0.39-2.4,0.76-3.61,1.13c-0.07,0.02-0.15,0.01-0.22,0.02C70.19,101.38,70.16,101.41,70.13,101.43z"/>
			</g>
			<path d="M83.45,34.38c-0.04,0.55-0.06,1.11-0.13,1.66c-0.08,0.58-0.51,0.93-1.07,0.95c-0.26,0.01-0.53,0.01-0.79,0
				c-0.44-0.02-0.98-0.37-1-0.77c-0.07-1.12-0.14-2.26-0.06-3.37c0.06-0.78,0.55-1.07,1.35-1.07c0.23,0,0.48-0.02,0.7,0.03
				c0.6,0.14,0.96,0.64,0.97,1.34c0.01,0.41,0,0.82,0,1.23C83.43,34.37,83.44,34.38,83.45,34.38z M81.48,34.37
				C81.48,34.37,81.48,34.37,81.48,34.37c-0.01,0.38,0.01,0.77-0.01,1.15c-0.02,0.35,0.21,0.33,0.43,0.34
				c0.21,0.01,0.36-0.04,0.36-0.31c-0.01-0.77-0.02-1.53,0-2.3c0.01-0.35-0.2-0.3-0.43-0.33c-0.29-0.03-0.36,0.09-0.35,0.35
				C81.49,33.64,81.48,34.01,81.48,34.37z"/>
			<path d="M83.45,50.95c-0.04,0.55-0.03,1.12-0.12,1.66c-0.09,0.6-0.49,0.89-1.1,0.91c-0.16,0-0.32,0.01-0.48,0.02
				c-0.82,0.03-1.35-0.36-1.4-1.17c-0.06-0.94-0.04-1.88,0.02-2.82c0.07-1.14,1-1.34,1.83-1.22c0.86,0.12,1.18,0.54,1.21,1.43
				c0.01,0.4,0,0.79,0,1.19C83.42,50.95,83.43,50.95,83.45,50.95z M82.24,49.5c-0.75-0.11-0.76-0.1-0.76,0.57
				c0,0.59-0.01,1.18,0,1.77c0.01,0.67,0.06,0.71,0.76,0.54C82.24,51.43,82.24,50.47,82.24,49.5z"/>
			<path d="M61.49,34.41c0,0.48,0.01,0.97,0,1.45c-0.01,0.63-0.48,1.1-1.11,1.12c-0.21,0-0.41,0-0.62,0
				c-0.78-0.01-1.26-0.47-1.27-1.24c-0.01-0.91-0.01-1.82,0-2.73c0.01-0.72,0.54-1.23,1.25-1.24c0.21,0,0.41-0.01,0.62,0
				c0.64,0.02,1.1,0.46,1.13,1.1c0.01,0.26,0.01,0.53,0.01,0.79C61.5,33.91,61.5,34.16,61.49,34.41
				C61.49,34.41,61.49,34.41,61.49,34.41z M59.64,35.81c0.17,0.01,0.31-0.01,0.42,0.03c0.26,0.12,0.34-0.03,0.34-0.22
				c0.01-0.88,0.01-1.75,0.01-2.62c-0.63-0.15-0.76-0.11-0.77,0.24C59.64,34.09,59.64,34.94,59.64,35.81z"/>
			<path d="M61.49,42.7c0,0.47-0.01,0.94,0,1.41c0.01,0.45-0.18,0.8-0.58,1c-0.58,0.29-1.2,0.28-1.77,0.02
				c-0.53-0.24-0.67-0.75-0.66-1.32c0.02-0.78,0.02-1.56,0-2.34c-0.03-0.78,0.47-1.5,1.39-1.4c0.43,0.05,0.92-0.09,1.23,0.3
				c0.19,0.23,0.34,0.54,0.38,0.83C61.54,41.7,61.49,42.2,61.49,42.7C61.49,42.7,61.49,42.7,61.49,42.7z M60.41,44.1
				c0-0.91,0.01-1.79-0.01-2.66c0-0.1-0.17-0.24-0.29-0.27c-0.14-0.04-0.3,0.02-0.45,0.04c0,0.96,0,1.93,0,2.9
				C59.93,44.1,60.16,44.1,60.41,44.1z"/>
			<path d="M61.5,50.95c0,0.5,0.01,1,0,1.5c-0.02,0.62-0.48,1.05-1.09,1.07c-0.24,0.01-0.47,0.02-0.7,0.02
				c-0.74-0.02-1.21-0.51-1.21-1.25c0-0.85,0.01-1.71,0-2.56c-0.01-0.79,0.39-1.38,1.36-1.41c0.29-0.01,0.58,0.03,0.87,0.09
				c0.43,0.09,0.77,0.55,0.77,1C61.5,49.92,61.49,50.43,61.5,50.95C61.49,50.95,61.5,50.95,61.5,50.95z M59.66,52.38
				c0.7,0.15,0.76,0.1,0.76-0.55c0-0.57,0-1.15,0-1.72c0-0.71-0.03-0.74-0.76-0.6C59.66,50.46,59.66,51.41,59.66,52.38z"/>
			<path d="M88.99,47.39c-0.02-0.4,0.2-0.59,0.51-0.64c0.32-0.05,0.64,0.26,0.64,0.57c0,0.3-0.29,0.62-0.57,0.61
				C89.26,47.93,89,47.67,88.99,47.39z"/>
			<path d="M100.06,53.83c-1.72-0.04-3.23-1.25-3.51-2.71c-0.07-0.36-0.03-0.76,0.03-1.13c0.08-0.45,0.39-0.99,0.74-1.24
				c0.88-0.63,1.86-0.82,2.91-0.5c1.17,0.36,2.1,1.02,2.51,2.23c0.51,1.53-0.3,2.81-1.82,3.2
				C100.64,53.76,100.35,53.78,100.06,53.83z M100.06,52.64c0.87,0,1.46-0.34,1.65-0.96c0.18-0.59-0.14-1.44-0.73-1.84
				c-0.58-0.39-1.2-0.66-1.92-0.58c-0.57,0.06-1.05,0.26-1.31,0.8c-0.23,0.47-0.15,0.96,0.12,1.38
				C98.38,52.22,99.11,52.64,100.06,52.64z"/>
			<path d="M89.29,58.58c-0.94-1.44-0.81-3.37,0.23-4.43c0.26-0.26,0.61-0.46,0.94-0.61c0.42-0.19,1.03-0.24,1.44-0.09
				c1.02,0.37,1.73,1.06,2.06,2.11c0.37,1.17,0.35,2.31-0.41,3.33c-0.96,1.29-2.48,1.34-3.67,0.32
				C89.68,59.01,89.5,58.78,89.29,58.58z M90.27,57.9c0.49,0.72,1.11,1.01,1.73,0.81c0.58-0.18,1.1-0.94,1.09-1.64
				c-0.01-0.7-0.14-1.36-0.62-1.91c-0.37-0.44-0.81-0.72-1.4-0.63c-0.52,0.08-0.87,0.42-1.06,0.88
				C89.66,56.28,89.74,57.12,90.27,57.9z"/>
			<path d="M44.24,53.78c0-0.49,0.02-0.97,0-1.46c-0.03-0.79,0.64-1.47,1.36-1.38c0.3,0.04,0.63-0.03,0.92,0.04
				c0.58,0.13,0.99,0.67,0.99,1.28c0.01,1,0.03,2,0,3c-0.04,1.05-0.85,1.61-2.01,1.41c-0.9-0.15-1.25-0.56-1.25-1.49
				C44.25,54.72,44.25,54.25,44.24,53.78C44.24,53.78,44.24,53.78,44.24,53.78z M46.37,53.83c0-0.46-0.01-0.91,0-1.37
				c0.01-0.42-0.3-0.4-0.57-0.43c-0.29-0.03-0.46,0.1-0.46,0.38c-0.01,0.93,0,1.85-0.01,2.78c0,0.44,0.32,0.32,0.57,0.34
				c0.24,0.01,0.49,0.03,0.48-0.33C46.36,54.74,46.37,54.28,46.37,53.83z"/>
			<path d="M44.25,63.05c0-0.5,0-1,0-1.5c0-0.8,0.51-1.31,1.3-1.31c0.19,0,0.38,0,0.57,0c0.85,0,1.37,0.49,1.39,1.35
				c0.02,0.99,0.02,1.97,0,2.96c-0.01,0.83-0.51,1.34-1.34,1.37c-0.48,0.02-0.96,0.07-1.4-0.23c-0.35-0.24-0.51-0.55-0.52-0.96
				C44.25,64.17,44.25,63.61,44.25,63.05z M46.37,63.07C46.37,63.07,46.37,63.07,46.37,63.07c0-0.47-0.01-0.94,0-1.41
				c0-0.32-0.2-0.36-0.44-0.34c-0.24,0.02-0.56-0.05-0.57,0.31c-0.03,0.94-0.02,1.89-0.02,2.83c0,0.44,0.33,0.36,0.6,0.37
				c0.28,0.01,0.45-0.07,0.44-0.39C46.36,63.98,46.37,63.52,46.37,63.07z"/>
			<path d="M79.32,91.8c-2.59,0-5.19,0.02-7.78-0.01c-1.16-0.01-2.04-0.56-2.54-1.63c-0.12-0.25-0.17-0.56-0.17-0.84
				c-0.01-4.1,0.02-8.19-0.02-12.29c-0.01-1.3,1.08-2.41,2.29-2.56c0.45-0.05,0.9-0.09,1.36-0.09c4.83-0.01,9.66-0.02,14.5,0.01
				c1.17,0.01,2.16,0.5,2.65,1.66c0.14,0.34,0.2,0.74,0.21,1.11c0.02,1.3-0.01,2.61-0.01,3.92c-0.01,1.5-0.01,2.99-0.01,4.49
				c0,1.3,0.03,2.6-0.02,3.9c-0.04,1.01-0.65,1.68-1.55,2.04c-0.47,0.19-1.01,0.27-1.52,0.27C84.24,91.82,81.78,91.8,79.32,91.8
				C79.32,91.8,79.32,91.8,79.32,91.8z M79.34,75.52c0-0.01,0-0.02,0-0.03c-2.53,0-5.06,0-7.59,0c-1.17,0-1.88,0.8-1.87,1.84
				c0.05,3.92,0.02,7.84,0.02,11.75c0,0.21,0.03,0.45,0.11,0.64c0.34,0.74,1,0.99,1.74,1c1.62,0.02,3.24,0.01,4.86,0.01
				c3.42,0,6.83,0,10.25-0.01c1.24,0,1.86-0.63,1.86-1.86c0-3.89,0-7.78,0-11.67c0-1-0.65-1.68-1.66-1.68
				C84.49,75.52,81.91,75.52,79.34,75.52z"/>
			<path d="M66.48,94.31c-0.45-0.05-0.91-0.06-1.34-0.16c-0.48-0.11-0.71-0.47-0.73-0.97c-0.01-0.4-0.02-0.79-0.02-1.19
				c-0.01-0.82,0.38-1.26,1.2-1.3c0.56-0.03,1.11-0.03,1.67-0.01c0.83,0.03,1.31,0.54,1.29,1.39c-0.01,0.42,0,0.85-0.08,1.26
				c-0.11,0.59-0.55,0.92-1.15,0.94c-0.28,0.01-0.56,0-0.84,0C66.48,94.29,66.48,94.3,66.48,94.31z M67.33,91.81
				c-0.52,0-1.05-0.01-1.57,0.01c-0.09,0-0.25,0.1-0.25,0.16c-0.02,0.37-0.01,0.74-0.01,1.13c0.32,0,0.57,0,0.81,0
				c1.27,0,1.11,0.19,1.08-1.22C67.39,91.88,67.37,91.87,67.33,91.81z"/>
			<path d="M66.47,79.63c-0.41-0.04-0.81-0.07-1.22-0.11c-0.65-0.07-0.92-0.79-0.91-1.32c0-0.37,0.05-0.73,0.07-1.1
				c0.03-0.57,0.4-1.01,0.98-1.04c0.72-0.03,1.44-0.03,2.16,0.01c0.61,0.03,1.02,0.6,1,1.28c-0.01,0.34-0.03,0.67-0.03,1.01
				c0,0.71-0.47,1.2-1.2,1.23c-0.28,0.01-0.56,0-0.84,0C66.47,79.6,66.47,79.61,66.47,79.63z M65.51,78.42c0.65,0,1.24,0,1.89,0
				c0-0.37,0.01-0.72-0.01-1.06c0-0.08-0.11-0.21-0.17-0.21c-0.46-0.02-0.92-0.01-1.38-0.01c0,0.02,0,0.05,0,0.07
				c0.05,0.02,0.11,0.03,0.16,0.05c-0.16,0.02-0.32,0.04-0.49,0.06C65.51,77.68,65.51,78.02,65.51,78.42z"/>
			<path d="M92.06,74.99c-0.49-0.1-1-0.15-1.47-0.3c-0.37-0.12-0.55-0.45-0.54-0.87c0.01-0.5,0-1,0.01-1.5
				c0.01-0.45,0.38-0.91,0.83-0.93c0.78-0.04,1.55-0.04,2.33,0c0.54,0.03,0.89,0.45,0.91,0.99c0.02,0.44,0.01,0.88,0.01,1.32
				c-0.01,0.73-0.43,1.16-1.17,1.2c-0.29,0.01-0.59,0-0.88,0C92.07,74.93,92.07,74.96,92.06,74.99z M91.12,72.46
				c0,0.38-0.01,0.7,0.01,1.02c0.01,0.09,0.12,0.23,0.19,0.23c0.57,0.02,1.13,0.01,1.7,0.01c0-0.45,0-0.85,0-1.26
				C92.39,72.46,91.79,72.46,91.12,72.46z"/>
			<path d="M66.46,74.91c-0.31,0-0.62,0-0.93,0c-0.67-0.01-1.13-0.46-1.14-1.12c0-0.41,0-0.82,0-1.24c0-0.68,0.45-1.15,1.14-1.17
				c0.62-0.02,1.24-0.02,1.85,0c0.63,0.01,1.08,0.46,1.14,1.16c0.04,0.48,0.01,0.97-0.05,1.44c-0.08,0.59-0.49,0.92-1.08,0.92
				C67.08,74.91,66.77,74.91,66.46,74.91C66.46,74.91,66.46,74.91,66.46,74.91z M67.4,72.55c-0.64,0-1.26,0-1.88,0
				c0,0.46,0,0.86,0,1.25c0.65,0,1.26,0,1.88,0C67.4,73.37,67.4,72.99,67.4,72.55z"/>
			<path d="M66.65,80.92c0.26,0,0.59-0.01,0.91,0c0.47,0.02,0.89,0.41,0.92,0.89c0.03,0.49,0.03,0.99,0.03,1.49
				c0,0.71-0.5,1.1-1.1,1.12c-0.7,0.02-1.41,0.02-2.1-0.05c-0.62-0.06-0.88-0.42-0.89-1.03c-0.01-0.4-0.01-0.79-0.01-1.19
				c0-0.87,0.47-1.31,1.35-1.27C66.03,80.89,66.31,80.9,66.65,80.92z M65.52,83.27c0.65,0,1.25,0,1.88,0c0-0.37,0.02-0.7-0.01-1.04
				c-0.01-0.09-0.15-0.23-0.23-0.23c-0.54-0.02-1.08-0.01-1.64-0.01C65.52,82.44,65.52,82.84,65.52,83.27z"/>
			<path d="M92.08,89.41c-0.32,0-0.65,0-0.97,0c-0.61-0.01-1.05-0.43-1.06-1.04c-0.01-0.46-0.01-0.91,0-1.37
				c0.02-0.66,0.48-1.11,1.14-1.12c0.57-0.01,1.15-0.03,1.72,0c0.96,0.06,1.24,0.57,1.26,1.36c0.01,0.39-0.04,0.79-0.06,1.18
				c-0.03,0.53-0.45,0.96-0.98,0.98C92.79,89.42,92.43,89.41,92.08,89.41z M93.02,87.04c-0.56,0-1.08-0.01-1.61,0.01
				c-0.1,0-0.26,0.14-0.27,0.23c-0.04,0.26-0.03,0.53,0,0.79c0.01,0.09,0.15,0.24,0.23,0.25c0.55,0.02,1.1,0.01,1.64,0.01
				C93.02,87.87,93.02,87.46,93.02,87.04z"/>
			<path d="M92.03,84.37c-0.31,0-0.62,0.01-0.93,0c-0.57-0.02-1.03-0.45-1.06-1.02c-0.02-0.47-0.02-0.94-0.01-1.41
				c0.02-0.62,0.47-1.07,1.09-1.09c0.65-0.02,1.3-0.02,1.94,0c0.59,0.02,1.03,0.49,1.04,1.07c0.01,0.47,0.05,0.93,0.01,1.4
				c-0.05,0.66-0.5,1.04-1.16,1.06C92.65,84.38,92.34,84.37,92.03,84.37C92.03,84.37,92.03,84.37,92.03,84.37z M91.13,83.24
				c0.65,0,1.25,0,1.89,0c0-0.41,0-0.81,0-1.22c-0.64,0-1.26,0-1.89,0C91.13,82.43,91.13,82.79,91.13,83.24z"/>
			<path d="M66.42,85.96c0.32,0,0.65,0,0.97,0c0.64-0.01,1.13,0.48,1.16,1.22c0.02,0.38-0.02,0.76-0.05,1.14
				c-0.03,0.64-0.27,1.03-0.91,1.09c-0.82,0.08-1.66,0.05-2.48-0.03c-0.42-0.04-0.67-0.43-0.7-0.85c-0.04-0.57-0.03-1.15,0-1.72
				c0.02-0.4,0.52-0.83,0.94-0.84C65.71,85.95,66.06,85.96,66.42,85.96C66.42,85.96,66.42,85.96,66.42,85.96z M67.39,88.32
				c0-0.36,0.02-0.69-0.01-1.02c-0.01-0.09-0.14-0.25-0.22-0.25c-0.54-0.02-1.08-0.01-1.64-0.01c0,0.47,0,0.87,0,1.29
				C66.15,88.32,66.75,88.32,67.39,88.32z"/>
			<path d="M92.07,79.51c-0.26,0-0.53,0-0.79,0c-0.84,0-1.29-0.47-1.26-1.31c0.01-0.35,0.06-0.71,0.02-1.06
				c-0.07-0.66,0.59-1.14,1.08-1.15c0.63-0.01,1.27-0.02,1.9,0c0.77,0.03,1.25,0.68,1.14,1.44c-0.05,0.33-0.01,0.67-0.03,1.01
				C94.1,79.1,93.68,79.5,93,79.5C92.69,79.51,92.38,79.5,92.07,79.51z M93.04,78.44c0-0.38,0.01-0.72-0.01-1.05
				c0-0.08-0.07-0.24-0.12-0.24c-0.5-0.02-0.99-0.03-1.49-0.03c-0.01,0-0.01,0.03-0.02,0.03c-0.06,0.03-0.12,0.06-0.28,0.15
				c0,0.2-0.02,0.54,0.01,0.86c0.01,0.1,0.19,0.26,0.29,0.26C91.94,78.45,92.46,78.44,93.04,78.44z"/>
			<path d="M92.02,94.18c-0.26,0-0.53,0-0.79,0c-0.76,0-1.21-0.47-1.19-1.24c0.01-0.38,0.01-0.76,0.01-1.15
				c0.01-0.66,0.45-1.12,1.11-1.14c0.63-0.02,1.26,0,1.9-0.01c0.49,0,1.13,0.54,1.07,1.1c-0.04,0.44,0.01,0.88,0.01,1.32
				c0,0.63-0.47,1.1-1.1,1.11C92.69,94.19,92.36,94.18,92.02,94.18z M93.03,91.78c-0.59,0-1.15-0.01-1.7,0.01
				c-0.07,0-0.2,0.11-0.21,0.17c-0.02,0.32-0.02,0.65,0.02,0.97c0.01,0.07,0.16,0.18,0.24,0.18c0.54,0.02,1.08,0.01,1.64,0.01
				C93.03,92.65,93.03,92.23,93.03,91.78z"/>
			<path d="M35.03,49.26c-1.37,0-2.68,0-3.99,0c-1.22,0-2.45,0.01-3.67,0.01c-0.94,0-1.48-0.37-1.66-1.11
				c-0.06-0.24-0.07-0.5-0.07-0.74c-0.01-1.1,0-2.21,0-3.31c0-0.61-0.15-0.74-0.75-0.74c-2.17,0-4.33,0-6.5,0
				c-0.61,0-0.75,0.13-0.75,0.75c0,13.05,0,26.11,0,39.16c0,0.57,0.16,0.74,0.72,0.74c1.41,0,2.83,0,4.24,0c0.77,0,1.53,0.01,2.3,0
				c0.55-0.01,0.69-0.15,0.69-0.66c0.01-1.19,0-2.39,0.01-3.58c0.01-1.12,0.63-1.74,1.73-1.74c2.31-0.02,4.62-0.04,6.93-0.05
				c2.02-0.01,4.04,0,6.06,0.01c1.13,0,1.72,0.63,1.72,1.77c0,1.18,0,2.36,0.01,3.54c0,0.51,0.15,0.64,0.67,0.64
				c2.15,0,4.3,0.01,6.45,0.01c0.56,0,0.7-0.15,0.7-0.71c0-1.37,0-2.74,0.01-4.11c0-0.15,0.02-0.3,0.03-0.48
				c0.12,0.04,0.18,0.05,0.22,0.08c2.72,1.77,5.45,3.53,8.17,5.3c0.65,0.43,1.36,0.37,1.82-0.18c0.52-0.62,0.39-1.31-0.33-2.01
				c-1.38-1.34-2.75-2.69-4.12-4.04c-1.77-1.76-3.53-3.53-5.32-5.27c-0.36-0.34-0.49-0.67-0.49-1.14c0.01-9.03,0.01-18.06,0.01-27.1
				c0-0.74-0.1-0.83-0.85-0.83c-2.09,0-4.18,0-6.28,0c-0.55,0-0.7,0.15-0.7,0.71c0,1.16,0,2.33-0.01,3.49
				c-0.01,1.04-0.64,1.67-1.68,1.68c-1.03,0-2.06,0.01-3.09,0 M45.33,45.32c0-0.94,0.02-0.96,1.02-0.78v1.64
				c-0.03,0.02-0.06,0.05-0.08,0.06c-1.08,0.02-0.92,0.1-0.94-0.88C45.33,45.35,45.33,45.34,45.33,45.32z M20.84,44.58
				c0.09-0.05,0.11-0.07,0.14-0.07c0.87-0.12,0.9-0.09,0.89,0.77c0,0.29,0,0.59,0,0.89c-0.07,0.04-0.09,0.06-0.12,0.06
				c-0.86,0.13-0.91,0.09-0.91-0.77C20.84,45.16,20.84,44.85,20.84,44.58z M21.87,82.75c-0.31,0-0.57,0.03-0.83-0.01
				c-0.09-0.01-0.2-0.19-0.21-0.3c-0.02-0.53,0-1.06,0-1.58c0-0.54,0.43-0.3,0.68-0.35c0.27-0.05,0.36,0.09,0.36,0.35
				C21.86,81.47,21.87,82.08,21.87,82.75z M46.37,82.74c-1.04,0.06-1.04,0.06-1.02-0.86c0-0.32,0-0.65-0.02-0.97
				c-0.02-0.36,0.19-0.43,0.48-0.4c0.25,0.02,0.59-0.12,0.57,0.37C46.35,81.48,46.37,82.1,46.37,82.74z M36.75,50.33
				c1.12,0,2.24-0.04,3.36,0.01c1.73,0.07,2.97-1.01,2.96-2.92c-0.01-0.97,0-1.94,0-2.96h1.18c0,0.47,0.02,0.94,0,1.41
				c-0.05,1,0.43,1.48,1.51,1.55c1.16,0.08,1.87-0.64,1.77-1.74c-0.04-0.41-0.01-0.82-0.01-1.25h1.3v26.24
				c-1.75-0.97-3.52-1.97-5.31-2.93c-0.36-0.19-0.46-0.4-0.45-0.78c0.02-3.01,0.02-6.01,0.01-9.02c0-1.4-0.7-2.46-1.89-2.72
				c-0.63-0.14-1.31-0.1-1.97-0.12c-0.53-0.01-1.06-0.01-1.65-0.01v0h-0.08c-0.11,0-0.22,0-0.33,0c0,0,0,0,0,0l-1.44,0c0,0,0,0,0,0
				h-0.39c0,0,0,0,0,0l-3.41,0v0c-1.53,0-3.06,0-4.58,0c-1.68,0-2.79,1.11-2.79,2.79c0,4.02,0.01,8.05-0.01,12.07
				c-0.01,1.39,1.2,2.67,2.66,2.66c4.41-0.05,8.81-0.01,13.22-0.03c0.43,0,0.87-0.18,1.3-0.31c0.2-0.06,0.29-0.1,0.46,0.1
				c0.76,0.93,1.51,1.88,2.37,2.71c0.6,0.57,1.4,0.94,2.1,1.4c0.67,0.44,1.34,0.88,2,1.34c0.1,0.07,0.2,0.22,0.2,0.34
				c0.01,1.55,0.01,3.09,0.01,4.67h-1.33c0-0.44,0-0.87,0-1.31c0-0.31,0.01-0.62-0.03-0.93c-0.11-0.81-0.36-1.12-1.16-1.24
				c-0.84-0.12-1.59-0.06-1.96,0.7c-0.08,0.16-0.11,0.36-0.11,0.55c-0.01,0.73-0.01,1.47-0.01,2.23h-1.19c0-0.42,0.01-0.85,0-1.28
				c-0.01-0.83,0-1.67-0.07-2.5c-0.07-0.89-1.13-2.05-1.95-2.18c-0.08-0.01-0.16,0.06-0.24,0.06c-0.47-0.02-0.93-0.08-1.39-0.09
				c-0.38,0-0.75,0.08-1.13,0.08c-3.74,0.01-7.48,0.01-11.23,0.01c-1.33,0-2.48,1.13-2.51,2.52c-0.03,1.12-0.01,2.23-0.01,3.39
				h-1.51c0-0.62,0-1.22,0-1.82c0-1.3-0.76-1.93-2.04-1.69c-0.93,0.17-1.27,0.68-1.23,1.5c0.03,0.66,0.01,1.32,0.01,2h-1.06v-0.51
				c0-12.35,0-24.7,0-37.04c0-0.96,0-0.96,1.06-0.83v1.52c0,0.92,0.51,1.43,1.44,1.43c0.53,0,1.09,0.04,1.44-0.45
				c0.19-0.27,0.33-0.62,0.37-0.95c0.06-0.51,0.02-1.02,0.02-1.6c0.45,0,0.86-0.02,1.26,0.02c0.09,0.01,0.24,0.23,0.24,0.35
				c0.02,0.97-0.02,1.95,0.02,2.92c0.03,0.86,0.28,1.67,1.07,2.14c0.42,0.25,0.94,0.46,1.42,0.47c2.3,0.05,4.6,0.02,6.9,0.02h0.55
				 M25.66,57.9c-0.01-1,0.8-1.68,1.68-1.66c2.17,0.05,4.35,0.03,6.52,0.01v0l0.12,0c0.07,0,0.14,0,0.2,0c0.01,0,0.01,0,0.02,0
				l3.32,0.02c1.04,0,2.12-0.02,3.19,0.01c0.61,0.02,1.21,0.65,1.21,1.3c0.02,2.52,0,5.04-0.01,7.55c0,0.03-0.02,0.05,0,0.01
				c-0.62-0.29-1.22-0.64-1.87-0.84c-0.66-0.2-1.38-0.24-2.07-0.37c-0.77-0.14-1.42-0.5-2-1.04c-0.21-0.2-0.59-0.39-0.83-0.34
				c-0.3,0.07-0.34,0.47-0.3,0.79c0.31,2.02,0.84,3.94,2.23,5.55c0.77,0.89,1.64,1.32,2.81,1.24c0.43-0.03,0.58,0.38,0.82,0.63
				c0.11,0.11,0.18,0.25,0.27,0.38c-0.1,0.33-0.37,0.38-0.7,0.38c-4.29-0.01-8.57-0.02-12.86,0.01c-1.07,0.01-1.79-0.83-1.78-1.76
				C25.71,65.83,25.7,61.86,25.66,57.9z M39.71,69.07c-0.78,0.07-1.35-0.39-1.8-0.92c-0.88-1.02-1.4-2.23-1.69-3.55
				c0.66,0.18,1.3,0.38,1.94,0.53c0.59,0.14,1.21,0.18,1.8,0.33c0.97,0.23,1.52,0.99,1.46,1.95C41.37,68.23,40.62,68.98,39.71,69.07
				z M42.38,68.37c1.55,0.85,3.17,1.74,4.83,2.65c-0.78,0.98-1.53,1.9-2.29,2.86c-1.24-1.42-2.44-2.81-3.62-4.17
				C41.66,69.27,42,68.85,42.38,68.37z M59.34,83.11c-0.1,0.08-0.33,0.01-0.5,0c-0.03,0-0.05-0.03-0.07-0.05
				c-0.97-0.62-1.93-1.25-2.9-1.87c-2.24-1.45-4.48-2.89-6.72-4.34c-1.13-0.73-2.24-1.48-3.41-2.25c0.79-0.97,1.57-1.93,2.39-2.93
				c0.97,0.97,1.89,1.91,2.83,2.84c2.75,2.72,5.5,5.43,8.24,8.15C59.33,82.78,59.59,82.92,59.34,83.11z"/>
			<path class="st2" d="M28.62,59.51c1.35,0.39,2.39,1.42,2.77,2.77c0.34,1.18,2.01,1.18,2.35,0c0.39-1.35,1.42-2.39,2.77-2.77
				c1.18-0.34,1.18-2.01,0-2.35c-1.35-0.39-2.39-1.42-2.77-2.77c-0.34-1.18-2.01-1.18-2.35,0c-0.39,1.35-1.42,2.39-2.77,2.77
				C27.44,57.49,27.44,59.17,28.62,59.51z M32.57,56.06c0.53,0.96,1.31,1.75,2.27,2.27c-0.96,0.53-1.75,1.31-2.27,2.27
				c-0.53-0.96-1.31-1.75-2.27-2.27C31.26,57.8,32.04,57.02,32.57,56.06L32.57,56.06z"/>
			<path class="st2" d="M79.29,77.16c3,0,5.44,2.44,5.44,5.44c0,3-2.44,5.44-5.44,5.44c-3.01,0-5.45-2.44-5.45-5.45
				C73.84,79.59,76.28,77.16,79.29,77.16z M77.63,82.61c0,0.74,0,1.49,0,2.23c0,0.11-0.02,0.23,0.11,0.3c0.12,0.07,0.22,0,0.31-0.06
				c1.16-0.74,2.32-1.48,3.49-2.22c0.28-0.18,0.29-0.32,0.01-0.5c-1.17-0.74-2.33-1.49-3.5-2.22c-0.08-0.05-0.2-0.08-0.29-0.06
				c-0.13,0.03-0.12,0.16-0.12,0.27C77.63,81.1,77.63,81.85,77.63,82.61z"/>
		</g>
	</g>
</g>
<g id="Layer_2">
</g>
<g id="Layer_3">
</g>
</svg>
