<?xml version="1.0" encoding="utf-8"?>
<!-- Generator: Adobe Illustrator 24.1.1, SVG Export Plug-In . SVG Version: 6.00 Build 0)  -->
<svg version="1.1" xmlns="http://www.w3.org/2000/svg" xmlns:xlink="http://www.w3.org/1999/xlink" x="0px" y="0px"
	 viewBox="0 0 122 122" style="enable-background:new 0 0 122 122;" xml:space="preserve">
<style type="text/css">
	.st0{opacity:0.2;fill:#002C53;}
	.st1{fill:#FFC72C;}
	.st2{fill:#CD003A;}
	.st3{fill:#FFFFFF;}
	.st4{fill:#FF7260;}
	.st5{fill:#F2F2F2;}
	.st6{fill:#AAC4DA;}
	.st7{fill:#D9EEF7;}
	.st8{fill:#4C5B66;}
	.st9{fill:#FB8406;}
	.st10{fill:#D48D77;}
	.st11{fill:#EEA47D;}
	.st12{fill:#334353;}
	.st13{fill:#3E4E60;}
	.st14{fill:#3F5D77;}
	.st15{fill:#3F6C8E;}
	.st16{fill:#CDE6F6;}
	.st17{fill:#EA792E;}
	.st18{fill:#DD5E26;}
	.st19{fill:#F39E22;}
	.st20{fill:#C68132;}
	.st21{fill:#F9C744;}
	.st22{fill:#EBD9EA;}
	.st23{fill:#C1B7D3;}
	.st24{fill:#EE6781;}
	.st25{fill:#F0A6B3;}
	.st26{fill:#D65171;}
	.st27{fill:#F5B890;}
	.st28{fill:#FBD9A3;}
	.st29{fill:#2E3140;}
	.st30{fill:#E9465E;}
	.st31{fill:#002C53;}
	.st32{fill:#263238;}
	.st33{fill:#FFD740;}
	.st34{fill:#40C4FF;}
	.st35{fill:#FF5252;}
	.st36{fill:#F9BA48;}
	.st37{fill:#333333;}
	.st38{stroke:#000000;stroke-width:2.7735;stroke-miterlimit:10;}
	.st39{fill:#DBD9D7;}
	.st40{fill:none;stroke:#002C53;stroke-width:3;stroke-linecap:round;stroke-miterlimit:10;}
	.st41{fill:none;stroke:#000000;stroke-width:5;stroke-miterlimit:10;}
	.st42{fill:none;stroke:#CD003A;stroke-width:5;stroke-miterlimit:10;}
	.st43{fill:none;stroke:#CD003A;stroke-width:5;stroke-linecap:round;stroke-linejoin:round;stroke-miterlimit:10;}
	.st44{fill:none;stroke:#000000;stroke-width:2;stroke-linecap:round;stroke-miterlimit:10;}
	.st45{fill:none;stroke:#000000;stroke-width:2;stroke-linecap:round;stroke-miterlimit:10;stroke-dasharray:5.5323,5.5323;}
	.st46{fill:none;stroke:#CD003A;stroke-width:5.7778;stroke-linecap:round;stroke-linejoin:round;stroke-miterlimit:10;}
	.st47{fill:none;stroke:#000000;stroke-width:2.3111;stroke-linecap:round;stroke-miterlimit:10;}
	.st48{fill:none;stroke:#000000;stroke-width:2.3111;stroke-linecap:round;stroke-miterlimit:10;stroke-dasharray:6.393,6.393;}
	.st49{clip-path:url(#SVGID_2_);}
	.st50{fill:url(#SVGID_3_);}
	.st51{fill:#FCDA90;}
	.st52{fill:#CD003A;stroke:#CD003A;stroke-width:0.75;stroke-miterlimit:10;}
	.st53{fill:none;stroke:#CD003A;stroke-width:4;stroke-miterlimit:10;}
	.st54{stroke:#000000;stroke-width:2;stroke-miterlimit:10;}
	.st55{opacity:0.44;}
	.st56{opacity:0;fill:#FFC72C;}
	.st57{fill:none;stroke:#000000;stroke-width:2.6567;stroke-linecap:round;stroke-miterlimit:10;}
	.st58{fill:none;stroke:#000000;stroke-width:2.6567;stroke-linecap:round;stroke-miterlimit:10;stroke-dasharray:8.3734,8.3734;}
	.st59{opacity:0.2;fill:#CD003A;}
	.st60{fill:#002C53;stroke:#002C53;stroke-width:0.9824;stroke-miterlimit:10;}
	.st61{fill:#CD003A;stroke:#CD003A;stroke-width:0.9824;stroke-miterlimit:10;}
	.st62{stroke:#000000;stroke-width:0.9824;stroke-miterlimit:10;}
	.st63{fill:#FFE3A4;}
	.st64{opacity:0;}
	.st65{fill:none;stroke:#002C53;stroke-width:2.1;stroke-linecap:round;stroke-miterlimit:10;}
	.st66{fill:none;stroke:#000000;stroke-width:1.3;stroke-miterlimit:10;}
</style>
<g id="Layer_1">
	<g>
		<circle class="st63" cx="61" cy="61" r="60"/>
	</g>
	<polyline class="st1" points="48.7,78.83 48.7,84.92 45.47,90.03 75.76,90.03 76.36,89.57 73.28,84.92 73.28,78.98 49.19,78.89 	
		"/>
	<path class="st56" d="M26.88,72.71h68.04c0,0,2.03,4.81-2.98,6.04c-0.36,0.51-63.15,0-63.15,0S26.07,77.84,26.88,72.71z"/>
	<path d="M91.79,30.7h-8.8c-0.57,0-1.04,0.47-1.04,1.04c0,0.57,0.47,1.04,1.04,1.04h8.8c1.39,0,2.52,1.13,2.52,2.52v36.73H27.69
		V35.3c0-1.39,1.13-2.52,2.52-2.52h54.24c0.57,0,0.99-0.47,0.99-1.04c0-0.57-0.97-1.04-1.54-1.04H30.21c-2.54,0-4.6,2.06-4.6,4.6
		v40.08c0,2.54,2.06,4.6,4.6,4.6h17.47v4.68l-2.83,3.94c-0.37,0.52-0.42,1.2-0.13,1.77c0.29,0.57,0.87,0.92,1.51,0.92h29.4
		c0.64,0,1.22-0.35,1.51-0.92c0.29-0.57,0.24-1.25-0.13-1.77l-2.7-3.77c-0.02-0.13-0.06-0.25-0.13-0.36v-4.5h17.6
		c2.54,0,4.6-2.06,4.6-4.6V35.3C96.39,32.77,94.33,30.7,91.79,30.7L91.79,30.7z M91.79,77.9h-23.2c-0.57,0-1.04,0.47-1.04,1.04
		c0,0.57,0.47,1.04,1.04,1.04h3.51v3.98h-1.83c-0.57,0-1.04,0.47-1.04,1.04c0,0.57,0.47,1.04,1.04,1.04h2.34l2.28,3.18H46.97
		l2.28-3.18h2.48c0.57,0,1.04-0.47,1.04-1.04c0-0.57-0.47-1.04-1.04-1.04h-1.97v-3.98h14.4c0.57,0,1.04-0.47,1.04-1.04
		c0-0.57-0.47-1.04-1.04-1.04H30.21c-1.39,0-2.52-1.13-2.52-2.52v-1.27h66.62v1.27C94.31,76.77,93.18,77.9,91.79,77.9z"/>
	<g>
		<path d="M85.92,70.46c-0.22,0-0.44-0.01-0.66-0.01c-15.6,0-31.19,0-46.79,0c-0.2,0-0.4,0-0.62,0c0-0.49,0-0.94,0-1.44
			c0.24,0,0.47,0,0.7,0c14.8,0,29.59,0,44.39,0c0.08,0,0.16,0,0.23,0c0.85-0.01,0.76,0.06,0.76-0.55c0-7.49,0-14.97,0-22.46
			c0-0.51,0-0.51-0.72-0.51c-4.24,0-8.49,0-12.73,0c-0.61,0-0.61,0-0.61,0.45c0,7.03,0,14.05,0,21.08c0,0.49,0,0.49-0.69,0.5
			c-0.38,0-0.75,0-1.13-0.01c-0.04,0-0.09-0.02-0.17-0.04c0-8.28,0-16.56,0-24.87c-4.69,0-9.35,0-14.04,0c0,8.3,0,16.58,0,24.89
			c-0.68,0-1.33,0-2.02,0c0-7.33,0-14.63,0-22c-0.24,0-0.44,0-0.64,0c-3.62,0-7.23,0.01-10.85-0.01c-0.46,0-0.57,0.1-0.57,0.43
			c0.01,7.05,0.01,14.1,0.01,21.15c0,0.13,0,0.27,0,0.42c-0.67,0-1.29,0-1.94,0c0-8.78,0-17.54,0-26.34c0.62,0,1.25,0,1.93,0
			c0,0.96,0,1.91,0,2.88c4.03,0,8.01,0,12.04,0c0.01-0.12,0.02-0.24,0.02-0.36c0-0.7,0-1.4,0-2.1c0-0.46,0-0.45,0.6-0.45
			c5.4,0,10.8,0,16.21,0c0.37,0,0.75,0,1.18,0c0,0.98,0,1.94,0,2.91c4.72,0,9.38,0,14.1,0c0-0.15,0-0.28,0-0.41
			c0-2.18-0.01-4.36,0.01-6.53c0-0.32-0.13-0.4-0.56-0.4c-12.62,0.01-25.24,0.01-37.86,0.01c-1.75,0-3.51,0.01-5.26-0.01
			c-0.36,0-0.52,0.07-0.49,0.35c0.03,0.26,0.04,0.53,0,0.79c-0.04,0.31,0.13,0.38,0.53,0.38c6.51-0.01,13.03-0.01,19.54-0.01
			c4.49,0,8.99,0,13.48,0c0.16,0,0.31,0,0.5,0c0,0.48,0,0.93,0,1.41c-11.98,0-23.98,0-36.03,0c0-1.46,0-2.91,0-4.36
			c16.03,0,32.05,0,48.11,0C85.92,46.99,85.92,58.72,85.92,70.46z"/>
		<path class="st2" d="M59.57,64.83c0.25,0.29,0.52,0.61,0.82,0.95c0.83-0.83,1.62-1.63,2.41-2.42c0.34,0.36,0.66,0.68,0.95,0.98
			c-1.12,1.12-2.25,2.25-3.38,3.39c-0.6-0.6-1.24-1.24-1.88-1.89C58.8,65.54,59.14,65.23,59.57,64.83z"/>
		<path d="M78.64,46.5c0.35,0.34,0.67,0.66,0.95,0.93c-1.14,1.14-2.28,2.28-3.4,3.4c-0.59-0.59-1.23-1.24-1.87-1.87
			c0.32-0.31,0.65-0.64,1.04-1.03c0.26,0.31,0.54,0.64,0.85,1C77.05,48.09,77.84,47.3,78.64,46.5z"/>
		<path d="M74.32,59.93c0.3-0.29,0.62-0.61,1-0.98c0.26,0.32,0.54,0.65,0.82,0.98c0.86-0.86,1.65-1.65,2.43-2.43
			c0.36,0.36,0.68,0.69,0.98,1c-1.1,1.1-2.23,2.23-3.34,3.34C75.62,61.24,74.98,60.6,74.32,59.93z"/>
		<path d="M76.22,56.74c-0.64-0.64-1.28-1.27-1.93-1.91c0.33-0.31,0.67-0.63,1.08-1.01c0.25,0.29,0.53,0.62,0.82,0.97
			c0.83-0.84,1.62-1.63,2.4-2.41c0.36,0.36,0.69,0.69,1,1C78.47,54.49,77.34,55.62,76.22,56.74z"/>
		<path d="M79.55,64.41c-1.09,1.09-2.22,2.22-3.34,3.34c-0.61-0.62-1.24-1.26-1.87-1.89c0.31-0.29,0.65-0.61,1.04-0.98
			c0.22,0.25,0.51,0.57,0.79,0.88c0.81-0.83,1.59-1.63,2.38-2.43C78.93,63.74,79.25,64.08,79.55,64.41z"/>
		<path d="M47.55,46.5c0.35,0.36,0.66,0.69,0.94,0.98c-1.1,1.1-2.24,2.24-3.37,3.37c-0.58-0.59-1.22-1.23-1.85-1.86
			c0.32-0.31,0.66-0.63,1.04-0.99c0.23,0.27,0.51,0.6,0.81,0.95C45.97,48.08,46.76,47.29,47.55,46.5z"/>
		<path class="st2" d="M63.74,47.54c-1.1,1.1-2.23,2.23-3.34,3.34c-0.63-0.63-1.27-1.28-1.91-1.92c0.3-0.3,0.63-0.63,0.97-0.98
			c0.29,0.31,0.58,0.61,0.87,0.92c0.82-0.84,1.61-1.63,2.36-2.4C63.09,46.88,63.42,47.21,63.74,47.54z"/>
		<path class="st2" d="M60.32,57.44c-0.57-0.57-1.21-1.21-1.85-1.86c0.33-0.31,0.67-0.62,1.04-0.97c0.24,0.27,0.52,0.59,0.81,0.92
			c0.86-0.86,1.64-1.65,2.43-2.44c0.36,0.37,0.67,0.7,0.94,0.98C62.6,55.16,61.47,56.29,60.32,57.44z"/>
		<path d="M45.21,54.35c0.49,0,0.94,0,1.41,0c0,0.48,0,0.93,0,1.41c-0.47,0-0.93,0-1.41,0C45.21,55.28,45.21,54.83,45.21,54.35z"/>
		<path d="M46.62,59.49c0,0.48,0,0.93,0,1.4c-0.47,0-0.92,0-1.4,0c0-0.46,0-0.92,0-1.4C45.68,59.49,46.13,59.49,46.62,59.49z"/>
		<path class="st2" d="M60.43,60.88c0-0.47,0-0.92,0-1.39c0.47,0,0.93,0,1.4,0c0,0.46,0,0.91,0,1.39
			C61.38,60.88,60.93,60.88,60.43,60.88z"/>
		<path d="M45.22,64.63c0.47,0,0.92,0,1.4,0c0,0.46,0,0.92,0,1.4c-0.45,0-0.91,0-1.4,0C45.22,65.57,45.22,65.12,45.22,64.63z"/>
		<path d="M77.71,38.91c0-0.41,0.31-0.71,0.72-0.71c0.4,0,0.73,0.33,0.72,0.72c0,0.39-0.34,0.72-0.73,0.72
			C78.03,39.64,77.71,39.31,77.71,38.91z"/>
		<path d="M75.51,38.91c0-0.41,0.31-0.71,0.72-0.71c0.4,0,0.72,0.32,0.72,0.72c0,0.39-0.34,0.72-0.73,0.72
			C75.82,39.64,75.51,39.31,75.51,38.91z"/>
		<path d="M79.91,38.9c0-0.41,0.31-0.71,0.72-0.7c0.4,0.01,0.72,0.33,0.71,0.72c-0.01,0.39-0.34,0.72-0.73,0.71
			C80.22,39.63,79.91,39.31,79.91,38.9z"/>
	</g>
	<g>
		<g class="st64">
			<path d="M62.09,64.67l0.57,0.57c0.16,0.16,0.16,0.41,0,0.57c-0.16,0.16-0.41,0.16-0.57,0l-0.57-0.57c-0.16-0.16-0.16-0.41,0-0.57
				C61.68,64.52,61.93,64.52,62.09,64.67z"/>
			<path d="M66.57,63.32c0.21,0.06,0.34,0.28,0.28,0.49l-0.21,0.78c-0.06,0.21-0.28,0.34-0.49,0.28c-0.21-0.06-0.34-0.28-0.28-0.49
				l0.21-0.78C66.14,63.39,66.36,63.26,66.57,63.32z"/>
			<path d="M64.28,71.86c0.21,0.06,0.34,0.28,0.28,0.49l-0.21,0.78c-0.06,0.21-0.28,0.34-0.49,0.28c-0.21-0.06-0.34-0.28-0.28-0.49
				l0.21-0.78C63.85,71.93,64.07,71.81,64.28,71.86z"/>
			<path d="M69.77,66.73c0.21-0.06,0.43,0.07,0.49,0.28c0.06,0.21-0.07,0.43-0.28,0.49l-0.78,0.21c-0.21,0.06-0.43-0.07-0.49-0.28
				C68.66,67.22,68.78,67,69,66.94L69.77,66.73z"/>
			<path d="M60.46,69.23l0.78-0.21c0.21-0.06,0.43,0.07,0.49,0.28c0.06,0.21-0.07,0.43-0.28,0.49l-0.78,0.21
				c-0.22,0.06-0.44-0.07-0.49-0.28C60.11,69.51,60.24,69.29,60.46,69.23z"/>
		</g>
		<path d="M69.08,74.34c-0.43,0.82-0.83,1.59-1.23,2.36c-0.08,0.15-0.15,0.3-0.24,0.44c-0.18,0.27-0.47,0.24-0.61-0.05
			c-0.03-0.06-0.05-0.13-0.07-0.2c-1.12-3.21-2.24-6.41-3.36-9.62c-0.03-0.08-0.06-0.16-0.08-0.24c-0.04-0.25,0.16-0.45,0.41-0.39
			c0.09,0.02,0.18,0.07,0.26,0.11c3.07,1.35,6.13,2.69,9.2,4.04c0.2,0.09,0.47,0.13,0.46,0.43c0,0.29-0.26,0.35-0.46,0.44
			c-0.88,0.4-1.76,0.79-2.69,1.2c0.1,0.12,0.18,0.22,0.26,0.31c0.94,0.98,1.88,1.96,2.82,2.94c0.32,0.34,0.32,0.44-0.01,0.76
			c-0.27,0.27-0.55,0.53-0.82,0.79c-0.34,0.33-0.46,0.32-0.79-0.04c-0.91-0.99-1.82-1.98-2.73-2.97
			C69.3,74.57,69.21,74.48,69.08,74.34z"/>
		<g>
			<path class="st39" d="M73.17,76.48c-0.12-0.13-0.21-0.24-0.31-0.34c-0.97-1-1.93-2-2.9-3.01c-0.34-0.35-0.31-0.54,0.14-0.75
				c0.68-0.32,1.37-0.62,2.05-0.93c0.14-0.06,0.28-0.14,0.48-0.25c-2.77-1.22-5.47-2.41-8.23-3.62c1.01,2.87,1.99,5.68,2.99,8.54
				c0.18-0.35,0.35-0.67,0.51-0.98c0.26-0.5,0.51-1,0.78-1.49c0.17-0.31,0.38-0.33,0.63-0.09c0.06,0.06,0.12,0.12,0.17,0.18
				c0.94,1.01,1.87,2.03,2.81,3.04c0.08,0.09,0.16,0.17,0.26,0.27C72.77,76.87,72.96,76.68,73.17,76.48z"/>
		</g>
	</g>
</g>
<g id="Layer_2">
</g>
<g id="Layer_3">
</g>
</svg>
