<svg width="68" height="60" viewBox="0 0 68 60" fill="none" xmlns="http://www.w3.org/2000/svg">
<path d="M1.99235 52H11.9533V58C11.9533 59.1045 12.8452 60 13.9454 60H66.0078C67.108 60 68 59.1045 68 58V6C68 4.89547 67.108 4 66.0078 4H56.0469V2C56.0469 0.895467 55.1549 0 54.0547 0C52.9545 0 52.0625 0.895467 52.0625 2V4H41.9688V2C41.9688 0.895467 41.0769 0 39.9766 0C38.8764 0 37.9845 0.895467 37.9845 2V4H28.0235V2C28.0235 0.895467 27.1316 0 26.0314 0C24.9311 0 24.0392 0.895467 24.0392 2V4H13.9454C12.8452 4 11.9533 4.89547 11.9533 6V18C11.9533 32.74 5.85121 44.0795 0.716954 48.4636C0.0725488 49.0027 -0.16638 49.8891 0.119033 50.6809C0.404712 51.4727 1.15351 52 1.99235 52ZM64.0156 56H15.9376V52H54.0547C54.5208 52 54.9721 51.836 55.3301 51.5364C57.725 49.5339 61.4346 44.7661 64.0156 38.6597V56ZM15.9376 8H24.0392V10C24.0392 11.1045 24.9311 12 26.0314 12C27.1316 12 28.0235 11.1045 28.0235 10V8H37.9845V10C37.9845 11.1045 38.8764 12 39.9766 12C41.0769 12 41.9688 11.1045 41.9688 10V8H52.0625V10C52.0625 11.1045 52.9545 12 54.0547 12C55.1549 12 56.0469 11.1045 56.0469 10V8H64.0156V16H15.9376V8ZM15.9035 19.9987H63.9803C63.5314 32.686 58.681 42.6684 53.2735 48H6.52377C12.6508 40.1625 15.5748 29.9576 15.9035 19.9987Z" fill="black"/>
</svg>
