<svg width="61" height="60" viewBox="0 0 61 60" fill="none" xmlns="http://www.w3.org/2000/svg">
<path d="M57.3813 37.2409C53.8333 33.751 48.6008 32.9039 44.234 34.6981V14.0055C44.234 13.1493 43.895 12.3444 43.2796 11.7391L32.3005 0.938619C32.0435 0.685995 31.7444 0.479611 31.42 0.324853C31.4193 0.324501 31.4186 0.32415 31.4178 0.323799C31.403 0.316658 31.3881 0.3094 31.3731 0.30261C31.3447 0.288914 31.3157 0.276154 31.2861 0.264799C30.8806 0.0928318 30.4404 0 29.995 0H3.54391C1.64478 0 0.0996094 1.51973 0.0996094 3.38783V56.6122C0.0996094 58.4803 1.64466 60 3.54379 60H40.7896C42.6081 60 44.1185 58.6015 44.2282 56.8162C44.2297 56.7927 44.2304 56.7691 44.2304 56.7456V56.5029C45.7142 57.1132 47.2977 57.4191 48.8815 57.4191C51.9597 57.4191 55.0379 56.2666 57.3813 53.9617C59.6517 51.7285 60.9021 48.7594 60.9021 45.6012C60.9021 42.4431 59.6517 39.474 57.3813 37.2409ZM40.1706 11.9919H32.3058C32.1606 11.9919 32.0424 11.8757 32.0424 11.7329V3.99621L40.1706 11.9919ZM41.8501 56.7038C41.8022 57.2416 41.3418 57.6587 40.7897 57.6587H3.54391C2.95716 57.6587 2.48003 57.1893 2.48003 56.6122V3.38783C2.48003 2.81071 2.95728 2.34128 3.54391 2.34128H29.6623V11.7329C29.6623 13.1667 30.8482 14.3332 32.3059 14.3332H41.8538V36.0088C41.3382 36.3746 40.8455 36.7848 40.3818 37.2409C38.1115 39.4741 36.8611 42.4432 36.8611 45.6013C36.8611 48.7595 38.1115 51.7286 40.3818 53.9618C40.8444 54.4169 41.336 54.8262 41.8502 55.1914V56.7038H41.8501ZM55.6981 52.3062C51.9394 56.0033 45.8236 56.0033 42.0648 52.3062C40.244 50.5152 39.2412 48.134 39.2412 45.6013C39.2412 43.0687 40.244 40.6874 42.0648 38.8965C43.9442 37.048 46.4128 36.1236 48.8814 36.1236C51.35 36.1236 53.8186 37.048 55.698 38.8965C57.5188 40.6875 58.5216 43.0687 58.5216 45.6013C58.5216 48.134 57.5189 50.5152 55.6981 52.3062Z" fill="black"/>
<path d="M8.48507 18.6577H25.0773C25.7345 18.6577 26.2675 18.1336 26.2675 17.487C26.2675 16.8405 25.7345 16.3164 25.0773 16.3164H8.48507C7.82787 16.3164 7.29492 16.8405 7.29492 17.487C7.29492 18.1336 7.82775 18.6577 8.48507 18.6577Z" fill="black"/>
<path d="M29.2156 37.3789H8.48507C7.82787 37.3789 7.29492 37.903 7.29492 38.5495C7.29492 39.1961 7.82787 39.7202 8.48507 39.7202H29.2157C29.8729 39.7202 30.4059 39.1961 30.4059 38.5495C30.4059 37.903 29.8729 37.3789 29.2156 37.3789Z" fill="black"/>
<path d="M29.2156 44.4004H8.48507C7.82787 44.4004 7.29492 44.9245 7.29492 45.571C7.29492 46.2176 7.82787 46.7417 8.48507 46.7417H29.2157C29.8729 46.7417 30.4059 46.2176 30.4059 45.571C30.4059 44.9245 29.8729 44.4004 29.2156 44.4004Z" fill="black"/>
<path d="M35.9077 30.3574H8.48507C7.82787 30.3574 7.29492 30.8815 7.29492 31.5281C7.29492 32.1746 7.82787 32.6987 8.48507 32.6987H35.9077C36.5649 32.6987 37.0979 32.1746 37.0979 31.5281C37.0979 30.8815 36.5649 30.3574 35.9077 30.3574Z" fill="black"/>
<path d="M8.36398 25.7534H29.8359C30.4931 25.7534 31.026 25.2293 31.026 24.5827C31.026 23.9362 30.4931 23.4121 29.8359 23.4121H8.36398C7.70678 23.4121 7.17383 23.9362 7.17383 24.5827C7.17383 25.2293 7.70666 25.7534 8.36398 25.7534Z" fill="black"/>
<path d="M35.7611 25.7546C36.4187 25.7546 36.9518 25.2302 36.9518 24.5833C36.9518 23.9365 36.4187 23.4121 35.7611 23.4121C35.1034 23.4121 34.5703 23.9365 34.5703 24.5833C34.5703 25.2302 35.1034 25.7546 35.7611 25.7546Z" fill="black"/>
<path d="M53.0883 41.462C52.6235 41.0049 51.8702 41.0049 51.4051 41.462L48.8796 43.946L46.3939 41.5011C45.9292 41.044 45.1756 41.044 44.7107 41.5011C44.2459 41.9582 44.2459 42.6995 44.7107 43.1566L47.1963 45.6015L44.6708 48.0856C44.2061 48.5427 44.2061 49.284 44.6708 49.7411C44.9033 49.9698 45.2078 50.084 45.5124 50.084C45.8169 50.084 46.1215 49.9696 46.3539 49.7411L48.8794 47.2571L51.3651 49.702C51.5975 49.9306 51.9021 50.0449 52.2066 50.0449C52.5112 50.0449 52.8159 49.9305 53.0482 49.702C53.5129 49.2449 53.5129 48.5036 53.0482 48.0465L50.5626 45.6016L53.0881 43.1176C53.5532 42.6604 53.5532 41.9191 53.0883 41.462Z" fill="black"/>
</svg>
