<svg width="14" height="14" viewBox="0 0 14 14" fill="none" xmlns="http://www.w3.org/2000/svg">
<path d="M0.988996 11.3476C1.08927 11.4022 3.47219 12.6868 5.90625 12.6868C6.14728 12.6868 6.39376 12.6756 6.64262 12.654L6.49496 13.2938C6.48662 13.33 6.48761 13.3676 6.49784 13.4033C6.50806 13.439 6.52719 13.4714 6.55343 13.4977C6.57966 13.5239 6.61214 13.543 6.6478 13.5533C6.68347 13.5635 6.72115 13.5645 6.7573 13.5561L8.76813 13.0921C8.76988 13.0917 8.77152 13.0911 8.77324 13.0906C8.77756 13.0895 8.78188 13.0883 8.78618 13.087C8.78891 13.0861 8.79164 13.0851 8.79438 13.0841C8.79829 13.0826 8.80214 13.0811 8.80597 13.0795C8.80901 13.0781 8.81196 13.0767 8.81491 13.0753C8.81787 13.0739 8.82156 13.072 8.82481 13.0702C8.82807 13.0684 8.83127 13.0664 8.83444 13.0645C8.83761 13.0625 8.83991 13.061 8.84264 13.059C8.84607 13.0566 8.84941 13.0542 8.85268 13.0516C8.855 13.0498 8.8573 13.048 8.85957 13.0462C8.86298 13.0433 8.86627 13.0402 8.86946 13.0372C8.87078 13.0359 8.8722 13.0349 8.87348 13.0336L12.5859 9.32136L12.7406 9.16668C12.9856 8.92031 13.123 8.58683 13.1225 8.23935C13.122 7.89187 12.9838 7.55876 12.7381 7.31305C12.4924 7.06734 12.1593 6.92909 11.8118 6.92862C11.4643 6.92814 11.1308 7.06547 10.8845 7.3105L10.7299 7.46508L10.2091 7.98584C9.79396 7.18598 9.21211 6.51874 8.51378 6.0467C8.08028 5.75337 7.60026 5.53553 7.09406 5.4024C7.62017 5.13544 8.041 4.69904 8.28869 4.1636C8.53638 3.62815 8.59647 3.02488 8.45928 2.45109C8.32209 1.87731 7.99561 1.36647 7.53251 1.00097C7.06941 0.635472 6.49669 0.436632 5.90673 0.436523C5.31677 0.436415 4.74397 0.635044 4.28074 1.00037C3.8175 1.3657 3.49083 1.87642 3.35343 2.45016C3.21603 3.02389 3.2759 3.62718 3.52339 4.16272C3.77088 4.69826 4.19156 5.13481 4.71756 5.40196C3.81084 5.63985 2.99067 6.1514 2.33841 6.89964C1.39472 7.98204 0.875 9.49352 0.875 11.1555C0.875 11.1948 0.885587 11.2334 0.905646 11.2672C0.925706 11.301 0.954498 11.3287 0.988996 11.3476ZM7 13.0512L7.29657 11.766L8.28516 12.7546L7 13.0512ZM11.1938 7.61998C11.2749 7.53822 11.3714 7.47328 11.4777 7.42889C11.584 7.38451 11.698 7.36154 11.8132 7.36132C11.9284 7.3611 12.0425 7.38363 12.149 7.42761C12.2554 7.47159 12.3522 7.53616 12.4336 7.61761C12.5151 7.69906 12.5796 7.7958 12.6236 7.90226C12.6676 8.00872 12.6901 8.12282 12.6899 8.23801C12.6897 8.3532 12.6667 8.46721 12.6223 8.57351C12.5779 8.6798 12.513 8.77628 12.4312 8.85742L11.1938 7.61998ZM10.8844 7.92924L12.1218 9.16668L8.71891 12.5696L7.48144 11.3322L10.8844 7.92924ZM3.71875 3.06178C3.71875 2.62913 3.84704 2.2062 4.08741 1.84647C4.32778 1.48673 4.66942 1.20636 5.06913 1.04079C5.46884 0.875223 5.90868 0.831904 6.33301 0.916309C6.75734 1.00071 7.14712 1.20905 7.45305 1.51498C7.75897 1.82091 7.96731 2.21068 8.05172 2.63502C8.13612 3.05935 8.0928 3.49918 7.92724 3.8989C7.76167 4.29861 7.48129 4.64025 7.12156 4.88062C6.76183 5.12098 6.3389 5.24928 5.90625 5.24928C5.32629 5.24862 4.77027 5.01794 4.36018 4.60785C3.95009 4.19775 3.71941 3.64174 3.71875 3.06178ZM2.66818 7.18699C3.51154 6.21957 4.66151 5.68678 5.90625 5.68678C7.60375 5.68678 9.08316 6.6662 9.88318 8.31178L7.01755 11.1774C7.0163 11.1787 7.0152 11.1801 7.01397 11.1813C7.01096 11.1845 7.00798 11.1877 7.00514 11.1911C7.00339 11.1932 7.00172 11.1953 7.00006 11.1975C6.99732 11.2009 6.99459 11.2045 6.99215 11.2081C6.99059 11.2104 6.98912 11.2127 6.98764 11.215C6.98534 11.2187 6.9831 11.2224 6.981 11.2262C6.97955 11.2288 6.97826 11.2315 6.97687 11.2341C6.97506 11.2377 6.97329 11.2414 6.97167 11.245C6.9703 11.2482 6.9691 11.2514 6.9679 11.2546C6.9667 11.2578 6.96533 11.2614 6.96421 11.2649C6.96309 11.2684 6.96199 11.2724 6.96098 11.2762C6.96038 11.2784 6.95961 11.2806 6.95909 11.2828L6.74644 12.2043C6.46734 12.2338 6.1869 12.2488 5.90625 12.2493C3.87767 12.2493 1.81582 11.2763 1.31368 11.0231C1.34023 9.51936 1.81882 8.16139 2.66818 7.18699Z" fill="white"/>
</svg>
