<svg width="34" height="33" viewBox="0 0 34 33" fill="none" xmlns="http://www.w3.org/2000/svg">
<circle cx="16.8896" cy="16.413" r="16.413" fill="#3C3B6E"/>
<path d="M18.4901 16.721H17.9901V17.221V25.1067H15.6151V17.221V16.721H15.1151H12.793V14.452H15.1151H15.6151V13.952V11.5415C15.6151 10.2466 16.0082 9.3056 16.6327 8.68847C17.2587 8.06981 18.1726 7.72168 19.3189 7.72168C20.1386 7.72168 20.8753 7.76446 21.3397 7.8025V9.77378L20.1101 9.77429C20.1101 9.77429 20.11 9.77429 20.1099 9.77429C19.3644 9.77432 18.7805 9.95066 18.4082 10.393C18.0522 10.816 17.9901 11.3711 17.9901 11.8652V13.952V14.452H18.4901H21.1571L20.8641 16.721H18.4901Z" fill="#3C3B6E" stroke="#E4B335"/>
</svg>
