<svg width="15" height="20" viewBox="0 0 15 20" fill="none" xmlns="http://www.w3.org/2000/svg">
<path d="M3.51072 7.33301H11.4894C11.6656 7.33301 11.8086 7.48201 11.8086 7.66634C11.8086 7.85067 11.6656 7.99967 11.4894 7.99967H3.51072C3.33455 7.99967 3.19157 7.85067 3.19157 7.66634C3.19157 7.48201 3.33455 7.33301 3.51072 7.33301Z" fill="black"/>
<path d="M11.4894 5.33366H8.29795C8.12178 5.33366 7.97881 5.18466 7.97881 5.00033C7.97881 4.81599 8.12178 4.66699 8.29795 4.66699H11.4894C11.6656 4.66699 11.8086 4.81599 11.8086 5.00033C11.8086 5.18466 11.6656 5.33366 11.4894 5.33366Z" fill="black"/>
<path d="M3.51072 10H11.4894C11.6656 10 11.8086 10.149 11.8086 10.3333C11.8086 10.5177 11.6656 10.6667 11.4894 10.6667H3.51072C3.33455 10.6667 3.19157 10.5177 3.19157 10.3333C3.19157 10.149 3.33455 10 3.51072 10Z" fill="black"/>
<path d="M3.51072 12.667H11.4894C11.6656 12.667 11.8086 12.816 11.8086 13.0003C11.8086 13.1847 11.6656 13.3337 11.4894 13.3337H3.51072C3.33455 13.3337 3.19157 13.1847 3.19157 13.0003C3.19157 12.816 3.33455 12.667 3.51072 12.667Z" fill="black"/>
<path d="M3.51072 15.333H11.4894C11.6656 15.333 11.8086 15.482 11.8086 15.6663C11.8086 15.8507 11.6656 15.9997 11.4894 15.9997H3.51072C3.33455 15.9997 3.19157 15.8507 3.19157 15.6663C3.19157 15.482 3.33455 15.333 3.51072 15.333Z" fill="black"/>
<path d="M4.65511 0H15V20H0V4.862L4.65511 0ZM4.46809 1.138L1.08958 4.66667H4.46809V1.138ZM14.3617 19.3333V0.666667H5.10638V5.33333H0.638298V19.3333H14.3617Z" fill="black"/>
</svg>
