<?xml version="1.0" encoding="utf-8"?>
<!-- Generator: Adobe Illustrator 24.1.1, SVG Export Plug-In . SVG Version: 6.00 Build 0)  -->
<svg version="1.1" id="Layer_1" xmlns="http://www.w3.org/2000/svg" xmlns:xlink="http://www.w3.org/1999/xlink" x="0px" y="0px"
	 viewBox="0 0 60 60" style="enable-background:new 0 0 60 60;" xml:space="preserve">
<style type="text/css">
	.st0{opacity:0.2;}
	.st1{opacity:0.25;}
	.st2{fill:#FFFFFF;}
	.st3{fill:none;stroke:#000000;stroke-width:0.5;stroke-linecap:round;stroke-linejoin:round;stroke-miterlimit:10;}
	.st4{stroke:#000000;stroke-width:0.25;stroke-miterlimit:10;}
	.st5{fill:#4D4D4D;}
	.st6{fill:none;stroke:#000000;stroke-width:1.25;stroke-linecap:round;stroke-miterlimit:10;}
</style>
<g>
	<g>
		<g>
			<g>
				<path d="M37.37,57.39H7.86c-0.21,0-0.38-0.17-0.38-0.38s0.17-0.38,0.38-0.38h29.51c0.21,0,0.38,0.17,0.38,0.38
					S37.58,57.39,37.37,57.39z"/>
			</g>
			<g>
				<path d="M45.56,59.18H25.14c-0.21,0-0.38-0.17-0.38-0.38c0-0.21,0.17-0.38,0.38-0.38h20.42c0.21,0,0.38,0.17,0.38,0.38
					C45.94,59.01,45.77,59.18,45.56,59.18z"/>
			</g>
			<g>
				<path d="M50.2,59.18h-2.55c-0.21,0-0.38-0.17-0.38-0.38c0-0.21,0.17-0.38,0.38-0.38h2.55c0.21,0,0.38,0.17,0.38,0.38
					C50.58,59.01,50.41,59.18,50.2,59.18z"/>
			</g>
			<g>
				<path d="M54.91,43.66H35.56c-0.21,0-0.38-0.17-0.38-0.38s0.17-0.38,0.38-0.38h19.35c1.42,0,2.57-1.15,2.57-2.57V6.32
					c0-1.42-1.15-2.57-2.57-2.57H11.63c-0.21,0-0.38-0.17-0.38-0.38S11.43,3,11.63,3h43.27c1.83,0,3.32,1.49,3.32,3.32v34.02
					C58.23,42.17,56.74,43.66,54.91,43.66z M29.3,43.66H7.66c-1.83,0-3.32-1.49-3.32-3.32V6.32c0-0.89,0.35-1.74,1-2.37
					c0.15-0.15,0.39-0.14,0.53,0c0.15,0.15,0.14,0.39,0,0.53c-0.5,0.49-0.77,1.14-0.77,1.83v34.02c0,1.42,1.15,2.57,2.57,2.57H29.3
					c0.21,0,0.38,0.17,0.38,0.38S29.5,43.66,29.3,43.66z"/>
			</g>
			<g>
				<path d="M54.83,34.52H19.98c-0.21,0-0.38-0.17-0.38-0.38c0-0.21,0.17-0.38,0.38-0.38h34.48V6.75H42.62
					c-0.21,0-0.38-0.17-0.38-0.38c0-0.21,0.17-0.38,0.38-0.38h12.21c0.21,0,0.38,0.17,0.38,0.38v27.77
					C55.21,34.35,55.04,34.52,54.83,34.52z M13.72,34.52H7.63c-0.21,0-0.38-0.17-0.38-0.38V6.37C7.25,6.16,7.42,6,7.63,6h28.73
					c0.21,0,0.38,0.17,0.38,0.38c0,0.21-0.17,0.38-0.38,0.38H8v27.02h5.72c0.21,0,0.38,0.17,0.38,0.38
					C14.09,34.35,13.92,34.52,13.72,34.52z"/>
			</g>
			<g>
				<path d="M39.86,53.26C39.86,53.26,39.86,53.26,39.86,53.26H22.71c-0.12,0-0.23-0.05-0.3-0.15c-0.07-0.09-0.1-0.21-0.07-0.33
					l2.52-9.59c0.04-0.17,0.19-0.28,0.36-0.28h12.1c0.17,0,0.32,0.11,0.36,0.28l2.52,9.55c0.02,0.04,0.03,0.09,0.03,0.14
					C40.24,53.09,40.07,53.26,39.86,53.26z M23.2,52.5h16.17l-2.33-8.84H25.52L23.2,52.5z"/>
			</g>
			<g>
				<path d="M47.44,55.59H19.46c-0.21,0-0.38-0.17-0.38-0.38s0.17-0.38,0.38-0.38h27.6v-1.58H15.51v0.02c0,0.21-0.17,0.38-0.38,0.38
					s-0.38-0.17-0.38-0.38v-0.4c0-0.21,0.17-0.38,0.38-0.38h32.31c0.21,0,0.38,0.17,0.38,0.38v2.34
					C47.81,55.42,47.65,55.59,47.44,55.59z"/>
			</g>
			<g>
				<path d="M31.28,41.7c-0.82,0-1.49-0.67-1.49-1.49s0.67-1.49,1.49-1.49c0.82,0,1.49,0.67,1.49,1.49S32.1,41.7,31.28,41.7z
					 M31.28,39.48c-0.4,0-0.73,0.33-0.73,0.73s0.33,0.73,0.73,0.73s0.73-0.33,0.73-0.73S31.69,39.48,31.28,39.48z"/>
			</g>
			<g>
				<path d="M2.15,19.43c-0.21,0-0.38-0.17-0.38-0.38V4.47c0-2.01,1.64-3.65,3.66-3.65h8.38c0.21,0,0.38,0.17,0.38,0.38
					s-0.17,0.38-0.38,0.38H5.43c-1.6,0-2.91,1.3-2.91,2.9v14.58C2.52,19.26,2.36,19.43,2.15,19.43z"/>
			</g>
			<g>
				<path d="M13.61,31.57c-0.1,0-0.19-0.04-0.27-0.11l-2.26-2.26c-0.15-0.15-0.15-0.38,0-0.53l2.26-2.26c0.14-0.14,0.39-0.14,0.53,0
					l2.26,2.26c0.07,0.07,0.11,0.17,0.11,0.27c0,0.1-0.04,0.2-0.11,0.27l-2.26,2.26C13.8,31.53,13.7,31.57,13.61,31.57z
					 M11.88,28.93l1.73,1.73l1.73-1.73l-1.73-1.73L11.88,28.93z"/>
			</g>
			<g>
				<path d="M48.85,31.57c-0.1,0-0.19-0.04-0.27-0.11l-2.26-2.26c-0.15-0.15-0.15-0.38,0-0.53l2.26-2.26c0.14-0.14,0.39-0.14,0.53,0
					l2.26,2.26c0.07,0.07,0.11,0.17,0.11,0.27c0,0.1-0.04,0.2-0.11,0.27l-2.26,2.26C49.04,31.53,48.95,31.57,48.85,31.57z
					 M47.12,28.93l1.73,1.73l1.73-1.73l-1.73-1.73L47.12,28.93z"/>
			</g>
			<g>
				<path d="M47.22,29.31H16.49c-0.21,0-0.38-0.17-0.38-0.38c0-0.21,0.17-0.38,0.38-0.38h30.73c0.21,0,0.38,0.17,0.38,0.38
					C47.59,29.14,47.42,29.31,47.22,29.31z"/>
			</g>
			<g>
				<path d="M26.87,25.71c-0.03,0-0.07,0-0.1-0.01l-7.03-1.89c-0.16-0.04-0.28-0.19-0.28-0.36v-8.87c0-0.12,0.05-0.23,0.15-0.3
					c0.09-0.07,0.21-0.09,0.33-0.06l7.03,1.88c0.16,0.04,0.28,0.19,0.28,0.36v8.88c0,0.12-0.05,0.23-0.15,0.3
					C27.03,25.68,26.95,25.71,26.87,25.71z M20.22,23.16l6.28,1.69v-8.1l-6.28-1.68V23.16z"/>
			</g>
			<g>
				<path d="M26.87,25.71c-0.08,0-0.16-0.03-0.23-0.08c-0.09-0.07-0.15-0.18-0.15-0.3v-8.88c0-0.17,0.11-0.32,0.28-0.36l4.11-1.1
					c0.11-0.03,0.23-0.01,0.33,0.06c0.09,0.07,0.15,0.18,0.15,0.3v0.72l2.64,0.71c0.16,0.04,0.28,0.19,0.28,0.36v6.3
					c0,0.17-0.11,0.32-0.28,0.36l-7.03,1.89C26.94,25.71,26.9,25.71,26.87,25.71z M27.25,16.75v8.1l6.28-1.69v-5.72l-2.64-0.71
					c-0.16-0.04-0.28-0.19-0.28-0.36v-0.52L27.25,16.75z"/>
			</g>
			<g>
				<path d="M26.87,16.84c-0.03,0-0.07,0-0.1-0.01l-7.03-1.88c-0.16-0.04-0.28-0.19-0.28-0.36c0-0.17,0.11-0.32,0.28-0.36l7.03-1.89
					c0.06-0.02,0.13-0.02,0.19,0l4.11,1.1c0.16,0.04,0.28,0.19,0.28,0.36v1.57c0,0.17-0.11,0.32-0.28,0.36l-4.11,1.1
					C26.94,16.83,26.9,16.84,26.87,16.84z M21.29,14.57l5.58,1.5l3.73-1v-0.99l-3.73-1L21.29,14.57z"/>
			</g>
			<g>
				<path d="M35.86,18.05c-0.03,0-0.07,0-0.1-0.01l-4.88-1.31c-0.16-0.04-0.28-0.19-0.28-0.36v-6.16c0-0.12,0.05-0.23,0.15-0.3
					c0.09-0.07,0.21-0.09,0.33-0.06l4.88,1.31c0.16,0.04,0.28,0.19,0.28,0.36v6.16c0,0.12-0.05,0.23-0.15,0.3
					C36.02,18.03,35.94,18.05,35.86,18.05z M31.35,16.08l4.13,1.11v-5.38l-4.13-1.11V16.08z"/>
			</g>
			<g>
				<path d="M35.86,18.05c-0.08,0-0.16-0.03-0.23-0.08c-0.09-0.07-0.15-0.18-0.15-0.3v-6.16c0-0.17,0.11-0.32,0.28-0.36l4.87-1.31
					c0.11-0.03,0.23-0.01,0.33,0.06c0.09,0.07,0.15,0.18,0.15,0.3v6.16c0,0.17-0.11,0.32-0.28,0.36l-4.87,1.31
					C35.92,18.05,35.89,18.05,35.86,18.05z M36.23,11.81v5.38l4.12-1.11V10.7L36.23,11.81z"/>
			</g>
			<g>
				<path d="M35.86,11.9c-0.03,0-0.07,0-0.1-0.01l-4.88-1.31c-0.16-0.04-0.28-0.19-0.28-0.36c0-0.17,0.11-0.32,0.28-0.36l4.88-1.31
					c0.06-0.02,0.13-0.02,0.19,0l4.87,1.31c0.16,0.04,0.28,0.19,0.28,0.36c0,0.17-0.11,0.32-0.28,0.36l-4.87,1.31
					C35.92,11.89,35.89,11.9,35.86,11.9z M32.43,10.21l3.43,0.92l3.43-0.92l-3.43-0.92L32.43,10.21z"/>
			</g>
			<g>
				<path d="M37.17,26.47c-0.03,0-0.07,0-0.1-0.01l-5.44-1.46c-0.16-0.04-0.28-0.19-0.28-0.36v-0.6c0-0.17,0.11-0.32,0.28-0.36
					l1.89-0.51v-4.82c0-0.12,0.05-0.23,0.15-0.3c0.09-0.07,0.21-0.09,0.33-0.06l3.27,0.88c0.16,0.04,0.28,0.19,0.28,0.36v6.87
					c0,0.12-0.05,0.23-0.15,0.3C37.33,26.44,37.25,26.47,37.17,26.47z M32.11,24.34l4.69,1.26v-6.09l-2.52-0.68v4.62
					c0,0.17-0.11,0.32-0.28,0.36l-1.89,0.51V24.34z"/>
			</g>
			<g>
				<path d="M37.17,26.47c-0.08,0-0.16-0.03-0.23-0.08c-0.09-0.07-0.15-0.18-0.15-0.3v-6.87c0-0.17,0.11-0.32,0.28-0.36l5.44-1.46
					c0.11-0.03,0.23-0.01,0.33,0.06c0.09,0.07,0.15,0.18,0.15,0.3v6.87c0,0.17-0.11,0.32-0.28,0.36l-5.44,1.46
					C37.24,26.46,37.2,26.47,37.17,26.47z M37.55,19.51v6.09l4.69-1.26v-6.09L37.55,19.51z"/>
			</g>
			<g>
				<path d="M37.17,19.6c-0.03,0-0.07,0-0.1-0.01L33.8,18.7c-0.16-0.04-0.28-0.19-0.28-0.36v-1.16c0-0.17,0.11-0.32,0.28-0.36
					l0.04-0.01c0.06-0.02,0.13-0.02,0.2,0l1.82,0.49l3.13-0.84c0.06-0.02,0.13-0.02,0.2,0l3.53,0.95c0.16,0.04,0.28,0.19,0.28,0.36
					c0,0.17-0.11,0.32-0.28,0.36l-5.44,1.46C37.24,19.59,37.2,19.6,37.17,19.6z M34.27,18.05l2.9,0.78l3.99-1.07l-2.08-0.56
					l-3.13,0.84c-0.06,0.02-0.13,0.02-0.2,0l-1.49-0.4L34.27,18.05L34.27,18.05z"/>
			</g>
			<g>
				<path d="M21.6,59.18h-8.14c-0.21,0-0.38-0.17-0.38-0.38c0-0.21,0.17-0.38,0.38-0.38h8.14c0.21,0,0.38,0.17,0.38,0.38
					C21.97,59.01,21.81,59.18,21.6,59.18z"/>
			</g>
			<g>
				<path d="M46.31,22.64h-6.39c-0.21,0-0.38-0.17-0.38-0.38c0-0.21,0.17-0.38,0.38-0.38h6.01V8.79c0-0.21,0.17-0.38,0.38-0.38
					s0.38,0.17,0.38,0.38v13.47C46.69,22.47,46.52,22.64,46.31,22.64z"/>
			</g>
		</g>
	</g>
</g>
</svg>
