<?xml version="1.0" encoding="utf-8"?>
<!-- Generator: Adobe Illustrator 24.1.1, SVG Export Plug-In . SVG Version: 6.00 Build 0)  -->
<svg version="1.1" id="Layer_1" xmlns="http://www.w3.org/2000/svg" xmlns:xlink="http://www.w3.org/1999/xlink" x="0px" y="0px"
	 viewBox="0 0 60 60" style="enable-background:new 0 0 60 60;" xml:space="preserve">
<style type="text/css">
	.st0{opacity:0.2;}
	.st1{opacity:0.25;}
	.st2{fill:#FFFFFF;}
	.st3{fill:none;stroke:#000000;stroke-width:0.5;stroke-linecap:round;stroke-linejoin:round;stroke-miterlimit:10;}
	.st4{stroke:#000000;stroke-width:0.25;stroke-miterlimit:10;}
	.st5{fill:#4D4D4D;}
	.st6{fill:none;stroke:#000000;stroke-width:1.25;stroke-linecap:round;stroke-miterlimit:10;}
</style>
<g>
	<path d="M2.7,59.83h6.64c0.4,0,0.73-0.33,0.73-0.73V5.14c0-0.4-0.33-0.73-0.73-0.73H2.7c-1.4,0-2.53,1.13-2.53,2.53V57.3
		C0.17,58.7,1.3,59.83,2.7,59.83z M1.63,6.94c0-0.59,0.48-1.07,1.07-1.07h5.92v2.5H7.26c-0.4,0-0.73,0.33-0.73,0.73
		s0.33,0.73,0.73,0.73h1.36v2.32H7.26c-0.4,0-0.73,0.33-0.73,0.73s0.33,0.73,0.73,0.73h1.36v2.32H4.97c-0.4,0-0.73,0.33-0.73,0.73
		c0,0.4,0.33,0.73,0.73,0.73h3.64v2.32H7.26c-0.4,0-0.73,0.33-0.73,0.73c0,0.4,0.33,0.73,0.73,0.73h1.36v2.32H7.26
		c-0.4,0-0.73,0.33-0.73,0.73s0.33,0.73,0.73,0.73h1.36v2.32H4.97c-0.4,0-0.73,0.33-0.73,0.73c0,0.4,0.33,0.73,0.73,0.73h3.64V31
		H7.26c-0.4,0-0.73,0.33-0.73,0.73c0,0.4,0.33,0.73,0.73,0.73h1.36v2.32H7.26c-0.4,0-0.73,0.33-0.73,0.73c0,0.4,0.33,0.73,0.73,0.73
		h1.36v2.32H4.97c-0.4,0-0.73,0.33-0.73,0.73S4.57,40,4.97,40h3.64v2.32H7.26c-0.4,0-0.73,0.33-0.73,0.73s0.33,0.73,0.73,0.73h1.36
		v2.32H7.26c-0.4,0-0.73,0.33-0.73,0.73c0,0.4,0.33,0.73,0.73,0.73h1.36v2.32H4.97c-0.4,0-0.73,0.33-0.73,0.73s0.33,0.73,0.73,0.73
		h3.64v2.32H7.26c-0.4,0-0.73,0.33-0.73,0.73c0,0.4,0.33,0.73,0.73,0.73h1.36v3.27H2.7c-0.59,0-1.07-0.48-1.07-1.07V6.94z"/>
	<path d="M22.32,54.76h0.25c0.4,0,0.73-0.33,0.73-0.73c0-0.4-0.33-0.73-0.73-0.73h-0.25c-0.4,0-0.73,0.33-0.73,0.73
		C21.6,54.44,21.92,54.76,22.32,54.76z"/>
	<path d="M28.72,38.31c0,0.4,0.33,0.73,0.73,0.73h3.03c0.04,0,0.09,0,0.13-0.01c0.01,0,0.03-0.01,0.04-0.01
		c0.03-0.01,0.06-0.02,0.09-0.03c0.01,0,0.02-0.01,0.03-0.01c0.04-0.02,0.07-0.03,0.1-0.05l5.17-3.31c0,0,0.01,0,0.01-0.01
		c0.04-0.02,0.07-0.05,0.1-0.08c0,0,0.01-0.01,0.01-0.01c0.03-0.03,0.05-0.06,0.08-0.09c0,0,0.01-0.01,0.01-0.01L59.39,4.76
		c0.77-1.13,0.49-2.67-0.63-3.44l-1.03-0.71c-1.13-0.77-2.67-0.49-3.44,0.63l-1.01,1.47l0,0l-4.49,6.51H18.81c-0.01,0-0.02,0-0.04,0
		c-0.01,0-0.02,0-0.04,0c-1.29,0.12-2.51,0.65-3.48,1.51c-1.5,1.32-2.36,3.23-2.34,5.23v37.94v0c-0.08,3.2,2.45,5.85,5.65,5.93
		c0.05,0,0.09,0,0.14,0h34.16c0.4,0,0.73-0.33,0.73-0.73v-1.13c0-1.1-0.89-1.99-1.99-1.99h-0.86c-0.64-1.42-0.22-2.93,0.04-3.63
		h0.82c1.1,0,1.99-0.89,1.99-1.99V19.61c0-0.4-0.33-0.73-0.73-0.73c-0.4,0-0.73,0.33-0.73,0.73v28.64H18.81c-1.7,0-3.32,0.73-4.44,2
		V15.96c-0.02-1.58,0.65-3.08,1.84-4.13c0.74-0.65,1.67-1.06,2.65-1.16h28.92L33.14,31.89c-0.01,0.01-0.01,0.03-0.02,0.04
		c-0.01,0.02-0.03,0.04-0.04,0.07c-0.01,0.02-0.02,0.04-0.02,0.06c-0.01,0.02-0.02,0.05-0.02,0.07c0,0.01-0.01,0.01-0.01,0.02
		l-1.14,5.43h-2.44C29.05,37.59,28.72,37.91,28.72,38.31C28.72,38.31,28.72,38.31,28.72,38.31z M49.03,53.31H26.05
		c-0.4,0-0.73,0.33-0.73,0.73s0.33,0.73,0.73,0.73h22.92c0.03,0.41,0.11,0.83,0.23,1.22H18.71c-1,0-1.82-0.81-1.81-1.82
		c0-0.03,0-0.06,0-0.09c0.08-0.98,0.9-1.73,1.88-1.73h30.47C49.15,52.67,49.08,52.99,49.03,53.31L49.03,53.31z M18.81,49.7h33.33
		v0.67c0,0.29-0.24,0.53-0.53,0.53H18.78c-1.77-0.02-3.24,1.35-3.34,3.11c-0.09,1.8,1.31,3.34,3.11,3.42c0.05,0,0.1,0,0.16,0h32.9
		c0.29,0,0.53,0.24,0.53,0.53v0.4H18.71c-2.4,0-4.34-1.94-4.34-4.34c0-0.04,0-0.08,0-0.12C14.43,51.59,16.43,49.7,18.81,49.7z
		 M34.18,33.78c0.59,0.52,1.24,0.97,1.94,1.34l-2.57,1.65L34.18,33.78z M54.06,4.13L56.77,6L37.38,34.11
		c-1.02-0.44-1.94-1.08-2.71-1.87L54.06,4.13z M56.9,1.81l1.03,0.71c0.46,0.32,0.58,0.96,0.26,1.42l-0.6,0.87l-2.71-1.87l0.6-0.87
		C55.8,1.6,56.44,1.49,56.9,1.81z"/>
	<path d="M24.95,39.04h1.17c0.4,0,0.73-0.33,0.73-0.73s-0.33-0.73-0.73-0.73h-1.17c-0.4,0-0.73,0.33-0.73,0.73
		S24.55,39.04,24.95,39.04z"/>
	<path d="M23.84,34.73c-0.01,0.19-0.02,0.39-0.02,0.58c0,0.4,0.33,0.73,0.73,0.73c0.4,0,0.73-0.33,0.73-0.73
		c0-0.17,0-0.34,0.01-0.51c0.03-0.4-0.28-0.75-0.68-0.77s-0.75,0.28-0.77,0.68C23.84,34.71,23.84,34.72,23.84,34.73L23.84,34.73z"/>
	<path d="M24.91,32.53c0.38,0.14,0.8-0.05,0.93-0.43c0,0,0,0,0,0c0.1-0.27,0.22-0.54,0.34-0.81c0.17-0.36,0.02-0.8-0.34-0.97
		c-0.36-0.17-0.8-0.02-0.97,0.34c-0.15,0.3-0.28,0.62-0.4,0.93C24.34,31.97,24.54,32.39,24.91,32.53
		C24.91,32.53,24.91,32.53,24.91,32.53z"/>
	<path d="M27.75,29.01c0.2-0.21,0.41-0.42,0.63-0.61c0.3-0.27,0.32-0.73,0.05-1.03c-0.27-0.29-0.72-0.32-1.02-0.06
		c-0.25,0.22-0.49,0.46-0.72,0.71c-0.27,0.29-0.26,0.75,0.04,1.03C27.02,29.32,27.48,29.3,27.75,29.01L27.75,29.01z"/>
	<path d="M30.39,26.94c0.1,0,0.21-0.02,0.3-0.07c0.26-0.12,0.54-0.23,0.81-0.33c0.38-0.14,0.57-0.55,0.44-0.93
		c-0.13-0.37-0.54-0.57-0.91-0.44c-0.32,0.11-0.63,0.24-0.94,0.38c-0.37,0.17-0.53,0.6-0.36,0.96
		C29.84,26.78,30.1,26.94,30.39,26.94z"/>
	<path d="M34.23,26.05c0.17-0.01,0.34-0.01,0.51,0c0.4,0.01,0.73-0.31,0.74-0.71c0.01-0.4-0.31-0.73-0.71-0.74
		c-0.19,0-0.39,0-0.58,0c-0.4,0.01-0.72,0.34-0.72,0.74c0.01,0.4,0.34,0.72,0.74,0.72C34.21,26.05,34.22,26.05,34.23,26.05z"/>
</g>
</svg>
