<?xml version="1.0" encoding="utf-8"?>
<!-- Generator: Adobe Illustrator 24.1.1, SVG Export Plug-In . SVG Version: 6.00 Build 0)  -->
<svg version="1.1" id="Layer_1" xmlns="http://www.w3.org/2000/svg" xmlns:xlink="http://www.w3.org/1999/xlink" x="0px" y="0px"
	 viewBox="0 0 60 60" style="enable-background:new 0 0 60 60;" xml:space="preserve">
<style type="text/css">
	.st0{opacity:0.2;}
	.st1{opacity:0.25;}
	.st2{fill:#FFFFFF;}
	.st3{fill:none;stroke:#000000;stroke-width:0.5;stroke-linecap:round;stroke-linejoin:round;stroke-miterlimit:10;}
	.st4{stroke:#000000;stroke-width:0.25;stroke-miterlimit:10;}
	.st5{fill:#4D4D4D;}
	.st6{fill:none;stroke:#000000;stroke-width:1.25;stroke-linecap:round;stroke-miterlimit:10;}
</style>
<path d="M34.33,49.49H32.6V41c0-0.48-0.39-0.87-0.87-0.87s-0.87,0.39-0.87,0.87v8.49H8.35V32.17h7.21c0.48,0,0.87-0.39,0.87-0.87
	s-0.39-0.87-0.87-0.87H7.48c-0.48,0-0.87,0.39-0.87,0.87v18.19H4.88c-0.48,0-0.87,0.39-0.87,0.87v1.73c0,2.39,1.94,4.33,4.33,4.33
	h22.52c2.39,0,4.33-1.94,4.33-4.33v-1.73C35.2,49.87,34.81,49.49,34.33,49.49z M33.46,52.09c0,1.43-1.16,2.6-2.6,2.6h-1.73v-0.87
	c0-0.48-0.39-0.87-0.87-0.87s-0.87,0.39-0.87,0.87v0.87H11.81v-0.87c0-0.48-0.39-0.87-0.87-0.87s-0.87,0.39-0.87,0.87v0.87H8.35
	c-1.43,0-2.6-1.16-2.6-2.6v-0.87h27.71V52.09z"/>
<path d="M53.38,4.45H42.99c-1.43,0-2.6,1.16-2.6,2.6v1.73c0,0.48,0.39,0.87,0.87,0.87c0.48,0,0.87-0.39,0.87-0.87V7.05
	c0-0.48,0.39-0.87,0.87-0.87h10.39c0.48,0,0.87,0.39,0.87,0.87v10.39c0,0.48-0.39,0.87-0.87,0.87H42.99c-0.48,0-0.87-0.39-0.87-0.87
	v-5.2c0-0.48-0.39-0.87-0.87-0.87c-0.48,0-0.87,0.39-0.87,0.87v5.2c0,1.43,1.16,2.6,2.6,2.6h10.39c1.43,0,2.6-1.16,2.6-2.6V7.05
	C55.98,5.61,54.82,4.45,53.38,4.45z"/>
<path d="M53.38,31.3H42.99c-1.43,0-2.6,1.16-2.6,2.6v10.39c0,1.43,1.16,2.6,2.6,2.6h10.39c1.43,0,2.6-1.16,2.6-2.6v-1.73
	c0-0.48-0.39-0.87-0.87-0.87c-0.48,0-0.87,0.39-0.87,0.87v1.73c0,0.48-0.39,0.87-0.87,0.87H42.99c-0.48,0-0.87-0.39-0.87-0.87V33.9
	c0-0.48,0.39-0.87,0.87-0.87h10.39c0.48,0,0.87,0.39,0.87,0.87v5.2c0,0.48,0.39,0.87,0.87,0.87c0.48,0,0.87-0.39,0.87-0.87v-5.2
	C55.98,32.46,54.82,31.3,53.38,31.3z"/>
<path d="M25.67,19.17c4.3,0,7.79-3.49,7.79-7.79s-3.49-7.79-7.79-7.79s-7.79,3.49-7.79,7.79S21.36,19.17,25.67,19.17z M25.67,5.32
	c3.35,0,6.06,2.71,6.06,6.06s-2.71,6.06-6.06,6.06s-6.06-2.71-6.06-6.06S22.32,5.32,25.67,5.32z"/>
<path d="M34.33,22.64c0.27,0,0.53-0.13,0.69-0.35l2.6-3.46c0.29-0.38,0.21-0.93-0.17-1.21c-0.38-0.29-0.92-0.21-1.21,0.17l-2.6,3.46
	c-0.29,0.38-0.21,0.93,0.17,1.21C33.96,22.58,34.14,22.64,34.33,22.64z"/>
<path d="M36.24,25.76c0.16,0.22,0.42,0.35,0.69,0.35c0.19,0,0.37-0.06,0.52-0.17l3.46-2.6c0.38-0.29,0.46-0.83,0.17-1.21
	c-0.29-0.38-0.83-0.46-1.21-0.17l-3.46,2.6C36.03,24.83,35.95,25.37,36.24,25.76L36.24,25.76z"/>
<path d="M44.72,27.66c-0.08-0.47-0.53-0.78-1.01-0.7c-0.01,0-0.02,0-0.03,0.01l-4.33,0.87c-0.48,0.05-0.83,0.47-0.78,0.95
	s0.47,0.83,0.95,0.78h0.17l4.33-0.87c0.47-0.08,0.78-0.53,0.7-1.01C44.73,27.68,44.73,27.67,44.72,27.66z"/>
<path d="M4.88,27.83h10.39c0.48,0,0.87-0.39,0.87-0.87V13.11c0-0.48-0.39-0.87-0.87-0.87H4.88c-0.48,0-0.87,0.39-0.87,0.87v13.86
	C4.02,27.45,4.41,27.83,4.88,27.83z M5.75,13.98h8.66V26.1H5.75V13.98z"/>
<path d="M11.81,15.71h-1.73c-0.48,0-0.87,0.39-0.87,0.87c0,0.48,0.39,0.87,0.87,0.87h1.73c0.48,0,0.87-0.39,0.87-0.87
	C12.68,16.1,12.29,15.71,11.81,15.71z"/>
<path d="M11.81,19.17H8.35c-0.48,0-0.87,0.39-0.87,0.87s0.39,0.87,0.87,0.87h3.46c0.48,0,0.87-0.39,0.87-0.87
	S12.29,19.17,11.81,19.17z"/>
<path d="M11.81,22.64H8.35c-0.48,0-0.87,0.39-0.87,0.87s0.39,0.87,0.87,0.87h3.46c0.48,0,0.87-0.39,0.87-0.87
	S12.29,22.64,11.81,22.64z"/>
<path d="M33.57,27.57c-0.24-0.42-0.77-0.56-1.19-0.32c-0.42,0.24-0.56,0.77-0.32,1.19l3.82,6.61l-13.86,5.2c0,0,0,0-0.06,0h-0.07
	l-2.25,1.3l-1.5,0.87c-0.4,0.23-0.87,0.29-1.32,0.17c-0.44-0.12-0.82-0.41-1.05-0.81l-1.73-3c-0.42-0.81-0.14-1.82,0.65-2.29l3-1.73
	l2.17,3.75c0.16,0.27,0.44,0.43,0.75,0.43c0.48,0,0.87-0.38,0.87-0.86c0-0.15-0.04-0.3-0.12-0.44l-2.23-3.86L30,24.82l0.36,0.61
	c0.24,0.42,0.77,0.56,1.19,0.32c0.42-0.24,0.56-0.77,0.32-1.19L31,23.07c-0.13-0.22-0.35-0.37-0.6-0.42
	c-0.25-0.05-0.51,0.02-0.71,0.18l-12.13,9.99l-3.69,2.13c-1.36,0.79-2.02,2.41-1.59,3.92l-0.87,0.49c-1.24,0.71-1.67,2.3-0.96,3.55
	c0.34,0.6,0.91,1.04,1.58,1.22c0.22,0.06,0.45,0.09,0.68,0.09c0.46,0,0.9-0.12,1.3-0.35l0.87-0.49c0.42,0.43,0.94,0.74,1.52,0.9
	c0.3,0.08,0.6,0.12,0.91,0.12c0.61,0,1.21-0.16,1.73-0.47l0.75-0.43l1.73,3.01c0.72,1.24,2.3,1.67,3.54,0.95
	c1.24-0.72,1.67-2.31,0.95-3.55c0,0,0,0,0,0l-1.58-2.75l12.99-4.88c0.24-0.09,0.43-0.28,0.51-0.52c0.09-0.24,0.06-0.5-0.06-0.72
	L33.57,27.57z M13.11,42.38c-0.2,0.12-0.44,0.15-0.66,0.09c-0.22-0.06-0.41-0.2-0.53-0.4c-0.12-0.2-0.15-0.44-0.09-0.66
	c0.06-0.22,0.21-0.41,0.41-0.53L13,40.45l0.87,1.5L13.11,42.38z M24.51,44.8c0.12,0.2,0.15,0.44,0.09,0.66
	c-0.06,0.22-0.21,0.41-0.41,0.52c-0.41,0.24-0.94,0.1-1.18-0.31l-1.73-3.01l1.44-0.82h0.07L24.51,44.8z"/>
<g>
	<g>
		<g>
			<path d="M46.54,7.19v1.57h-3.33v8.36h6.61v-1.57h3.33V7.19H46.54z M46.84,7.58l2.25,1.18h-2.25V7.58z M49.54,15.55v1.28h-6.02
				V9.06h3.03h2.99V15.55z M52.86,15.26h-3.03V8.76h-0.1l-2.44-1.28h5.57V15.26z"/>
		</g>
	</g>
	<g>
		<g>
			<path d="M43.87,9.85v3.64h5.33V9.85H43.87z M44.24,13.19l1.14-2.12c0.04-0.08,0.11-0.09,0.14-0.09c0.03,0,0.1,0.01,0.15,0.08
				l1.26,2.13H44.24z M47.27,13.19l-0.31-0.53l0.33-0.59c0.04-0.06,0.11-0.1,0.18-0.11c0.08-0.01,0.15,0.02,0.2,0.08l1.07,1.15
				L47.27,13.19L47.27,13.19z M48.91,12.93l-1.01-1.08c-0.12-0.12-0.28-0.19-0.45-0.17c-0.17,0.02-0.32,0.11-0.41,0.25l-0.26,0.45
				l-0.86-1.46c-0.09-0.15-0.24-0.23-0.41-0.23c-0.17,0-0.32,0.09-0.4,0.24l-0.95,1.78v-2.57h4.74L48.91,12.93L48.91,12.93z"/>
		</g>
	</g>
	<g>
		<g>
			<path d="M48.03,10.4c-0.3,0-0.54,0.24-0.54,0.54c0,0.3,0.24,0.54,0.54,0.54s0.54-0.24,0.54-0.54
				C48.57,10.64,48.33,10.4,48.03,10.4z M48.03,11.19c-0.14,0-0.25-0.11-0.25-0.25c0-0.14,0.11-0.25,0.25-0.25
				c0.14,0,0.25,0.11,0.25,0.25C48.28,11.08,48.17,11.19,48.03,11.19z"/>
		</g>
	</g>
	<g>
		<g>
			<rect x="43.86" y="13.94" width="2.36" height="0.3"/>
		</g>
	</g>
	<g>
		<g>
			<rect x="43.86" y="14.57" width="2.36" height="0.3"/>
		</g>
	</g>
	<g>
		<g>
			<rect x="43.86" y="15.2" width="2.36" height="0.3"/>
		</g>
	</g>
	<g>
		<g>
			<rect x="43.86" y="15.83" width="2.36" height="0.3"/>
		</g>
	</g>
	<g>
		<g>
			<rect x="46.81" y="13.94" width="2.36" height="0.3"/>
		</g>
	</g>
	<g>
		<g>
			<rect x="46.81" y="14.57" width="2.36" height="0.3"/>
		</g>
	</g>
	<g>
		<g>
			<rect x="46.81" y="15.2" width="2.36" height="0.3"/>
		</g>
	</g>
	<g>
		<g>
			<rect x="46.81" y="15.83" width="1.57" height="0.3"/>
		</g>
	</g>
	<g>
		<g>
			<polygon points="49.25,7.96 49.25,8.25 52.17,8.25 52.17,9.89 50.08,9.89 50.08,10.18 52.47,10.18 52.47,7.96 			"/>
		</g>
	</g>
	<g>
		<g>
			<path d="M50.32,10.52v2.11h2.15v-2.11H50.32z M52.17,12.33h-1.55v-1.52h1.55V12.33z"/>
		</g>
	</g>
	<g>
		<g>
			<rect x="50.31" y="12.92" width="2.16" height="0.3"/>
		</g>
	</g>
	<g>
		<g>
			<rect x="50.31" y="13.48" width="2.16" height="0.3"/>
		</g>
	</g>
	<g>
		<g>
			<rect x="50.31" y="14.05" width="2.16" height="0.3"/>
		</g>
	</g>
	<g>
		<g>
			<rect x="50.31" y="14.61" width="1.34" height="0.3"/>
		</g>
	</g>
</g>
<g>
	<g>
		<g>
			<path d="M46.74,36.55c-0.9,0-1.63,0.73-1.63,1.63s0.73,1.63,1.63,1.63s1.63-0.73,1.63-1.63S47.64,36.55,46.74,36.55z
				 M46.74,39.41c-0.68,0-1.23-0.55-1.23-1.23s0.55-1.23,1.23-1.23s1.23,0.55,1.23,1.23S47.42,39.41,46.74,39.41z"/>
		</g>
	</g>
	<g>
		<g>
			<path d="M48.33,40.69c-0.04-0.04-0.09-0.06-0.14-0.06c-0.05,0-0.1,0.02-0.14,0.06c-0.04,0.04-0.06,0.09-0.06,0.14
				c0,0.05,0.02,0.1,0.06,0.14c0.04,0.04,0.09,0.06,0.14,0.06c0.05,0,0.1-0.02,0.14-0.06c0.04-0.04,0.06-0.09,0.06-0.14
				C48.39,40.78,48.37,40.73,48.33,40.69z"/>
		</g>
	</g>
	<g>
		<g>
			<path d="M47.46,40.63h-2.17c-0.11,0-0.2,0.09-0.2,0.2c0,0.11,0.09,0.2,0.2,0.2h2.17c0.11,0,0.2-0.09,0.2-0.2
				C47.66,40.72,47.57,40.63,47.46,40.63z"/>
		</g>
	</g>
	<g>
		<g>
			<path d="M48.19,41.54h-2.9c-0.11,0-0.2,0.09-0.2,0.2c0,0.11,0.09,0.2,0.2,0.2h2.9c0.11,0,0.2-0.09,0.2-0.2
				C48.39,41.63,48.3,41.54,48.19,41.54z"/>
		</g>
	</g>
	<g>
		<g>
			<path d="M48.19,42.45h-2.12c-0.11,0-0.2,0.09-0.2,0.2c0,0.11,0.09,0.2,0.2,0.2h2.12c0.11,0,0.2-0.09,0.2-0.2
				C48.39,42.54,48.3,42.45,48.19,42.45z"/>
		</g>
	</g>
	<g>
		<g>
			<path d="M45.42,42.51c-0.04-0.04-0.09-0.06-0.14-0.06c-0.05,0-0.1,0.02-0.14,0.06c-0.04,0.04-0.06,0.09-0.06,0.14
				c0,0.05,0.02,0.1,0.06,0.14c0.04,0.04,0.09,0.06,0.14,0.06c0.05,0,0.1-0.02,0.14-0.06c0.04-0.04,0.06-0.09,0.06-0.14
				C45.48,42.6,45.46,42.55,45.42,42.51z"/>
		</g>
	</g>
	<g>
		<g>
			<path d="M52.54,34h-5.81c-0.11,0-0.2,0.09-0.2,0.2v0.88h-2.71c-0.11,0-0.2,0.09-0.2,0.2v8.71c0,0.11,0.09,0.2,0.2,0.2h5.81
				c0.11,0,0.2-0.09,0.2-0.2v-0.88h2.71c0.11,0,0.2-0.09,0.2-0.2V34.2C52.74,34.09,52.65,34,52.54,34z M49.44,43.79h-5.41v-8.31
				h5.41V43.79z M52.35,42.71h-2.51v-7.44c0-0.11-0.09-0.2-0.2-0.2h-2.71V34.4h5.41V42.71z"/>
		</g>
	</g>
</g>
<g transform="translate(0,-288.53332)">
	<path d="M21.68,296.12v4.84h2.85v1.99l-0.9,0.9c-0.06,0.06-0.06,0.15,0,0.2c0.03,0.03,0.06,0.04,0.1,0.04h3.87
		c0.08,0,0.14-0.06,0.14-0.14c0-0.04-0.01-0.07-0.04-0.1l-0.9-0.9v-1.99h2.85v-4.84L21.68,296.12z M21.97,296.4h7.4v4.27h-7.4V296.4
		z M24.82,300.96h1.71v2.85h-1.71V300.96z M24.53,303.35v0.45h-0.45L24.53,303.35z M26.81,303.35l0.45,0.45h-0.45V303.35z"/>
	<path d="M23.44,296.76c-0.08,0-0.14,0.06-0.15,0.14c0,0,0,0,0,0v0.82l-0.77-0.28c-0.07-0.03-0.16,0.01-0.18,0.08
		c-0.02,0.04-0.01,0.09,0.01,0.13l0.71,1.1l-0.43,0.35c-0.06,0.05-0.07,0.14-0.02,0.2c0.03,0.04,0.08,0.06,0.13,0.05l0.76-0.12
		l-0.12,0.81c-0.01,0.08,0.04,0.15,0.12,0.16c0.04,0.01,0.08,0,0.11-0.03l0.9-0.72l0.51,0.37c0.06,0.05,0.15,0.03,0.2-0.03
		c0.03-0.04,0.03-0.08,0.02-0.12l-0.27-0.95l0.78-0.03c0.08,0,0.14-0.07,0.14-0.15c0-0.04-0.02-0.08-0.05-0.11l-0.9-0.7l0.33-0.7
		c0.03-0.07,0-0.16-0.07-0.19c-0.04-0.02-0.08-0.02-0.11,0l-1.02,0.42l-0.53-0.47C23.5,296.78,23.47,296.76,23.44,296.76
		L23.44,296.76z M23.57,297.22L24,297.6l0.84-0.35l-0.27,0.58l0.77,0.6l-0.75,0.03l0.26,0.91l-0.35-0.25l-0.78,0.63l0.12-0.83
		l-0.62,0.1l0.22-0.18l-0.62-0.95l0.75,0.28V297.22z"/>
	<path d="M28.52,297.25v0.28h-1.71v-0.28H28.52z"/>
	<path d="M28.52,298.11v0.28h-1.71v-0.28H28.52z"/>
	<path d="M28.52,298.96v0.28h-1.71v-0.28L28.52,298.96z"/>
</g>
</svg>
