<?xml version="1.0" encoding="utf-8"?>
<!-- Generator: Adobe Illustrator 24.1.1, SVG Export Plug-In . SVG Version: 6.00 Build 0)  -->
<svg version="1.1" id="Layer_1" xmlns="http://www.w3.org/2000/svg" xmlns:xlink="http://www.w3.org/1999/xlink" x="0px" y="0px"
	 viewBox="0 0 60 60" style="enable-background:new 0 0 60 60;" xml:space="preserve">
<style type="text/css">
	.st0{opacity:0.2;}
	.st1{opacity:0.25;}
	.st2{fill:#FFFFFF;}
	.st3{fill:none;stroke:#000000;stroke-width:0.5;stroke-linecap:round;stroke-linejoin:round;stroke-miterlimit:10;}
	.st4{stroke:#000000;stroke-width:0.25;stroke-miterlimit:10;}
	.st5{fill:#4D4D4D;}
	.st6{fill:none;stroke:#000000;stroke-width:1.25;stroke-linecap:round;stroke-miterlimit:10;}
</style>
<g>
	<path d="M42.27,3.64c-0.05-0.06-0.12-0.1-0.19-0.13c0,0,0,0,0,0c-2.02-0.87-4.85-2.09-5.06-2.17c-0.16-0.06-0.34-0.05-0.49,0.04
		c-7.07,4.29-11.96,0.32-12.68,0.13c-0.24-0.14-0.45-0.27-0.72-0.17c-0.01,0-0.01,0-0.02,0c-5.33,2.18-5.03,1.99-5.2,2.15
		c-0.01,0.01-0.01,0.01-0.02,0.02l-6.37,6.65c-0.18,0.19-0.21,0.48-0.07,0.7l4.02,6.15c0.11,0.16,0.29,0.26,0.47,0.26
		c0.09,0,0.18-0.02,0.27-0.07l3.31-1.8l-0.35,18.56c-0.01,0.32,0.25,0.57,0.56,0.57h20.44c0.15,0,0.3-0.06,0.4-0.17
		c0.11-0.11,0.16-0.25,0.16-0.4l-0.13-9.55c-0.07-5.17-0.1-7.67-0.12-8.83l3.29,1.62c0.08,0.04,0.16,0.06,0.25,0.06
		c0.19,0,0.37-0.09,0.47-0.26l4.02-6.15c0.14-0.22,0.12-0.51-0.06-0.7L42.27,3.64z M36.04,3.01c-0.78,2.57-3.31,4.48-5.96,4.48
		c-2.69,0-5.26-1.95-5.99-4.56c0,0,0-0.01,0-0.01C28.19,4.99,32.39,5.01,36.04,3.01z M16.15,15.96l-3.49-5.34l5.52-5.77
		c1.69,3.28,2.17,6.38,1.45,9.21L16.15,15.96z M20.33,33.41l0.35-18.89c0.87-3.2,0.34-6.68-1.57-10.34l3.75-1.52
		c0.63,3.39,3.77,5.96,7.22,5.96c3.47,0,6.57-2.62,7.21-5.94l3.77,1.62c-1.91,3.46-2.5,6.98-1.69,10.22l0.01,0.28
		c0,0.01,0,0.02,0,0.03l0,0.14c0,0.02,0,0.04,0,0.06l0.25,18.38L20.33,33.41L20.33,33.41z M43.84,15.98l-3.37-1.66
		c0-0.01,0-0.01,0-0.02c-0.75-2.93-0.23-6.15,1.5-9.33l5.37,5.65L43.84,15.98z"/>
	<path d="M35.69,11.75H24.48c-0.31,0-0.56,0.25-0.56,0.56v11.21c0,0.31,0.25,0.56,0.56,0.56h11.21c0.31,0,0.56-0.25,0.56-0.56V12.32
		C36.25,12,36,11.75,35.69,11.75z M35.13,22.96H25.04V12.88h10.08V22.96z"/>
	<path d="M27.75,19.03l-0.36,2.08c-0.04,0.21,0.05,0.43,0.22,0.55c0.17,0.13,0.4,0.14,0.59,0.04l1.88-0.99l1.88,0.99
		c0.08,0.04,0.17,0.06,0.26,0.06c0.12,0,0.23-0.04,0.33-0.11c0.17-0.13,0.26-0.34,0.22-0.55l-0.36-2.08l1.51-1.48
		c0.15-0.15,0.21-0.37,0.14-0.58c-0.07-0.2-0.24-0.35-0.46-0.38l-2.09-0.3l-0.94-1.9c-0.19-0.39-0.82-0.39-1.01,0l-0.93,1.9
		l-2.09,0.3c-0.21,0.03-0.39,0.18-0.46,0.38c-0.07,0.2-0.01,0.43,0.14,0.58L27.75,19.03z M29.1,17.36c0.18-0.03,0.34-0.14,0.43-0.31
		l0.56-1.14l0.56,1.14c0.08,0.17,0.24,0.28,0.43,0.31l1.26,0.18l-0.91,0.89c-0.13,0.13-0.19,0.32-0.16,0.5l0.22,1.25l-1.12-0.59
		c-0.08-0.04-0.17-0.06-0.26-0.06s-0.18,0.02-0.26,0.06l-1.12,0.59l0.22-1.25c0.03-0.18-0.03-0.37-0.16-0.5l-0.91-0.89L29.1,17.36z"
		/>
	<g>
		<path class="st2" d="M38.95,8.68c0.01-0.13,0.03-0.26,0.04-0.42c0.08-1.21,0.2-3.03-1.03-4.28c-0.47-0.48-1.32-0.79-2.1-0.79
			c-0.25,0-0.49,0.03-0.7,0.09c-0.66,0.17-1.17,0.7-1.32,1.38c-0.19,0.76,0.13,1.56,0.8,1.98c0.14,0.1,0.31,0.16,0.49,0.16
			c0.26,0,0.5-0.12,0.66-0.33c0.28-0.37,0.21-0.89-0.15-1.17c-0.04-0.03-0.08-0.05-0.12-0.08c-0.05-0.04-0.08-0.11-0.06-0.17l0-0.02
			l0-0.02c0.01-0.06,0.06-0.11,0.12-0.12c0.1-0.02,0.2-0.03,0.31-0.03c0.33,0,0.64,0.11,0.9,0.31c0.69,0.71,0.61,1.91,0.54,2.97
			c0,0.05-0.01,0.1-0.01,0.15c-0.64,0.24-1.08,0.88-1.01,1.6c0.07,0.81,0.74,1.42,1.55,1.42c0.05,0,0.09,0,0.14-0.01
			c0.41-0.04,0.79-0.23,1.05-0.55c0.27-0.32,0.39-0.72,0.36-1.13C39.36,9.27,39.2,8.94,38.95,8.68z"/>
		<path class="st2" d="M45.09,16.69l-3.4-7.92c-0.27-0.56-0.71-0.98-1.26-1.21L39.45,7.2l-0.71-0.26L38.71,7.7
			C38.7,7.85,38.7,8,38.69,8.14l-0.01,0.11c0,0,0,0,0,0l-1.04-0.36l0.01-0.15c0.02-0.28,0.02-0.56,0.02-0.8V6.55L37.3,6.42
			c-0.13-0.05-0.27-0.07-0.41-0.07h0l0,0c-0.53,0-1.02,0.34-1.21,0.84l-1.13,2.99c-0.19,0.59-0.17,1.2,0.04,1.75l3.51,8.03
			c0.19,0.46,0.65,0.76,1.15,0.76c0.17,0,0.33-0.03,0.49-0.1l0.01,0l0.04-0.02l4.68-2.2C45.1,18.08,45.37,17.33,45.09,16.69z"/>
		<path d="M41.7,14.04c-0.09-0.1-0.23-0.14-0.36-0.11l-0.81,0.22l-0.64-0.54c-0.15-0.13-0.38-0.1-0.5,0.05
			c-0.05,0.06-0.08,0.13-0.08,0.21l-0.04,0.82l-0.72,0.43c-0.17,0.1-0.22,0.32-0.12,0.49c0.04,0.07,0.11,0.12,0.18,0.15l0.78,0.29
			l0.2,0.79c0.05,0.19,0.24,0.31,0.44,0.26c0.07-0.02,0.14-0.06,0.19-0.12l0.52-0.64l0.84,0.06c0.2,0.01,0.37-0.14,0.38-0.33
			c0.01-0.08-0.02-0.16-0.06-0.22l-0.46-0.68l0.31-0.75C41.81,14.28,41.78,14.14,41.7,14.04z M40.61,15.62
			c-0.12-0.01-0.23,0.04-0.3,0.13l-0.19,0.23l-0.07-0.28c-0.03-0.12-0.12-0.21-0.23-0.25l-0.27-0.1l0.24-0.15
			c0.1-0.06,0.17-0.17,0.18-0.29l0.01-0.29l0.23,0.19c0.09,0.07,0.21,0.1,0.32,0.07l0.29-0.08l-0.11,0.26
			c-0.05,0.11-0.03,0.24,0.03,0.34l0.16,0.23L40.61,15.62z"/>
		<path d="M41.19,8.99c-0.2-0.41-0.55-0.74-0.97-0.92l-0.96-0.35c-0.01,0.2-0.02,0.38-0.03,0.56c0,0.06-0.01,0.13-0.01,0.18
			l0.76,0.28c0.24,0.12,0.43,0.3,0.56,0.54l3.41,7.92c0.01,0.02,0,0.04-0.01,0.05l-4.67,2.21l-3.49-8c-0.09-0.26-0.1-0.55-0.02-0.82
			l1.12-2.99c0-0.01,0.01-0.02,0.02-0.02L37.1,7.7c0.02-0.26,0.02-0.52,0.02-0.76c-0.07-0.03-0.15-0.04-0.23-0.04
			c-0.31,0-0.58,0.19-0.69,0.48l-1.13,3c-0.14,0.44-0.13,0.92,0.04,1.36l3.49,8c0.15,0.36,0.56,0.52,0.92,0.37
			c0.01,0,0.02-0.01,0.03-0.01l4.68-2.21c0.36-0.18,0.52-0.61,0.36-0.98L41.19,8.99z"/>
		<path d="M35.48,4.44c0.57-0.12,1.17,0.02,1.63,0.39c0.86,0.86,0.77,2.25,0.69,3.36c-0.01,0.18-0.03,0.35-0.05,0.51
			c-0.59,0.05-1.03,0.57-0.98,1.17c0.05,0.59,0.57,1.03,1.17,0.98s1.03-0.57,0.98-1.17c-0.03-0.32-0.2-0.62-0.47-0.8
			c0.03-0.21,0.05-0.43,0.07-0.65c0.08-1.19,0.18-2.82-0.9-3.91c-0.46-0.47-1.51-0.81-2.33-0.58c-0.5,0.12-0.88,0.52-0.99,1.02
			c-0.14,0.57,0.1,1.18,0.6,1.49c0.16,0.12,0.38,0.09,0.5-0.07c0.12-0.16,0.09-0.38-0.07-0.5c-0.02-0.02-0.04-0.03-0.07-0.04
			c-0.24-0.15-0.35-0.44-0.28-0.72C35.04,4.68,35.23,4.49,35.48,4.44z M37.84,10.13c-0.2,0-0.36-0.16-0.36-0.36s0.16-0.36,0.36-0.36
			c0.2,0,0.36,0.16,0.36,0.36S38.04,10.13,37.84,10.13z"/>
	</g>
</g>
<g>
	<path d="M16.52,24.65l0.05,0v2.3c0,2.21,0,4.41,0,6.62c0,2.82,1.82,4.64,4.64,4.64l2.27,0l5.58,0l9.67,0
		c2.96,0,4.72-1.77,4.72-4.72l0-6.56v-2.25c0.16,0,0.31-0.01,0.46-0.01c0.34,0,0.61,0.02,0.85,0.05c0.37,0.05,0.54,0.5,0.54,0.92
		c0.01,1.58,0.01,3.17,0.01,4.75l0,1.94c0,0.27,0,0.72,0.28,1.21l1.43,2.54l0.77-2.81l0.21-0.76c0.14-0.5,0.28-1.01,0.42-1.54
		c0.33,0.01,0.66,0.01,1,0.01l0.81,0l0.8,0c0.19,0,0.39,0,0.58,0c1.43,0.01,2.35,0.92,2.35,2.32c0.01,5.84,0.01,11.68,0,17.35
		c0,1.44-0.92,2.33-2.38,2.34l-0.28,0l-0.65,0l-0.67,0c-0.23,0-0.45,0-0.69,0.01c-0.15-0.35-0.35-0.66-0.61-0.94l-1.41-1.5
		c0.12-0.33,0.18-0.71,0.18-1.15l0-0.17c0-1.34,0.01-2.69,0-4.03c-0.01-1.56-0.88-2.42-2.45-2.42l-15.05,0l-14.98,0
		c-1.58,0-2.45,0.88-2.46,2.47c-0.01,1.38,0,2.76,0,4.14c0,0.62,0.11,1.12,0.33,1.51l-1.42,1.07l-0.07,0.05
		c-0.12,0.08-0.43,0.29-0.55,0.74c-0.05,0.19-0.1,0.24-0.1,0.24c0,0-0.07,0.04-0.28,0.04c-0.1,0-0.2-0.01-0.31-0.02
		c-0.23-0.03-0.48-0.04-0.77-0.04c-0.17,0-0.34,0-0.51,0.01c-0.15,0-0.3,0.01-0.45,0.01c-0.06,0-0.12,0-0.18,0
		c-1.26-0.04-2.19-0.94-2.19-2.14C6,45.02,6,39.04,6.03,33.1c0.01-1.16,0.94-2.07,2.17-2.11c0.56-0.02,1.11-0.02,1.67-0.02
		c0.62,0,1.25,0.01,1.87,0.02c0.04,0.09,0.07,0.18,0.11,0.27c0.16,0.38,0.33,0.81,0.58,1.25l2.06,3.68l0.19-4.22l0.01-0.15
		c0.01-0.14,0.02-0.28,0.01-0.42l0-2.05c0-1.2-0.01-2.4,0-3.6c0-0.82,0.29-1.11,1.12-1.11L16.52,24.65 M9.69,38.84L9.69,38.84
		c0.98,0,1.9-0.39,2.6-1.09c0.7-0.7,1.08-1.62,1.08-2.6c-0.01-1.99-1.63-3.63-3.62-3.66l-0.04,0H9.7c-2.01,0-3.65,1.63-3.67,3.64
		c-0.01,0.99,0.37,1.91,1.06,2.61C7.78,38.45,8.7,38.84,9.69,38.84L9.69,38.84 M46.63,51.47v1.41l0,0.73l0,1.61l0,0.73
		c0,0.52,0,1.03,0,1.55l-0.08,0l-0.13,0l-15.5,0l-17.33,0l-0.13,0l-0.08,0c-0.01-0.91-0.01-1.81,0-2.72l0-1.19l0-0.45v-0.21v-1.45
		c0.42,0.3,0.99,0.45,1.72,0.45l8.64,0h1.14l1.14,0l3.97,0l3.88,0l3.88,0l7.2,0C45.66,51.92,46.22,51.77,46.63,51.47 M16.52,23.45
		c-0.24,0-0.48,0-0.72,0c-1.48,0.01-2.31,0.84-2.31,2.31c0,1.88,0.01,3.77,0.01,5.65c0,0.17-0.01,0.34-0.02,0.51
		c-0.33-0.59-0.52-1.18-0.78-1.74c-0.08-0.18-0.34-0.38-0.52-0.38c-0.77-0.02-1.54-0.03-2.31-0.03c-0.57,0-1.14,0.01-1.7,0.02
		c-1.86,0.05-3.32,1.47-3.33,3.3c-0.03,5.92-0.03,11.84,0,17.76c0.01,1.87,1.48,3.28,3.36,3.33c0.07,0,0.14,0,0.21,0
		c0.32,0,0.64-0.02,0.96-0.02c0.21,0,0.42,0.01,0.63,0.03c0.16,0.02,0.31,0.03,0.45,0.03c0.74,0,1.3-0.28,1.54-1.16
		c0.01-0.03,0.06-0.05,0.19-0.15c0,0.29,0,0.48,0,0.66c0,1.36-0.01,2.72,0,4.08c0.01,0.68,0.32,0.99,1,1.03c0.06,0,0.12,0,0.18,0
		c0.08,0,0.15,0,0.23,0c5.78,0,11.56,0,17.33,0c5.17,0,10.34,0,15.5,0c0.08,0,0.15,0,0.23,0c0.06,0,0.12,0,0.18,0
		c0.68-0.04,0.99-0.35,1-1.02c0.01-0.82,0-1.63,0-2.45c0-0.78,0-1.57,0-2.35c0.25,0.27,0.39,0.56,0.48,0.86
		c0.1,0.34,0.28,0.46,0.62,0.46c0.02,0,0.03,0,0.05,0c0.34-0.01,0.68-0.01,1.02-0.01c0.44,0,0.88,0.01,1.32,0.01
		c0.09,0,0.19,0,0.28,0c2.11-0.01,3.57-1.44,3.57-3.54c0.01-5.78,0.01-11.57,0-17.35c0-2.06-1.47-3.49-3.54-3.51
		c-0.2,0-0.39,0-0.59,0c-0.54,0-1.08,0-1.62,0c-0.47,0-0.94,0-1.4-0.02c-0.01,0-0.03,0-0.04,0c-0.39,0-0.53,0.16-0.62,0.53
		c-0.22,0.89-0.48,1.78-0.73,2.67c-0.12-0.22-0.12-0.42-0.12-0.63c0-2.23,0-4.46-0.01-6.7c-0.01-1.07-0.6-1.96-1.57-2.1
		c-0.33-0.05-0.67-0.06-1.02-0.06c-0.54,0-1.1,0.04-1.66,0.04c0,0.22,0,0.41,0,0.6c0,3.13,0,6.25,0,9.38c0,2.29-1.23,3.52-3.53,3.52
		c-3.22,0-6.45,0-9.67,0c-2.62,0-5.24,0-7.86,0c-2.15,0-3.44-1.29-3.44-3.45c0-3.14,0-6.29,0-9.43c0-0.21,0-0.42,0-0.68
		C17.33,23.45,16.92,23.45,16.52,23.45L16.52,23.45z M9.69,37.64C9.69,37.64,9.69,37.64,9.69,37.64c-1.37,0-2.47-1.12-2.47-2.49
		c0.01-1.35,1.12-2.45,2.47-2.45c0.01,0,0.02,0,0.03,0c1.33,0.02,2.43,1.13,2.44,2.46C12.17,36.51,11.05,37.64,9.69,37.64
		L9.69,37.64z M23.74,50.72c-2.88,0-5.76,0-8.64,0c-1.06,0-1.36-0.3-1.37-1.34c0-1.38-0.01-2.76,0-4.13c0-0.93,0.34-1.27,1.26-1.27
		c4.99,0,9.99,0,14.98,0c5.02,0,10.03,0,15.05,0c0.9,0,1.24,0.34,1.25,1.23c0.01,1.4,0,2.79,0,4.19c0,1.01-0.31,1.33-1.32,1.33
		c-2.4,0-4.8,0-7.2,0c-2.59,0-5.17,0-7.76,0c-1.32,0-2.65,0-3.97,0C25.26,50.72,24.5,50.72,23.74,50.72L23.74,50.72z"/>
</g>
</svg>
