<?xml version="1.0" encoding="utf-8"?>
<!-- Generator: Adobe Illustrator 24.1.1, SVG Export Plug-In . SVG Version: 6.00 Build 0)  -->
<svg version="1.1" id="Layer_1" xmlns="http://www.w3.org/2000/svg" xmlns:xlink="http://www.w3.org/1999/xlink" x="0px" y="0px"
	 viewBox="0 0 60 60" style="enable-background:new 0 0 60 60;" xml:space="preserve">
<style type="text/css">
	.st0{opacity:0.2;}
	.st1{opacity:0.25;}
	.st2{fill:#FFFFFF;}
	.st3{font-family:'MyriadPro-Bold';}
	.st4{font-size:6.2384px;}
	.st5{fill:none;stroke:#000000;stroke-width:0.5;stroke-linecap:round;stroke-linejoin:round;stroke-miterlimit:10;}
	.st6{stroke:#000000;stroke-width:0.25;stroke-miterlimit:10;}
	.st7{fill:#4D4D4D;}
	.st8{fill:none;stroke:#000000;stroke-width:1.25;stroke-linecap:round;stroke-miterlimit:10;}
</style>
<g>
	<path d="M47.13,8.55c-0.09-0.1-0.2-0.18-0.33-0.23L35.56,3.68c-0.16-0.07-0.34-0.09-0.51-0.07L32.12,4.2
		C31,4.42,30.15,4.54,30,4.54c-0.15,0-1-0.12-2.13-0.34l-2.92-0.59c-0.17-0.03-0.35,0-0.51,0.07L13.22,8.31
		c-0.12,0.05-0.24,0.13-0.33,0.23C1.69,20.7,0.42,30.47,0.37,30.88c-0.01,0.08-0.01,0.16,0,0.24l3.24,22.65
		c0.23,1.49,1.5,2.6,3.01,2.63h3.41c1.53,0,2.78-1.24,2.78-2.78l0.06-18.02c0.01-0.07,0.01-0.14,0-0.21l0,0l2.32-4.63v20.21
		c0,0.23,0.08,0.45,0.24,0.62c3.05,3.43,3.76,3.89,7.98,3.89h1.59c1.32,0,8.44,0.03,9.67,0.06c0.89,0,1.64,0.03,2.32,0.03
		c3.37,0,4.34-0.43,6.24-2.45c-0.65-0.11-1.26-0.4-1.76-0.83c-1.32,1.33-2,1.43-4.48,1.43c-0.64,0-1.39,0-2.26-0.03
		c-1.25,0-8.39-0.07-9.72-0.06h-1.57c-2.97,0-3.7-0.17-5.29-1.85h22.82c-0.2-0.25-0.38-0.54-0.51-0.83l-0.46-1.02h-9.06V22.98
		c0.82-1.29,1.56-2.62,2.22-3.99c0.3-0.56,0.62-1.18,0.96-1.83c-0.67,0.27-1.43,0.27-2.1,0l-0.5,0.96c-0.53,1-1.1,2.09-1.52,2.85
		c-0.33-0.63-0.76-1.5-1.15-2.32c-1.85-3.8-4.6-9.42-7.47-11.73l3.51-1.45l2.65,0.52c0.82,0.18,1.64,0.31,2.48,0.4
		c0.83-0.08,1.66-0.2,2.48-0.37l2.65-0.52l3.24,1.34c-0.14,0.15-0.29,0.31-0.44,0.49c0.61,0.2,1.2,0.47,1.75,0.8
		c0.17-0.19,0.36-0.36,0.57-0.51l5.65,2.34c10,10.93,11.7,19.96,11.87,21.04l-0.81,5.69l1.39,3.27l1.28-8.83
		c0.01-0.08,0.01-0.16,0-0.24C59.58,30.47,58.31,20.7,47.13,8.55z M10.02,54.55H6.62c-0.59-0.03-1.08-0.46-1.19-1.04l-0.05-0.35
		h5.58v0.46C10.96,54.13,10.54,54.55,10.02,54.55C10.03,54.55,10.03,54.55,10.02,54.55z M19.78,8.08c2.63,1.67,5.61,7.77,7.41,11.4
		c0.96,1.96,1.45,3.01,1.88,3.54v26.89H17.04v-23.1c0-0.51-0.42-0.93-0.93-0.93c-0.35,0-0.67,0.2-0.83,0.51l-3.8,7.58l-1.71-1.32
		l-1.22-1.85c-0.29-0.43-0.87-0.54-1.29-0.25C6.83,30.85,6.71,31.43,7,31.86l1.31,1.97c0.06,0.09,0.13,0.16,0.21,0.23l2.5,1.89
		L10.96,51.3H5.11L2.22,30.99C2.39,29.9,4.07,20.88,14.09,9.96l5.37-2.22C19.53,7.88,19.64,8,19.78,8.08z"/>
	<path d="M54.89,51.3h-6.83c-0.51,0-0.93,0.42-0.92,0.93c0,0.11,0.02,0.21,0.05,0.31v1.08c0,1.53,1.24,2.78,2.78,2.78h3.41
		c1.52-0.02,2.79-1.13,3.03-2.63l0.93-6.6l-2,0.93L54.89,51.3z M53.39,54.55h-3.41c-0.51,0-0.93-0.41-0.93-0.93v-0.46h5.59
		l-0.05,0.35C54.48,54.09,53.98,54.52,53.39,54.55L53.39,54.55z"/>
	<path d="M48.83,22.44c-0.52-1.07-1.41-1.91-2.5-2.38l-2.47-0.9c-0.02,0.5-0.06,0.99-0.08,1.44c0,0.16-0.02,0.32-0.04,0.46
		l1.95,0.71c0.61,0.3,1.12,0.79,1.44,1.39l8.8,20.46c0.02,0.04,0,0.09-0.03,0.13l-12.06,5.7l-9.02-20.67
		c-0.23-0.68-0.25-1.42-0.06-2.11l2.9-7.73c0.01-0.02,0.03-0.04,0.05-0.05l0.58,0.21c0.05-0.68,0.05-1.34,0.05-1.97
		c-0.19-0.07-0.4-0.1-0.6-0.1c-0.8,0-1.51,0.5-1.79,1.25l-2.92,7.74c-0.36,1.15-0.33,2.38,0.09,3.51l9.02,20.67
		c0.39,0.92,1.45,1.35,2.37,0.96c0.02-0.01,0.05-0.02,0.07-0.03l12.09-5.7c0.93-0.46,1.34-1.58,0.93-2.53L48.83,22.44z"/>
	<path d="M50.15,35.47c-0.23-0.26-0.59-0.37-0.93-0.28l-2.09,0.56l-1.66-1.39c-0.39-0.33-0.98-0.27-1.3,0.13
		c-0.13,0.15-0.2,0.35-0.21,0.55l-0.1,2.11l-1.85,1.12c-0.44,0.27-0.57,0.84-0.31,1.27c0.11,0.18,0.27,0.31,0.47,0.38l2.02,0.75
		l0.51,2.05c0.13,0.5,0.63,0.8,1.13,0.67c0.19-0.05,0.36-0.16,0.49-0.31l1.35-1.66l2.16,0.15c0.51,0.04,0.95-0.35,0.99-0.86
		c0.01-0.21-0.04-0.41-0.15-0.58l-1.18-1.76l0.81-1.95C50.43,36.1,50.37,35.73,50.15,35.47z M47.33,39.55
		c-0.3-0.02-0.59,0.1-0.78,0.34l-0.49,0.6l-0.19-0.73c-0.08-0.3-0.3-0.54-0.6-0.64l-0.69-0.25l0.62-0.38
		c0.27-0.15,0.44-0.43,0.46-0.75l0.04-0.75l0.6,0.5c0.23,0.19,0.54,0.26,0.83,0.18l0.74-0.2l-0.28,0.67
		c-0.12,0.29-0.09,0.61,0.09,0.87l0.4,0.6L47.33,39.55z"/>
	<path d="M34.08,10.68c1.48-0.32,3.03,0.05,4.2,1.01c2.22,2.23,1.98,5.8,1.79,8.67c-0.03,0.46-0.06,0.89-0.13,1.32
		c-1.53,0.14-2.66,1.48-2.52,3.01c0.14,1.53,1.48,2.66,3.01,2.52c1.53-0.14,2.66-1.48,2.52-3.01c-0.07-0.83-0.52-1.59-1.22-2.06
		c0.09-0.55,0.14-1.1,0.18-1.67c0.2-3.07,0.46-7.27-2.32-10.1c-1.2-1.21-3.91-2.09-6.02-1.49c-1.28,0.32-2.27,1.34-2.55,2.63
		c-0.37,1.48,0.25,3.04,1.55,3.85c0.41,0.31,0.99,0.24,1.3-0.17c0.31-0.41,0.24-0.99-0.17-1.3c-0.05-0.04-0.11-0.08-0.18-0.11
		c-0.62-0.39-0.91-1.14-0.71-1.85C32.96,11.31,33.45,10.82,34.08,10.68z M40.19,25.37c-0.51,0-0.93-0.41-0.93-0.93
		c0-0.51,0.41-0.93,0.93-0.93s0.93,0.41,0.93,0.93C41.11,24.96,40.7,25.37,40.19,25.37z"/>
	<text transform="matrix(0 -1 1 0 24.4976 47.1647)" class="st3 st4">Brand logo</text>
</g>
</svg>
