<?xml version="1.0" encoding="utf-8"?>
<!-- Generator: Adobe Illustrator 24.1.1, SVG Export Plug-In . SVG Version: 6.00 Build 0)  -->
<svg version="1.1" id="Layer_1" xmlns="http://www.w3.org/2000/svg" xmlns:xlink="http://www.w3.org/1999/xlink" x="0px" y="0px"
	 viewBox="0 0 60 60" style="enable-background:new 0 0 60 60;" xml:space="preserve">
<style type="text/css">
	.st0{opacity:0.2;}
	.st1{opacity:0.25;}
	.st2{fill:#FFFFFF;}
	.st3{fill:none;stroke:#000000;stroke-width:0.5;stroke-linecap:round;stroke-linejoin:round;stroke-miterlimit:10;}
	.st4{stroke:#000000;stroke-width:0.25;stroke-miterlimit:10;}
	.st5{fill:#4D4D4D;}
	.st6{fill:none;stroke:#000000;stroke-width:1.25;stroke-linecap:round;stroke-miterlimit:10;}
</style>
<g>
	<g>
		<path d="M47.38,22.52c0.36,0,0.6,0,0.83,0c2.82,0,5.65,0,8.47,0c0.77,0,1.46,0.19,2,0.79c0.39,0.43,0.62,0.92,0.61,1.52
			c-0.01,0.8,0,1.6,0,2.4c0,7.51,0,15.03,0,22.54c0,0.54-0.08,1.02-0.4,1.47c-0.44,0.62-1.02,0.93-1.77,0.99
			c-0.14,0.01-0.28,0-0.42,0c-5.25,0-10.5-0.04-15.75,0.02c-1.54,0.02-2.69-1.2-2.63-2.62c0.06-1.68,0.01-3.37,0.01-5.05
			c0-0.22,0-0.43,0-0.63c-0.5-0.19-8.9-0.22-9.55-0.04c-0.13,1.18-0.06,2.33,0.54,3.41c0.47,0.83,1.27,1.11,2.15,1.26
			c0.17,0.03,0.34,0.1,0.51,0.16c0,0.06,0.01,0.12,0.01,0.18c-0.14,0.06-0.28,0.17-0.43,0.18c-0.38,0.03-0.76,0.01-1.14,0.01
			c-4.53,0-9.06,0-13.58,0c-0.18,0-0.37,0.01-0.54-0.03c-0.11-0.03-0.19-0.15-0.36-0.28c0.21-0.1,0.32-0.18,0.44-0.2
			c0.25-0.06,0.52-0.07,0.77-0.14c0.66-0.19,1.19-0.55,1.53-1.17c0.59-1.07,0.6-2.21,0.49-3.43c-0.29-0.02-0.54-0.05-0.79-0.05
			c-3.89,0-7.77,0.01-11.66-0.01c-1.44-0.01-2.82-0.27-3.99-1.24c-1.27-1.06-2.02-2.38-2.02-4.05C0.7,33.45,0.71,28.38,0.71,23.31
			c0-3.37,0.03-6.73-0.01-10.1c-0.03-2.53,1.83-4.88,4.46-5.35c0.41-0.07,0.83-0.12,1.25-0.12c11.74-0.01,23.48-0.01,35.22,0
			c2.02,0,3.65,0.8,4.8,2.49c0.67,0.99,0.94,2.11,0.95,3.3c0,2.72,0,5.45,0,8.17C47.38,21.94,47.38,22.18,47.38,22.52z M3.63,14.53
			c0,0.28,0,0.47,0,0.67c0,5.95,0,11.9,0,17.85c0,1.77,1.03,2.8,2.81,2.8c10.4,0,20.8,0,31.19,0c0.21,0,0.43-0.03,0.71-0.05
			c0-0.29,0-0.53,0-0.76c0-3.29,0.04-6.57-0.02-9.86c-0.03-1.5,1.03-2.7,2.66-2.67c0.88,0.02,1.76,0.01,2.64,0
			c0.21,0,0.43-0.03,0.62-0.04c0.17-0.69,0.14-7.51-0.03-7.95C30.73,14.53,17.24,14.53,3.63,14.53z M38.31,36.37
			c-0.36,0-0.64,0-0.91,0c-9.04,0-18.07,0-27.11,0c-1.4,0-2.81,0.03-4.21-0.02c-0.46-0.02-0.96-0.15-1.37-0.37
			c-1.05-0.57-1.6-1.48-1.6-2.69c0-6.09,0-12.18,0-18.27c0-0.6-0.01-1.2,0-1.8c0.02-0.91,0.4-1.65,1.12-2.23
			c0.69-0.56,1.49-0.73,2.35-0.73c11.64,0,23.28,0,34.92,0c0.12,0,0.24-0.01,0.36,0c1.25,0.11,2.21,0.63,2.76,1.81
			c0.25,0.54,0.34,1.1,0.34,1.69c0,2.66,0,5.33,0,7.99c0,0.23,0.03,0.46,0.06,0.72c0.59,0,1.12,0,1.67,0
			c0.02-0.2,0.06-0.35,0.06-0.51c0-3.05,0.01-6.09-0.01-9.14c0-0.73-0.23-1.42-0.61-2.05c-1-1.64-2.46-2.44-4.4-2.43
			c-6.25,0.02-12.5,0.01-18.75,0.01c-5.69,0-11.38-0.01-17.07,0.01c-1.59,0.01-2.84,0.73-3.77,2.01c-0.65,0.89-0.92,1.9-0.92,2.99
			c0,5.41,0,10.82,0,16.23c0,2.92-0.01,5.85,0,8.77c0.01,2.66,2.18,4.83,4.82,4.83c10.54,0.01,21.08,0,31.61,0
			c0.21,0,0.42-0.04,0.64-0.06C38.31,40.87,38.31,38.67,38.31,36.37z M38.96,37.37c0,4.05,0,8.09,0,12.14
			c0,0.22-0.01,0.44,0.01,0.66c0.05,0.68,0.52,1.27,1.18,1.43c0.35,0.08,0.71,0.12,1.07,0.12c5.11,0.01,10.21,0,15.32,0
			c0.16,0,0.32,0.01,0.48,0c1-0.07,1.71-0.78,1.76-1.79c0.01-0.16,0-0.32,0-0.48c0-8.05,0-16.1,0-24.15c0-0.18,0.01-0.36-0.01-0.54
			c-0.07-0.72-0.43-1.25-1.11-1.51c-0.22-0.08-0.47-0.11-0.7-0.11c-5.39-0.01-10.77,0-16.16,0c-0.12,0-0.24,0-0.36,0.01
			c-0.52,0.07-0.93,0.31-1.24,0.76c-0.25,0.36-0.24,0.75-0.24,1.15C38.96,29.16,38.96,33.27,38.96,37.37z M44.49,13.95
			c-0.1-0.9-0.1-1.72-0.76-2.38c-0.6-0.59-1.31-0.81-2.12-0.81c-11.74,0-23.48,0-35.22,0.01c-0.47,0-0.96,0.12-1.4,0.29
			c-1.04,0.4-1.62,1.79-1.23,2.89C17.28,13.95,30.81,13.95,44.49,13.95z M18.39,48.57c2.34,0.15,10.76,0.07,11.29-0.14
			c-0.17-0.12-0.33-0.2-0.43-0.31c-0.68-0.74-1-1.6-0.91-2.62c0.05-0.61,0.01-1.22,0.01-1.86c-2.94,0-5.79,0-8.7,0
			c0,0.68,0,1.31,0,1.95c0,0.29,0.02,0.6-0.04,0.88C19.43,47.26,19.04,47.95,18.39,48.57z"/>
		<path d="M22.09,22.88c-0.26,0.05-0.48,0.13-0.71,0.13c-4.83,0.01-9.65,0.01-14.48,0c-0.19,0-0.38-0.06-0.66-0.1
			c-0.01-2.07-0.01-4.1,0-6.17c0.3-0.04,0.51-0.1,0.73-0.1c4.79,0,9.57-0.01,14.36,0c0.25,0,0.49,0.07,0.77,0.12
			C22.09,18.83,22.09,20.82,22.09,22.88z M21.48,17.32c-0.92-0.14-14.22-0.09-14.68,0.05c0,1.64,0,3.29,0,4.92
			c0.6,0.16,14.17,0.15,14.68-0.01C21.48,20.64,21.48,19,21.48,17.32z"/>
		<path d="M24.86,25.66c0,2.74,0,5.38,0,8.07c-0.24,0.04-0.45,0.1-0.65,0.1c-2.26,0.01-4.53,0.01-6.79,0
			c-0.21,0-0.42-0.06-0.67-0.09c0-2.69,0-5.33,0-8.06c0.23-0.05,0.47-0.14,0.71-0.14c2.22-0.01,4.45-0.01,6.67,0
			C24.36,25.54,24.59,25.61,24.86,25.66z M24.39,33.18c0-2.38,0-4.67,0-6.98c-2.43,0-4.76,0-7.08,0c-0.16,0.73-0.12,6.55,0.04,6.98
			C19.66,33.18,21.97,33.18,24.39,33.18z"/>
		<path d="M27.28,33.73c-0.15-0.48-0.18-7.33-0.03-8.07c0.19-0.04,0.42-0.12,0.64-0.12c2.24-0.01,4.49-0.01,6.73,0
			c0.23,0,0.45,0.08,0.64,0.12c0.15,0.71,0.12,7.59-0.02,8.03C34.82,33.87,27.95,33.91,27.28,33.73z M27.73,26.19
			c0,2.37,0,4.66,0,6.99c2.38,0,4.71,0,7.12,0c-0.01-2.36,0.03-4.66-0.03-6.99C32.41,26.19,30.1,26.19,27.73,26.19z"/>
		<g>
			<path d="M10.34,26.05c1.09,0,2.18,0,3.27,0.01c0.08,0,0.17,0.01,0.27,0.03v7.23c-0.01,0-0.01,0-0.01,0c-1.19,0-2.39,0-3.58,0
				c-1.15,0-2.3,0-3.45,0c-0.1-1.27-0.15-5.74-0.05-7.23c0.1-0.02,0.19-0.03,0.28-0.03C8.16,26.05,9.25,26.05,10.34,26.05
				 M10.34,25.53c-1.09,0-2.18,0-3.27,0.01c-0.25,0-0.5,0.07-0.75,0.1c-0.18,1.03-0.11,7.72,0.06,8.14c0.1,0.02,0.22,0.05,0.34,0.05
				c1.19,0,2.38,0,3.56,0c1.19,0,2.39,0,3.58,0c0.17,0,0.34-0.07,0.53-0.11c0-2.71,0-5.36,0-8.08c-0.29-0.04-0.53-0.11-0.78-0.11
				C12.52,25.54,11.43,25.53,10.34,25.53L10.34,25.53z"/>
		</g>
		<path class="st0" d="M13.9,26.1c-0.95-0.17-6.77-0.1-7.17,0.06c-0.17,0.63-0.13,6.65,0.08,7.18c2.32-0.01,4.69,0.02,7.09-0.02
			C13.9,30.87,13.9,28.5,13.9,26.1z"/>
		<path d="M39.78,35.9c0-3.18,0-6.37,0-9.55c0-0.18-0.01-0.36,0-0.54c0.05-0.9,0.68-1.53,1.57-1.6c0.16-0.01,0.32-0.01,0.48-0.01
			c4.69,0,9.37,0,14.06,0c0.16,0,0.32-0.01,0.48,0.01c0.69,0.05,1.31,0.55,1.46,1.22c0.07,0.31,0.11,0.63,0.11,0.95
			c0.01,6.33,0,12.66,0,18.98c0,0.22-0.01,0.44-0.04,0.66c-0.18,1.05-0.75,1.52-1.82,1.53c-2.7,0-5.41,0-8.11,0
			c-2.16,0-4.33,0-6.49,0c-0.81,0-1.39-0.38-1.62-1.09c-0.08-0.24-0.09-0.51-0.09-0.77C39.78,42.43,39.78,39.16,39.78,35.9z
			 M57.34,35.93c0-3.22,0-6.45,0-9.67c0-0.18,0.01-0.36-0.01-0.54c-0.05-0.53-0.35-0.84-0.88-0.9c-0.2-0.02-0.4-0.01-0.6-0.01
			c-4.69,0-9.37,0-14.06,0c-0.16,0-0.32,0-0.48,0c-0.47,0-0.75,0.26-0.9,0.67c-0.08,0.22-0.11,0.47-0.11,0.7
			c-0.01,6.47-0.01,12.94,0,19.4c0,1.05,0.41,1.44,1.47,1.44c4.69,0,9.37,0,14.06,0c1.17,0,1.51-0.33,1.51-1.49
			C57.34,42.34,57.34,39.14,57.34,35.93z"/>
		<g>
			<path d="M47.43,26.35v0.52c3.44,0,6.79,0.06,7.92,0.13v10.39c-0.06,0.01-0.11,0.01-0.15,0.01c-2.28,0-4.56,0-6.83,0l-5.66,0
				c-0.06,0-0.12,0-0.19-0.01c-0.02-0.08-0.03-0.15-0.03-0.21c-0.01-3.36-0.01-6.73,0-10.09c0-0.05,0.01-0.1,0.02-0.16
				c0.67-0.04,2.3-0.07,4.93-0.07V26.35 M47.43,26.35c-2.64,0-4.97,0.04-5.36,0.12c-0.04,0.21-0.11,0.42-0.11,0.63
				c-0.01,3.36-0.01,6.73,0,10.09c0,0.22,0.09,0.45,0.14,0.69c0.25,0.02,0.43,0.04,0.6,0.04c1.89,0,3.77,0,5.66,0
				c2.28,0,4.56,0,6.83,0c0.21,0,0.42-0.06,0.67-0.09c0-3.81,0-7.56,0-11.29C55.6,26.42,51.2,26.35,47.43,26.35L47.43,26.35z"/>
		</g>
	</g>
	<path class="st0" d="M55.34,37.38c0.14-0.77,0.1-9.99-0.02-10.43c-0.64-0.15-12.25-0.12-12.68,0.04
		c-0.13,0.68-0.09,9.91,0.05,10.39C46.89,37.38,51.1,37.38,55.34,37.38z"/>
</g>
<line class="st3" x1="24.39" y1="21.93" x2="37.18" y2="21.93"/>
<line class="st3" x1="42.59" y1="42.43" x2="51.29" y2="42.43"/>
<line class="st3" x1="42.59" y1="40.36" x2="53.48" y2="40.36"/>
<line class="st3" x1="24.39" y1="17.24" x2="37.18" y2="17.24"/>
<line class="st3" x1="24.39" y1="19.58" x2="38.96" y2="19.58"/>
<circle class="st3" cx="49.64" cy="49.54" r="1.02"/>
<circle class="st3" cx="23.99" cy="39.9" r="1.58"/>
</svg>
