<svg width="33" height="33" viewBox="0 0 33 33" fill="none" xmlns="http://www.w3.org/2000/svg">
<circle cx="16.413" cy="16.413" r="16.413" fill="#3C3B6E"/>
<path d="M9.19141 16.4131C9.19141 12.4247 12.4247 9.19141 16.4131 9.19141C20.4016 9.19141 23.6349 12.4247 23.6349 16.4131C23.6349 20.4016 20.4016 23.6349 16.4131 23.6349C12.4247 23.6349 9.19141 20.4016 9.19141 16.4131Z" fill="#3C3B6E"/>
<path d="M13.4383 9.19141C11.1071 9.19141 9.19141 11.1046 9.19141 13.4383V19.388C9.19141 21.7192 11.1046 23.6349 13.4383 23.6349H19.388C21.7192 23.6349 23.6349 21.7217 23.6349 19.388V13.4383C23.6349 11.1071 21.7217 9.19141 19.388 9.19141H13.4383ZM13.4383 10.5044H19.388C21.0114 10.5044 22.3218 11.8149 22.3218 13.4383V19.388C22.3218 21.0114 21.0114 22.3218 19.388 22.3218H13.4383C11.8149 22.3218 10.5044 21.0114 10.5044 19.388V13.4383C10.5044 11.8149 11.8149 10.5044 13.4383 10.5044ZM20.2907 11.9406C19.9599 11.9406 19.6958 12.2047 19.6958 12.5356C19.6958 12.8664 19.9599 13.1305 20.2907 13.1305C20.6216 13.1305 20.8857 12.8664 20.8857 12.5356C20.8857 12.2047 20.6216 11.9406 20.2907 11.9406ZM16.4131 12.474C14.2461 12.474 12.474 14.2461 12.474 16.4131C12.474 18.5802 14.2461 20.3523 16.4131 20.3523C18.5802 20.3523 20.3523 18.5802 20.3523 16.4131C20.3523 14.2461 18.5802 12.474 16.4131 12.474ZM16.4131 13.7871C17.8724 13.7871 19.0392 14.9539 19.0392 16.4131C19.0392 17.8724 17.8724 19.0392 16.4131 19.0392C14.9539 19.0392 13.7871 17.8724 13.7871 16.4131C13.7871 14.9539 14.9539 13.7871 16.4131 13.7871Z" fill="#E4B335"/>
</svg>
