<svg width="18" height="20" viewBox="0 0 18 20" fill="none" xmlns="http://www.w3.org/2000/svg">
<path d="M7.92857 6.83333C7.92857 9.24571 9.94727 11.2083 12.4286 11.2083C14.9099 11.2083 16.9286 9.24571 16.9286 6.83333C16.9286 4.42096 14.9099 2.45833 12.4286 2.45833C9.94727 2.45833 7.92857 4.42096 7.92857 6.83333ZM16.2429 6.83333C16.2429 8.87813 14.5318 10.5417 12.4286 10.5417C10.3254 10.5417 8.61429 8.87813 8.61429 6.83333C8.61429 4.78854 10.3254 3.125 12.4286 3.125C14.5318 3.125 16.2429 4.78854 16.2429 6.83333ZM12.4286 4.58333C12.6179 4.58333 12.7714 4.73258 12.7714 4.91667V5.05733C13.1705 5.19496 13.4571 5.56546 13.4571 6C13.4571 6.18408 13.3036 6.33333 13.1143 6.33333C12.9249 6.33333 12.7714 6.18408 12.7714 6C12.7714 5.81621 12.6176 5.66667 12.4286 5.66667C12.2395 5.66667 12.0857 5.81621 12.0857 6V6.13488C12.0857 6.28146 12.1824 6.40929 12.3263 6.45304L12.7353 6.57729C13.1671 6.7085 13.4571 7.09208 13.4571 7.53179V7.66667C13.4571 8.14663 13.1075 8.54858 12.6429 8.64471V8.75C12.6429 8.93408 12.4893 9.08333 12.3 9.08333C12.1107 9.08333 11.9571 8.93408 11.9571 8.75V8.555C11.6265 8.3885 11.4 8.05292 11.4 7.66667C11.4 7.48258 11.5535 7.33333 11.7429 7.33333C11.9322 7.33333 12.0857 7.48258 12.0857 7.66667C12.0857 7.85046 12.2395 8 12.4286 8C12.6176 8 12.7714 7.85046 12.7714 7.66667V7.53179C12.7714 7.38521 12.6747 7.25738 12.5308 7.21362L12.1218 7.08938C11.6901 6.95817 11.4 6.57458 11.4 6.13488V6C11.4 5.56546 11.6867 5.19496 12.0857 5.05733V4.91667C12.0857 4.73258 12.2392 4.58333 12.4286 4.58333ZM18 13.4167V17.6667C18 18.9533 16.9233 20 15.6 20H2.4C1.07666 20 0 18.9533 0 17.6667V1.33333C0 0.598125 0.615214 0 1.37143 0H12.5143C13.2705 0 13.8857 0.598125 13.8857 1.33333C13.8857 1.51742 13.7322 1.66667 13.5429 1.66667C13.3535 1.66667 13.2 1.51742 13.2 1.33333C13.2 0.96575 12.8924 0.666667 12.5143 0.666667H1.37143C0.993343 0.666667 0.685714 0.96575 0.685714 1.33333V17.6667C0.685714 18.5857 1.45474 19.3333 2.4 19.3333H13.9227C13.4772 18.9095 13.2 18.3191 13.2 17.6667V12.4583C13.2 12.2743 13.3535 12.125 13.5429 12.125C13.7322 12.125 13.8857 12.2743 13.8857 12.4583V17.6667C13.8857 18.5857 14.6547 19.3333 15.6 19.3333C16.5453 19.3333 17.3143 18.5857 17.3143 17.6667V13.4167C17.3143 13.0491 17.0067 12.75 16.6286 12.75H15.1714C14.9821 12.75 14.8286 12.6007 14.8286 12.4167C14.8286 12.2326 14.9821 12.0833 15.1714 12.0833H16.6286C17.3848 12.0833 18 12.6815 18 13.4167ZM3 8.95833C3 8.77425 3.15351 8.625 3.34286 8.625H6.25714C6.44649 8.625 6.6 8.77425 6.6 8.95833C6.6 9.14242 6.44649 9.29167 6.25714 9.29167H3.34286C3.15351 9.29167 3 9.14242 3 8.95833ZM3 5.20833C3 5.02425 3.15351 4.875 3.34286 4.875H6.25714C6.44649 4.875 6.6 5.02425 6.6 5.20833C6.6 5.39242 6.44649 5.54167 6.25714 5.54167H3.34286C3.15351 5.54167 3 5.39242 3 5.20833ZM10.8857 12.7083C10.8857 12.8924 10.7322 13.0417 10.5429 13.0417H3.34286C3.15351 13.0417 3 12.8924 3 12.7083C3 12.5243 3.15351 12.375 3.34286 12.375H10.5429C10.7322 12.375 10.8857 12.5243 10.8857 12.7083ZM10.8857 16.2083C10.8857 16.3924 10.7322 16.5417 10.5429 16.5417H3.34286C3.15351 16.5417 3 16.3924 3 16.2083C3 16.0243 3.15351 15.875 3.34286 15.875H10.5429C10.7322 15.875 10.8857 16.0243 10.8857 16.2083Z" fill="#A9A9A9"/>
</svg>
