<svg xmlns="http://www.w3.org/2000/svg" xmlns:xlink="http://www.w3.org/1999/xlink" viewBox="0 0 136.39 132.98"><defs><style>.cls-1{fill:url(#radial-gradient);}.cls-2{fill:#ff7f18;}</style><radialGradient id="radial-gradient" cx="5119.17" cy="-374.36" r="0.04" gradientTransform="matrix(2291.67, 0, 0, -2218.75, -11731410.59, -830575.18)" gradientUnits="userSpaceOnUse"><stop offset="0" stop-color="#423325" stop-opacity="0.98"/><stop offset="1" stop-color="#1c0a00"/></radialGradient></defs><title>adobe-illustrator-icon</title><g id="Layer_2" data-name="Layer 2"><g id="Website"><path class="cls-1" d="M5.68,5.68h125V127.3H5.68Z"/><path class="cls-2" d="M5.68,5.68h125V127.3H5.68ZM0,133H136.39V0H0ZM89.34,47.4c0-.46.17-.69.68-.69h8.92c.46,0,.68.17.68.69V92.24c0,.45-.11.68-.68.68H90.13c-.57,0-.74-.29-.74-.74V47.4Zm-.63-12.9a5.8,5.8,0,1,1,11.6,0c0,3.75-2.45,5.79-5.91,5.79C91.1,40.29,88.71,38.25,88.71,34.5ZM63.14,66.09C61.55,59.79,57.8,46,56.38,39.38h-.12c-1.19,6.65-4.2,17.9-6.59,26.71ZM47.34,75.3l-4.49,17c-.11.45-.28.57-.85.57H33.64c-.56,0-.68-.17-.56-.85L49.22,35.58a18.69,18.69,0,0,0,.56-4.72c0-.4.17-.57.46-.57H62.17c.4,0,.57.11.68.57L80.93,92.18c.11.45,0,.74-.46.74H71c-.46,0-.74-.12-.85-.51L65.53,75.3Z"/></g></g></svg>