<svg width="50" height="60" viewBox="0 0 50 60" fill="none" xmlns="http://www.w3.org/2000/svg">
<path d="M10.5926 8.83668C10.4442 8.56346 10.4115 8.24306 10.5016 7.94595C10.5917 7.64884 10.7974 7.39934 11.0733 7.25234L11.8334 6.84723C11.9702 6.77194 12.1208 6.72432 12.2763 6.70712C12.4319 6.68993 12.5893 6.70352 12.7395 6.74709C12.8897 6.79066 13.0297 6.86335 13.1513 6.96093C13.2729 7.05852 13.3737 7.17905 13.4478 7.31554C13.522 7.45202 13.568 7.60174 13.5832 7.75598C13.5984 7.91023 13.5826 8.06594 13.5365 8.21405C13.4904 8.36217 13.4151 8.49975 13.3149 8.6188C13.2147 8.73785 13.0916 8.836 12.9528 8.90754L12.1926 9.31265C12.056 9.3855 11.9062 9.43098 11.7519 9.44648C11.5975 9.46199 11.4416 9.44722 11.293 9.40301C11.1444 9.35881 11.006 9.28604 10.8859 9.18886C10.7657 9.09169 10.666 8.97201 10.5926 8.83668ZM49.9985 13.813C49.9937 13.6063 49.9336 13.4046 49.8244 13.2284C49.7151 13.0523 49.5607 12.908 49.3767 12.8102L25.559 0.138871C25.3871 0.0477036 25.195 0 25 0C24.805 0 24.613 0.0477036 24.441 0.138871L16.3904 4.4226C16.2499 4.49305 16.1251 4.5906 16.0233 4.7095C15.9215 4.8284 15.8446 4.96625 15.7974 5.11497C15.7501 5.26368 15.7333 5.42024 15.748 5.57547C15.7628 5.73069 15.8086 5.88143 15.883 6.01884C15.9574 6.15625 16.0588 6.27756 16.1812 6.37562C16.3036 6.47369 16.4445 6.54654 16.5957 6.5899C16.747 6.63326 16.9054 6.64625 17.0618 6.6281C17.2182 6.60996 17.3693 6.56105 17.5063 6.48424L25 2.49733L47.6309 14.5403C47.5296 18.7759 45.9958 42.196 25 57.3869C4.00423 42.196 2.47039 18.7759 2.36913 14.5403L8.0974 11.4919C8.37349 11.3451 8.57938 11.0958 8.66978 10.7986C8.76018 10.5015 8.72767 10.181 8.57942 9.90761C8.43117 9.63422 8.17931 9.43034 7.87925 9.34083C7.57919 9.25132 7.25551 9.2835 6.97942 9.4303L0.623304 12.8129C0.439356 12.9106 0.284886 13.055 0.175654 13.2311C0.0664219 13.4073 0.00633838 13.609 0.00153252 13.8156C-0.00656874 14.0998 -0.471042 42.4133 24.3175 59.7855C24.5172 59.9251 24.7556 60 25 60C25.2444 60 25.4829 59.9251 25.6825 59.7855C50.4677 42.4106 50.0066 14.0971 49.9985 13.813ZM33.5374 44.2536C33.6631 44.3436 33.8055 44.4081 33.9564 44.4435C34.1074 44.4789 34.2639 44.4845 34.417 44.46C34.5701 44.4355 34.7168 44.3813 34.8488 44.3006C34.9807 44.2199 35.0953 44.1142 35.186 43.9896C35.321 43.8033 35.456 43.6168 35.5911 43.43C35.6842 43.3045 35.7511 43.1618 35.7879 43.0104C35.8246 42.8589 35.8305 42.7017 35.8051 42.548C35.7797 42.3943 35.7236 42.2471 35.64 42.1151C35.5564 41.9832 35.4471 41.869 35.3184 41.7794C35.1898 41.6898 35.0443 41.6266 34.8906 41.5933C34.7369 41.5601 34.5781 41.5576 34.4234 41.5859C34.2687 41.6143 34.1213 41.6729 33.9898 41.7584C33.8583 41.8438 33.7453 41.9544 33.6576 42.0837C33.5306 42.2628 33.403 42.4413 33.2727 42.6185C33.1814 42.7429 33.1157 42.884 33.0796 43.0337C33.0434 43.1833 33.0375 43.3386 33.0621 43.4905C33.0866 43.6424 33.1413 43.788 33.2229 43.919C33.3044 44.05 33.4113 44.1637 33.5374 44.2536ZM36.7698 39.4712C37.0434 39.6222 37.3664 39.6596 37.6678 39.575C37.9692 39.4903 38.2244 39.2907 38.3772 39.02C42.2292 32.1384 44.5476 24.5195 45.1762 16.6761C45.1928 16.4507 45.1432 16.2254 45.0333 16.0273C44.9235 15.8292 44.7581 15.6669 44.5571 15.5597L25.559 5.45074C25.3871 5.35958 25.195 5.31187 25 5.31187C24.805 5.31187 24.613 5.35958 24.441 5.45074L5.44356 15.5591C5.2426 15.6662 5.07722 15.8286 4.96738 16.0267C4.85753 16.2248 4.80791 16.4501 4.82449 16.6755C5.33554 23.585 8.25132 41.0402 24.2574 53.8706C24.4677 54.0387 24.7298 54.1304 25 54.1304C25.2703 54.1304 25.5324 54.0387 25.7426 53.8706C28.1476 51.9439 30.3746 49.809 32.3971 47.4911C32.5026 47.3754 32.5836 47.24 32.6355 47.0929C32.6874 46.9457 32.709 46.7898 32.6992 46.6343C32.6894 46.4787 32.6483 46.3267 32.5783 46.1871C32.5083 46.0475 32.4108 45.9231 32.2916 45.8214C32.1724 45.7196 32.0338 45.6424 31.8841 45.5944C31.7344 45.5464 31.5764 45.5285 31.4196 45.5417C31.2628 45.555 31.1102 45.5991 30.9709 45.6716C30.8315 45.744 30.7082 45.8433 30.6081 45.9636C28.8883 47.9346 27.013 49.7672 25 51.444C10.9011 39.6978 7.87596 24.1887 7.24474 17.2584L25 7.80987L42.7553 17.2584C42.0647 24.4979 39.8711 31.5181 36.3121 37.8788C36.2365 38.0132 36.1884 38.1609 36.1705 38.3136C36.1526 38.4663 36.1653 38.621 36.2078 38.7689C36.2503 38.9168 36.3218 39.0549 36.4183 39.1754C36.5147 39.2959 36.6341 39.3964 36.7698 39.4712ZM19.6221 34.7657C19.4775 35.0409 19.4493 35.3618 19.5436 35.6576C19.638 35.9535 19.8471 36.2001 20.1251 36.3433C22.4276 37.5273 25.0893 37.8322 27.604 37.2C30.1188 36.5678 32.3112 35.0427 33.7646 32.9145C35.218 30.7863 35.8309 28.2034 35.4869 25.657C35.1428 23.1106 33.8659 20.7781 31.8987 19.103C29.9315 17.428 27.4112 16.5271 24.8171 16.5717C22.223 16.6163 19.7359 17.6032 17.8286 19.3449C15.9213 21.0865 14.7268 23.4615 14.4722 26.0182C14.2176 28.5749 14.9207 31.1351 16.4478 33.2121C16.5392 33.3362 16.6545 33.4413 16.7869 33.5213C16.9194 33.6013 17.0665 33.6548 17.2198 33.6785C17.3731 33.7022 17.5296 33.6959 17.6804 33.6597C17.8312 33.6235 17.9734 33.5583 18.0987 33.4678C18.2241 33.3772 18.3302 33.2631 18.411 33.1319C18.4919 33.0008 18.5458 32.8551 18.5698 32.7033C18.5938 32.5515 18.5873 32.3965 18.5508 32.2472C18.5143 32.0978 18.4484 31.9571 18.357 31.833C17.1741 30.223 16.6296 28.2389 16.8271 26.2576C17.0246 24.2763 17.9502 22.4358 19.4281 21.086C20.9061 19.7361 22.8333 18.9708 24.8436 18.9356C26.8539 18.9004 28.8072 19.5977 30.3324 20.8949C31.8576 22.1922 32.8484 23.9991 33.1166 25.9722C33.3847 27.9454 32.9115 29.9473 31.7868 31.5977C30.6622 33.248 28.9645 34.4318 27.0163 34.924C25.068 35.4162 23.0051 35.1827 21.2194 34.2676C21.0817 34.1964 20.9311 34.1528 20.7763 34.1393C20.6216 34.1258 20.4656 34.1427 20.3174 34.189C20.1693 34.2352 20.0318 34.31 19.9128 34.4089C19.7938 34.5079 19.6957 34.6291 19.6241 34.7657H19.6221ZM23.7274 31.1685H23.7868C23.9477 31.1605 24.1051 31.1201 24.2496 31.0496C24.394 30.9791 24.5223 30.8801 24.6267 30.7587L29.7089 24.8512C29.9106 24.6148 30.0095 24.309 29.984 24.0006C29.9585 23.6922 29.8106 23.4063 29.5728 23.2056C29.3349 23.0049 29.0264 22.9057 28.7149 22.9297C28.4033 22.9537 28.114 23.099 27.9104 23.3337L23.643 28.2939L22.0086 26.743C21.7814 26.5343 21.4805 26.4223 21.1708 26.4312C20.861 26.4401 20.5672 26.5692 20.3526 26.7906C20.138 27.012 20.0199 27.308 20.0237 27.6149C20.0275 27.9217 20.1529 28.2148 20.3728 28.431L22.9119 30.8429C23.1318 31.0518 23.4247 31.1684 23.7295 31.1685H23.7274Z" fill="black"/>
</svg>
