<svg width="16" height="20" viewBox="0 0 16 20" fill="none" xmlns="http://www.w3.org/2000/svg">
<path d="M15.9904 16.4929L15.0893 5.23836C15.0331 4.51328 14.4144 3.94527 13.6807 3.94527H11.9007V3.86598C11.9007 1.73426 10.1509 0 8.00005 0C5.84921 0 4.0994 1.73426 4.0994 3.86598V3.94527H2.31944C1.58569 3.94527 0.966951 4.51324 0.910985 5.23684L0.00953485 16.4944C-0.0602258 17.3958 0.255274 18.2932 0.87508 18.9564C1.49489 19.6196 2.37351 20 3.28565 20H12.7144C13.6265 20 14.5052 19.6196 15.125 18.9564C15.7448 18.2931 16.0603 17.3958 15.9904 16.4929ZM5.28139 3.86598C5.28139 2.38023 6.50102 1.17148 8.00005 1.17148C9.49908 1.17148 10.7187 2.38027 10.7187 3.86598V3.94527H5.28139V3.86598ZM14.2578 18.1604C13.8551 18.5912 13.307 18.8285 12.7144 18.8285H3.28569C2.69307 18.8285 2.145 18.5912 1.74228 18.1604C1.3396 17.7295 1.14277 17.1696 1.18802 16.5855L2.08939 5.32793C2.09853 5.20949 2.19959 5.11676 2.31944 5.11676H4.0994V6.55953C4.0994 6.88301 4.36402 7.14527 4.6904 7.14527C5.01677 7.14527 5.28139 6.88301 5.28139 6.55953V5.11676H10.7187V6.55953C10.7187 6.88301 10.9833 7.14527 11.3097 7.14527C11.6361 7.14527 11.9007 6.88301 11.9007 6.55953V5.11676H13.6807C13.8005 5.11676 13.9016 5.20953 13.9109 5.32949L14.812 16.584C14.8574 17.1696 14.6605 17.7294 14.2578 18.1604Z" fill="#A9A9A9"/>
<path d="M10.6626 9.93328C10.4318 9.70453 10.0576 9.70453 9.82684 9.93328L7.18792 12.5487L6.1732 11.543C5.94243 11.3143 5.56821 11.3143 5.33741 11.543C5.10661 11.7718 5.10661 12.1427 5.33741 12.3714L6.77002 13.7913C6.88542 13.9057 7.03669 13.9629 7.18788 13.9629C7.33907 13.9629 7.49037 13.9057 7.60573 13.7913L10.6625 10.7617C10.8934 10.5329 10.8934 10.162 10.6626 9.93328Z" fill="#A9A9A9"/>
</svg>
