<svg width="36" height="36" viewBox="0 0 36 36" fill="none" xmlns="http://www.w3.org/2000/svg">
<g clip-path="url(#clip0)">
<path d="M29.3481 15.4751V4.05943C29.3481 2.60138 28.1618 1.41504 26.7037 1.41504H2.79869C1.34064 1.41504 0.154297 2.60138 0.154297 4.05943V27.9645C0.154297 29.4228 1.34064 30.6089 2.79869 30.6089H18.1932C19.9878 33.0493 22.8782 34.6361 26.1327 34.6361C31.5642 34.6361 35.9829 30.2174 35.9829 24.7859C35.9829 20.4799 33.2054 16.811 29.3481 15.4751ZM12.1544 3.56767H17.348V9.50949L15.1506 8.63149C14.8942 8.52925 14.6082 8.52925 14.3518 8.63149L12.1544 9.50949V3.56767ZM2.79869 28.4562C2.52752 28.4562 2.30693 28.2356 2.30693 27.9645V4.05943C2.30693 3.78827 2.52752 3.56767 2.79869 3.56767H10.002V11.0987C10.002 11.4557 10.1791 11.7895 10.4746 11.9899C10.7704 12.19 11.146 12.2307 11.4776 12.0981L14.7512 10.7901L18.0251 12.0981C18.1539 12.1495 18.2894 12.1749 18.4242 12.1749C18.6363 12.1749 18.8471 12.1121 19.028 11.9899C19.3235 11.7895 19.5007 11.4557 19.5007 11.0987V3.56767H26.7037C26.9749 3.56767 27.1955 3.78827 27.1955 4.05943V14.9932C26.8464 14.9554 26.4919 14.9358 26.1327 14.9358C20.7012 14.9358 16.2825 19.3545 16.2825 24.7859C16.2825 26.0827 16.5348 27.3213 16.9921 28.4562H2.79869ZM26.1327 32.4835C21.8881 32.4835 18.4351 29.0303 18.4351 24.7859C18.4351 20.5414 21.8881 17.0884 26.1327 17.0884C30.377 17.0884 33.8302 20.5414 33.8302 24.7859C33.8302 29.0303 30.377 32.4835 26.1327 32.4835Z" fill="#FFE600"/>
<path d="M30.0517 23.7819H27.1373V20.8675C27.1373 20.2729 26.6553 19.791 26.0608 19.791C25.4665 19.791 24.9846 20.2729 24.9846 20.8675V24.8584C24.9846 25.4526 25.4665 25.9346 26.0608 25.9346H30.0517C30.6462 25.9346 31.1282 25.4526 31.1282 24.8584C31.1282 24.2638 30.6462 23.7819 30.0517 23.7819Z" fill="#FFE600"/>
</g>
<defs>
<clipPath id="clip0">
<rect width="35.8286" height="35.8286" fill="white" transform="translate(0.154297 0.0859375)"/>
</clipPath>
</defs>
</svg>
