<svg width="34" height="33" viewBox="0 0 34 33" fill="none" xmlns="http://www.w3.org/2000/svg">
<circle cx="16.8466" cy="16.413" r="16.413" fill="#3C3B6E"/>
<path d="M10.1528 20.9985L10.1529 20.9986C10.9034 22.1217 11.8446 22.9968 12.9807 23.6296C12.9979 23.1448 13.0508 22.7103 13.1432 22.3297C13.1433 22.3293 13.1434 22.3288 13.1435 22.3283L14.2166 17.7972C14.0405 17.3791 13.9618 16.8988 13.9618 16.3719C13.9618 15.6474 14.1465 15.0034 14.5462 14.4737C14.9467 13.9423 15.4795 13.6332 16.1266 13.6332C16.6224 13.6332 17.0655 13.8034 17.38 14.1882C17.6676 14.5397 17.7967 14.9688 17.7967 15.4382C17.7967 15.7281 17.7434 16.056 17.6515 16.4124L17.6514 16.4128C17.5623 16.7574 17.4471 17.1523 17.3067 17.5968L17.3067 17.5971C17.1696 18.0303 17.0749 18.3661 17.0192 18.6095L17.0191 18.61C16.9454 18.9303 17.0069 19.1562 17.1714 19.3495L17.1715 19.3497C17.3465 19.5556 17.5705 19.6628 17.8929 19.6628C18.4649 19.6628 18.9802 19.3629 19.4339 18.5748C19.8947 17.7743 20.1378 16.7812 20.1378 15.5731C20.1378 14.7092 19.8644 14.0455 19.3391 13.5358C18.8229 13.0351 18.0785 12.7546 17.0381 12.7546C15.8883 12.7546 14.999 13.1186 14.3217 13.8218C13.6279 14.5422 13.286 15.391 13.286 16.394C13.286 16.9674 13.4456 17.4154 13.7422 17.7708C13.9612 18.0295 14.058 18.3546 13.9673 18.7024L13.9629 18.7191L13.9574 18.7355C13.9574 18.7355 13.9568 18.7374 13.9554 18.7419L13.95 18.7603C13.9455 18.7762 13.9398 18.7969 13.9327 18.8233C13.9187 18.8759 13.9007 18.9461 13.8786 19.0348C13.8358 19.2059 13.8044 19.328 13.7863 19.3924C13.7391 19.5753 13.6322 19.8108 13.3844 19.9412C13.1292 20.0755 12.8688 20.0232 12.6899 19.9515L12.6839 19.9492L12.684 19.9491C11.9892 19.6604 11.4638 19.1566 11.1137 18.4647L10.1528 20.9985ZM10.1528 20.9985C9.25642 19.6578 8.80859 18.1687 8.80859 16.5182C8.80859 15.0373 9.1723 13.679 9.89912 12.4336C10.628 11.1846 11.6141 10.1985 12.8633 9.46942C14.1086 8.74262 15.4668 8.37891 16.9479 8.37891C18.4288 8.37891 19.7871 8.74262 21.0323 9.46942C22.2814 10.1985 23.2677 11.1846 23.9967 12.4328C24.7234 13.6784 25.0872 15.0365 25.0872 16.5175C25.0872 17.9985 24.7234 19.3566 23.9967 20.602C23.2676 21.8513 22.2815 22.8374 21.0324 23.5665C19.7871 24.2931 18.4288 24.6568 16.9479 24.6568C16.3799 24.6568 15.8194 24.5976 15.266 24.4788C15.5405 23.9812 15.74 23.5148 15.8561 23.0814L15.8564 23.0803C15.908 22.8856 16.0365 22.3849 16.2414 21.5808C16.343 21.6514 16.4512 21.7172 16.5651 21.7784C17.0364 22.032 17.5454 22.1587 18.0843 22.1587C19.0929 22.1587 20.0058 21.8708 20.8065 21.2938L20.8066 21.2937C21.6004 20.7214 22.2052 19.9393 22.6267 18.9665L22.6267 18.9665C23.0474 17.9953 23.2529 16.9137 23.2529 15.7304C23.2529 14.7831 23.0042 13.8928 22.5132 13.0674L22.5132 13.0673C22.017 12.2335 21.302 11.5631 20.3865 11.0526L20.3864 11.0525C19.4575 10.5347 18.4161 10.2806 17.2745 10.2806C16.4406 10.2806 15.6539 10.3959 14.9179 10.6303L14.9176 10.6304C14.1919 10.862 13.5595 11.174 13.03 11.5743C12.5156 11.963 12.0719 12.4126 11.7011 12.9217L11.7011 12.9217M10.1528 20.9985L11.7011 12.9217M11.7011 12.9217C11.3313 13.4295 11.0545 13.9623 10.8755 14.5201C10.6992 15.0695 10.6098 15.6235 10.6098 16.1803C10.6098 17.0251 10.7725 17.7909 11.1136 18.4646L11.7011 12.9217Z" fill="#3C3B6E" stroke="#E4B335"/>
</svg>
