<svg width="27" height="27" viewBox="0 0 27 27" fill="none" xmlns="http://www.w3.org/2000/svg">
<g clip-path="url(#clip0)">
<path d="M12.4245 17.9548C12.1335 17.9548 11.8748 17.8255 11.7131 17.6315L6.83026 12.3282C6.47455 11.9402 6.50693 11.3258 6.89494 10.9701C7.28296 10.6144 7.89739 10.6467 8.25309 11.0348L12.4568 15.5942L24.0981 3.98535C24.4861 3.59733 25.1005 3.59733 25.4562 3.98535C25.8119 4.37337 25.8442 4.98779 25.4562 5.3435L13.1036 17.6638C12.9419 17.8578 12.6833 17.9548 12.4245 17.9548Z" fill="#3BB54A"/>
<path d="M13.33 26.2C6.24821 26.2 0.459961 20.4117 0.459961 13.33C0.459961 6.24827 6.24821 0.459961 13.33 0.459961C13.8797 0.459961 14.3001 0.880348 14.3001 1.43003C14.3001 1.97972 13.8797 2.40011 13.33 2.40011C7.31533 2.40011 2.40017 7.31527 2.40017 13.3299C2.40017 19.3446 7.31533 24.2598 13.33 24.2598C19.3447 24.2598 24.2598 19.3446 24.2598 13.3299C24.2598 12.7802 24.6802 12.3599 25.2299 12.3599C25.7796 12.3599 26.2 12.7802 26.2 13.3299C26.2 20.4117 20.4117 26.2 13.33 26.2Z" fill="#3BB54A"/>
</g>
<defs>
<clipPath id="clip0">
<rect width="25.74" height="25.74" fill="white" transform="translate(0.459961 0.459961)"/>
</clipPath>
</defs>
</svg>
