<svg width="14" height="14" viewBox="0 0 14 14" fill="none" xmlns="http://www.w3.org/2000/svg">
<path d="M7.76134 13.6212H6.23874C6.14571 13.6212 6.05593 13.587 5.98655 13.525C5.91717 13.463 5.87305 13.3776 5.86263 13.2852L5.77882 12.5415C5.12679 12.3996 4.50533 12.1424 3.94369 11.7821L3.3589 12.2484C3.28617 12.3064 3.19463 12.3355 3.10177 12.3303C3.00891 12.3251 2.92123 12.2858 2.85547 12.22L1.77955 11.1428C1.71378 11.077 1.67452 10.9894 1.66929 10.8965C1.66405 10.8036 1.6932 10.7121 1.75117 10.6394L2.21753 10.0546C1.8572 9.49293 1.60003 8.87147 1.45812 8.21944L0.714418 8.13563C0.622197 8.12524 0.537011 8.08131 0.475061 8.01221C0.41311 7.94311 0.378716 7.85365 0.378418 7.76085V6.23825C0.378391 6.14522 0.412639 6.05544 0.47462 5.98606C0.536601 5.91668 0.62197 5.87257 0.714418 5.86215L1.45812 5.77834C1.60003 5.1263 1.8572 4.50484 2.21753 3.9432L1.75117 3.35917C1.6932 3.28644 1.66405 3.1949 1.66929 3.10204C1.67452 3.00918 1.71378 2.9215 1.77955 2.85574L2.8568 1.77906C2.92255 1.71329 3.01023 1.67403 3.1031 1.6688C3.19596 1.66356 3.2875 1.69272 3.36023 1.75069L3.94501 2.21704C4.50666 1.85671 5.12812 1.59954 5.78015 1.45763L5.86396 0.71393C5.87435 0.621708 5.91828 0.536523 5.98738 0.474572C6.05648 0.412622 6.14594 0.378227 6.23874 0.37793H7.76134C7.85437 0.377903 7.94415 0.412151 8.01353 0.474132C8.08291 0.536113 8.12703 0.621482 8.13745 0.71393L8.22126 1.45763C8.87329 1.59954 9.49475 1.85671 10.0564 2.21704L10.6412 1.75069C10.7139 1.69272 10.8054 1.66356 10.8983 1.6688C10.9912 1.67403 11.0789 1.71329 11.1446 1.77906L12.2205 2.85631C12.2863 2.92207 12.3256 3.00975 12.3308 3.10261C12.336 3.19547 12.3069 3.28701 12.2489 3.35974L11.7826 3.94452C12.1429 4.50617 12.4001 5.12763 12.542 5.77966L13.2857 5.86347C13.3779 5.87386 13.4631 5.91779 13.525 5.98689C13.587 6.05599 13.6214 6.14545 13.6217 6.23825V7.76085C13.6217 7.85388 13.5874 7.94366 13.5255 8.01304C13.4635 8.08242 13.3781 8.12654 13.2857 8.13696L12.542 8.22077C12.4001 8.8728 12.1429 9.49426 11.7826 10.0559L12.2489 10.6407C12.3069 10.7134 12.336 10.805 12.3308 10.8978C12.3256 10.9907 12.2863 11.0784 12.2205 11.1441L11.1433 12.22C11.0775 12.2858 10.9898 12.3251 10.897 12.3303C10.8041 12.3355 10.7126 12.3064 10.6399 12.2484L10.0551 11.7821C9.49342 12.1424 8.87196 12.3996 8.21993 12.5415L8.13612 13.2852C8.12573 13.3774 8.0818 13.4626 8.0127 13.5245C7.9436 13.5865 7.85414 13.6209 7.76134 13.6212ZM3.93366 11.3594C3.97143 11.3594 4.00833 11.3708 4.03961 11.392C4.62754 11.7898 5.29018 12.0641 5.98731 12.1981C6.02675 12.2059 6.06269 12.226 6.0899 12.2556C6.11712 12.2852 6.1342 12.3227 6.13866 12.3627L6.23874 13.2428H7.76134L7.86066 12.3627C7.86513 12.3227 7.8822 12.2852 7.90942 12.2556C7.93663 12.226 7.97257 12.2059 8.01201 12.1981C8.70948 12.0642 9.37245 11.7899 9.96066 11.392C9.99407 11.3694 10.0338 11.3581 10.0741 11.3597C10.1144 11.3613 10.1531 11.3757 10.1847 11.4008L10.8765 11.9525L11.9532 10.8758L11.4015 10.184C11.3764 10.1525 11.3619 10.1137 11.3603 10.0734C11.3587 10.0331 11.37 9.99339 11.3926 9.95998C11.7906 9.37177 12.0649 8.7088 12.1988 8.01134C12.2066 7.97189 12.2267 7.93596 12.2563 7.90874C12.2859 7.88153 12.3234 7.86445 12.3634 7.85998L13.2433 7.76085V6.23825L12.3632 6.13893C12.3232 6.13447 12.2857 6.11739 12.2561 6.09017C12.2265 6.06296 12.2064 6.02702 12.1986 5.98758C12.0646 5.29044 11.7903 4.62781 11.3924 4.03988C11.3699 4.00647 11.3585 3.96671 11.3601 3.92642C11.3617 3.88612 11.3762 3.84739 11.4013 3.81588L11.953 3.12401L10.8763 2.04658L10.1845 2.59825C10.153 2.62342 10.1142 2.63785 10.0739 2.63945C10.0336 2.64105 9.99388 2.62973 9.96047 2.60715C9.37226 2.20917 8.70929 1.93491 8.01182 1.80101C7.97238 1.79322 7.93644 1.77306 7.90923 1.74347C7.88202 1.71387 7.86494 1.67637 7.86047 1.63642L7.76134 0.756308H6.23874L6.13942 1.63642C6.13495 1.67637 6.11788 1.71387 6.09066 1.74347C6.06345 1.77306 6.02751 1.79322 5.98807 1.80101C5.29093 1.93503 4.6283 2.20929 4.04036 2.60715C4.00695 2.62973 3.9672 2.64105 3.92691 2.63945C3.88661 2.63785 3.84788 2.62342 3.81636 2.59825L3.12374 2.04658L2.04707 3.12325L2.59874 3.81512C2.6239 3.84663 2.63834 3.88536 2.63994 3.92566C2.64154 3.96596 2.63022 4.00571 2.60763 4.03912C2.20978 4.62705 1.93552 5.28969 1.8015 5.98682C1.79371 6.02627 1.77355 6.0622 1.74395 6.08942C1.71436 6.11663 1.67686 6.13371 1.6369 6.13817L0.756796 6.23825V7.76085L1.6369 7.86017C1.67686 7.86464 1.71436 7.88172 1.74395 7.90893C1.77355 7.93614 1.79371 7.97208 1.8015 8.01152C1.93539 8.70899 2.20966 9.37196 2.60763 9.96017C2.63022 9.99358 2.64154 10.0333 2.63994 10.0736C2.63834 10.1139 2.6239 10.1527 2.59874 10.1842L2.04707 10.8758L3.12374 11.9525L3.81561 11.4008C3.84912 11.374 3.89075 11.3594 3.93366 11.3594Z" fill="white"/>
<path d="M10.3814 5.49199C10.3459 5.49205 10.3111 5.48212 10.281 5.46336C10.2509 5.44459 10.2267 5.41773 10.2111 5.38586C10.1293 5.2189 10.0326 5.05965 9.92223 4.91005C9.90747 4.89005 9.8968 4.86734 9.89081 4.84321C9.88483 4.81909 9.88366 4.79402 9.88737 4.76944C9.89108 4.74486 9.89959 4.72126 9.91242 4.69997C9.92525 4.67868 9.94215 4.66013 9.96215 4.64537C9.98214 4.63061 10.0049 4.61994 10.029 4.61396C10.0531 4.60798 10.0782 4.60681 10.1027 4.61052C10.1273 4.61422 10.1509 4.62273 10.1722 4.63556C10.1935 4.64839 10.2121 4.66529 10.2268 4.68529C10.3507 4.85331 10.4592 5.03212 10.5511 5.21956C10.5652 5.24843 10.5718 5.28043 10.5701 5.31254C10.5685 5.34465 10.5587 5.37581 10.5416 5.40307C10.5246 5.43034 10.5009 5.45281 10.4727 5.46837C10.4446 5.48393 10.413 5.49206 10.3808 5.49199H10.3814Z" fill="white"/>
<path d="M7.00033 10.9723C6.36349 10.9717 5.73612 10.8182 5.17095 10.5247C4.60578 10.2312 4.11934 9.80627 3.75252 9.28569C3.27883 8.61757 3.02533 7.81834 3.02736 6.99934C3.02851 5.946 3.44746 4.93612 4.19228 4.1913C4.93711 3.44647 5.94698 3.02752 7.00033 3.02637C7.07184 3.02637 7.14348 3.02832 7.21525 3.03223C7.24009 3.03362 7.26442 3.03989 7.28684 3.05069C7.30926 3.06148 7.32934 3.07658 7.34592 3.09514C7.36251 3.11369 7.37527 3.13532 7.3835 3.15881C7.39172 3.1823 7.39523 3.20717 7.39384 3.23202C7.39245 3.25686 7.38618 3.28119 7.37539 3.30361C7.36459 3.32603 7.34949 3.34611 7.33094 3.36269C7.31239 3.37927 7.29075 3.39204 7.26726 3.40026C7.24378 3.40849 7.2189 3.412 7.19406 3.41061C7.12954 3.40645 7.06484 3.40475 7.00033 3.40475C6.04731 3.4058 5.13362 3.78485 4.45973 4.45874C3.78584 5.13263 3.40679 6.04632 3.40573 6.99934C3.40389 7.74017 3.6331 8.46313 4.06146 9.06756C4.39297 9.53902 4.83304 9.92381 5.34452 10.1894C5.856 10.4551 6.42389 10.5937 7.00023 10.5937C7.57658 10.5937 8.14446 10.4551 8.65595 10.1894C9.16743 9.92381 9.6075 9.53902 9.939 9.06756C10.3674 8.46313 10.5967 7.74018 10.5949 6.99934C10.5949 6.95715 10.5949 6.91477 10.5917 6.87258C10.5877 6.82256 10.6037 6.77299 10.6363 6.73477C10.6688 6.69656 10.7152 6.67284 10.7652 6.66883C10.8152 6.66481 10.8648 6.68084 10.903 6.71337C10.9412 6.74591 10.9649 6.79229 10.969 6.84231C10.9731 6.89472 10.9733 6.94693 10.9733 6.99934C10.9753 7.81845 10.7218 8.61778 10.2481 9.28607C9.88125 9.80655 9.39478 10.2313 8.82962 10.5248C8.26446 10.8182 7.63712 10.9717 7.00033 10.9723Z" fill="white"/>
<path d="M9.12655 4.05972C9.08817 4.05972 9.05069 4.04804 9.0191 4.02624C8.87316 3.92626 8.71971 3.83771 8.56013 3.76137C8.5373 3.75084 8.51681 3.73587 8.49983 3.71732C8.48286 3.69878 8.46975 3.67704 8.46127 3.65337C8.4528 3.62971 8.44912 3.60459 8.45046 3.57949C8.45181 3.55439 8.45814 3.5298 8.46908 3.50717C8.48003 3.48455 8.49538 3.46433 8.51424 3.4477C8.53309 3.43107 8.55506 3.41836 8.57888 3.41033C8.6027 3.40229 8.62788 3.39907 8.65295 3.40088C8.67803 3.40268 8.70249 3.40946 8.72491 3.42083C8.902 3.50588 9.07232 3.60436 9.23439 3.7154C9.26762 3.73833 9.29264 3.7713 9.30579 3.80947C9.31894 3.84764 9.31954 3.88902 9.30749 3.92756C9.29544 3.96609 9.27138 3.99977 9.23883 4.02365C9.20627 4.04753 9.16693 4.06037 9.12655 4.06029V4.05972Z" fill="white"/>
<path d="M10.0937 9.36626C10.0632 9.36627 10.0332 9.35894 10.0062 9.34487C9.97919 9.33081 9.95598 9.31043 9.93853 9.28548C9.60772 8.81319 9.16794 8.42761 8.65645 8.1614C8.14497 7.89519 7.57685 7.7562 7.00024 7.7562C6.42362 7.7562 5.8555 7.89519 5.34402 8.1614C4.83253 8.42761 4.39276 8.81319 4.06195 9.28548C4.04791 9.30633 4.02986 9.32417 4.00884 9.33797C3.98783 9.35176 3.96428 9.36123 3.93956 9.36583C3.91485 9.37042 3.88947 9.37004 3.8649 9.36471C3.84034 9.35938 3.81708 9.34921 3.79649 9.33479C3.7759 9.32037 3.75839 9.302 3.74498 9.28073C3.73157 9.25947 3.72254 9.23575 3.7184 9.21096C3.71426 9.18616 3.71511 9.16079 3.72089 9.13633C3.72667 9.11186 3.73726 9.0888 3.75205 9.06848C4.11776 8.54639 4.60392 8.12015 5.16935 7.82586C5.73478 7.53158 6.36281 7.37793 7.00024 7.37793C7.63766 7.37793 8.2657 7.53158 8.83113 7.82586C9.39655 8.12015 9.88272 8.54639 10.2484 9.06848C10.2683 9.09681 10.28 9.13005 10.2823 9.16458C10.2846 9.19911 10.2773 9.23361 10.2614 9.26431C10.2454 9.29502 10.2213 9.32076 10.1918 9.33873C10.1622 9.35671 10.1283 9.36623 10.0937 9.36626Z" fill="white"/>
<path d="M6.9997 7.75625C6.71323 7.75625 6.43319 7.6713 6.195 7.51214C5.9568 7.35299 5.77115 7.12677 5.66153 6.8621C5.5519 6.59744 5.52321 6.30621 5.5791 6.02524C5.63499 5.74427 5.77294 5.48618 5.9755 5.28361C6.17807 5.08105 6.43616 4.9431 6.71712 4.88721C6.99809 4.83132 7.28932 4.86 7.55399 4.96963C7.81865 5.07926 8.04487 5.26491 8.20402 5.5031C8.36318 5.7413 8.44813 6.02134 8.44813 6.30781C8.44768 6.69182 8.29493 7.05998 8.0234 7.33151C7.75186 7.60305 7.38371 7.7558 6.9997 7.75625ZM6.9997 5.23775C6.78806 5.23775 6.58118 5.30051 6.40521 5.41809C6.22924 5.53567 6.09209 5.70279 6.0111 5.89832C5.93011 6.09385 5.90892 6.309 5.95021 6.51657C5.9915 6.72414 6.09341 6.91481 6.24306 7.06446C6.39271 7.21411 6.58337 7.31602 6.79094 7.35731C6.99851 7.3986 7.21366 7.37741 7.40919 7.29642C7.60472 7.21543 7.77184 7.07827 7.88941 6.9023C8.00699 6.72633 8.06975 6.51945 8.06975 6.30781C8.06945 6.02411 7.95662 5.75211 7.75601 5.5515C7.5554 5.35089 7.2834 5.23806 6.9997 5.23775Z" fill="white"/>
</svg>
