<svg width="20" height="20" viewBox="0 0 20 20" fill="none" xmlns="http://www.w3.org/2000/svg">
<rect width="20" height="20" fill="white"/>
<path d="M13.5156 12.2656L12.9297 11.7969H11.1719C10.8483 11.7969 10.5859 12.0592 10.5859 12.3828V17.6562H16.4453V12.3828C16.4453 12.0592 16.183 11.7969 15.8594 11.7969H14.1016L13.5156 12.2656Z" fill="#A9A9A9"/>
<path d="M16.4453 12.3828C16.4453 12.0592 16.183 11.7969 15.8594 11.7969H14.1016L13.5156 12.2656V17.6562H16.4453V12.3828Z" fill="#A9A9A9"/>
<path d="M13.5156 14.1406C13.8392 14.1406 14.1016 13.8783 14.1016 13.5547V11.7969H12.9297V13.5547C12.9297 13.8783 13.192 14.1406 13.5156 14.1406Z" fill="#A9A9A9"/>
<path d="M13.5156 11.7969V14.1406C13.8392 14.1406 14.1016 13.8783 14.1016 13.5547V11.7969H13.5156Z" fill="#A9A9A9"/>
<path d="M6.48438 12.2656L5.89844 11.7969H4.14062C3.81703 11.7969 3.55469 12.0592 3.55469 12.3828V17.6562H9.41406V12.3828C9.41406 12.0592 9.15172 11.7969 8.82812 11.7969H7.07031L6.48438 12.2656Z" fill="#A9A9A9"/>
<path d="M9.41406 12.3828C9.41406 12.0592 9.15172 11.7969 8.82813 11.7969H7.07031L6.48438 12.2656V17.6562H9.41406V12.3828Z" fill="#A9A9A9"/>
<path d="M6.48438 14.1406C6.80797 14.1406 7.07031 13.8783 7.07031 13.5547V11.7969H5.89844V13.5547C5.89844 13.8783 6.16078 14.1406 6.48438 14.1406Z" fill="#A9A9A9"/>
<path d="M6.48438 11.7969V14.1406C6.80797 14.1406 7.07031 13.8783 7.07031 13.5547V11.7969H6.48438Z" fill="#A9A9A9"/>
<path d="M13.5156 2.89062L12.9297 2.42188H11.1719C10.8483 2.42188 10.5859 2.68422 10.5859 3.00781V8.28125H16.4453V3.00781C16.4453 2.68422 16.183 2.42188 15.8594 2.42188H14.1016L13.5156 2.89062Z" fill="#A9A9A9"/>
<path d="M16.4453 3.00781C16.4453 2.68422 16.183 2.42188 15.8594 2.42188H14.1016L13.5156 2.89062V8.28125H16.4453V3.00781Z" fill="#A9A9A9"/>
<path d="M13.5156 4.76562C13.8392 4.76562 14.1016 4.50328 14.1016 4.17969V2.42188H12.9297V4.17969C12.9297 4.50328 13.192 4.76562 13.5156 4.76562Z" fill="#A9A9A9"/>
<path d="M13.5156 2.42188V4.76562C13.8392 4.76562 14.1016 4.50328 14.1016 4.17969V2.42188H13.5156Z" fill="#A9A9A9"/>
<path d="M6.48438 3.20312L5.89844 2.42188H4.14062C3.81703 2.42188 3.55469 2.68422 3.55469 3.00781V8.28125H9.41406V3.00781C9.41406 2.68422 9.15172 2.42188 8.82812 2.42188H7.07031L6.48438 3.20312Z" fill="#A9A9A9"/>
<path d="M9.41406 3.00781C9.41406 2.68422 9.15172 2.42188 8.82813 2.42188H7.07031L6.48438 3.20312V8.28125H9.41406V3.00781Z" fill="#A9A9A9"/>
<path d="M6.48438 4.76562C6.80797 4.76562 7.07031 4.50328 7.07031 4.17969V2.42188H5.89844V4.17969C5.89844 4.50328 6.16078 4.76562 6.48438 4.76562Z" fill="#A9A9A9"/>
<path d="M6.48438 2.42188V4.76562C6.80797 4.76562 7.07031 4.50328 7.07031 4.17969V2.42188H6.48438Z" fill="#A9A9A9"/>
<path d="M18.2031 18.2812C17.8795 18.2812 17.6172 18.0189 17.6172 17.6953V10.0391C17.6172 9.71547 17.8795 9.45312 18.2031 9.45312C18.5267 9.45312 18.7891 9.71547 18.7891 10.0391V17.6953C18.7891 18.0189 18.5267 18.2812 18.2031 18.2812Z" fill="#A9A9A9"/>
<path d="M18.2031 8.90625C17.8795 8.90625 17.6172 8.64391 17.6172 8.32031V0.585937C17.6172 0.262344 17.8795 0 18.2031 0C18.5267 0 18.7891 0.262344 18.7891 0.585937V8.32031C18.7891 8.64391 18.5267 8.90625 18.2031 8.90625Z" fill="#A9A9A9"/>
<path d="M1.79687 18.2812C1.47328 18.2812 1.21094 18.0189 1.21094 17.6953V10.0391C1.21094 9.71547 1.47328 9.45312 1.79687 9.45312C2.12047 9.45312 2.38281 9.71547 2.38281 10.0391V17.6953C2.38281 18.0189 2.12047 18.2812 1.79687 18.2812Z" fill="#A9A9A9"/>
<path d="M1.79688 8.90625C1.47328 8.90625 1.21094 8.64391 1.21094 8.32031V0.585937C1.21094 0.262344 1.47328 0 1.79688 0C2.12047 0 2.38281 0.262344 2.38281 0.585937V8.32031C2.38281 8.64391 2.12047 8.90625 1.79688 8.90625Z" fill="#A9A9A9"/>
<path d="M19.4141 20H0.585938C0.262344 20 0 19.7377 0 19.4141V17.8516C0 17.528 0.262344 17.2656 0.585938 17.2656H19.4141C19.7377 17.2656 20 17.528 20 17.8516V19.4141C20 19.7377 19.7377 20 19.4141 20Z" fill="#A9A9A9"/>
<path d="M19.4141 17.2656H10V20H19.4141C19.7377 20 20 19.7377 20 19.4141V17.8516C20 17.528 19.7377 17.2656 19.4141 17.2656Z" fill="#A9A9A9"/>
<path d="M19.4141 10.625H0.585938C0.262344 10.625 0 10.3627 0 10.0391V8.47656C0 8.15297 0.262344 7.89062 0.585938 7.89062H19.4141C19.7377 7.89062 20 8.15297 20 8.47656V10.0391C20 10.3627 19.7377 10.625 19.4141 10.625Z" fill="#A9A9A9"/>
<path d="M19.4141 7.89062H10V10.625H19.4141C19.7377 10.625 20 10.3627 20 10.0391V8.47656C20 8.15297 19.7377 7.89062 19.4141 7.89062Z" fill="#A9A9A9"/>
</svg>
