<svg width="27" height="27" viewBox="0 0 27 27" fill="none" xmlns="http://www.w3.org/2000/svg">
<g clip-path="url(#clip0)">
<path d="M4.47717 9.99316C2.63438 9.99316 1.1405 11.487 1.1405 13.3298C1.1405 15.1726 2.63438 16.6665 4.47717 16.6665C6.31997 16.6665 7.81384 15.1726 7.81384 13.3298C7.81384 11.487 6.31997 9.99316 4.47717 9.99316ZM4.47717 15.3046C3.38656 15.3046 2.50241 14.4204 2.50241 13.3298C2.50241 12.2392 3.38656 11.3551 4.47717 11.3551C5.56778 11.3551 6.45193 12.2392 6.45193 13.3298C6.45193 14.4204 5.56785 15.3046 4.47717 15.3046Z" fill="#0085FF"/>
<path d="M25.5186 12.6494H10.1291C9.75298 12.6494 9.44812 12.9543 9.44812 13.3304C9.44812 13.7065 9.75298 14.0113 10.1291 14.0113H25.5186C25.8947 14.0113 26.1996 13.7065 26.1996 13.3304C26.1996 12.9543 25.8947 12.6494 25.5186 12.6494Z" fill="#0085FF"/>
<path d="M4.47717 0.459961C2.63438 0.459961 1.1405 1.95384 1.1405 3.79663C1.1405 5.63942 2.63438 7.1333 4.47717 7.1333C6.31997 7.1333 7.81384 5.63942 7.81384 3.79663C7.81384 1.95384 6.31997 0.459961 4.47717 0.459961ZM4.47717 5.77139C3.38656 5.77139 2.50241 4.88724 2.50241 3.79663C2.50241 2.70602 3.38656 1.82187 4.47717 1.82187C5.56778 1.82187 6.45193 2.70602 6.45193 3.79663C6.45193 4.88724 5.56785 5.77139 4.47717 5.77139Z" fill="#0085FF"/>
<path d="M10.1291 4.47715H25.5186C25.8947 4.47715 26.1996 4.17228 26.1996 3.79619C26.1996 3.4201 25.8947 3.11523 25.5186 3.11523H10.1291C9.75298 3.11523 9.44812 3.4201 9.44812 3.79619C9.44812 4.17228 9.75298 4.47715 10.1291 4.47715Z" fill="#0085FF"/>
<path d="M4.47717 19.5264C2.63438 19.5264 1.1405 21.0202 1.1405 22.863C1.1405 24.7058 2.63438 26.1997 4.47717 26.1997C6.31997 26.1997 7.81384 24.7058 7.81384 22.863C7.81384 21.0202 6.31997 19.5264 4.47717 19.5264ZM6.45193 22.863C6.45193 23.9536 5.56778 24.8378 4.47717 24.8378C3.38656 24.8378 2.50241 23.9536 2.50241 22.863C2.50241 21.7724 3.38656 20.8883 4.47717 20.8883C5.56778 20.8883 6.45193 21.7724 6.45193 22.863Z" fill="#0085FF"/>
<path d="M25.5186 22.1826H10.1291C9.75298 22.1826 9.44812 22.4875 9.44812 22.8636C9.44812 23.2397 9.75298 23.5445 10.1291 23.5445H25.5186C25.8947 23.5445 26.1996 23.2397 26.1996 22.8636C26.1996 22.4875 25.8947 22.1826 25.5186 22.1826Z" fill="#0085FF"/>
</g>
<defs>
<clipPath id="clip0">
<rect width="25.74" height="25.74" fill="white" transform="translate(0.800049 0.459961)"/>
</clipPath>
</defs>
</svg>
