<svg width="33" height="33" viewBox="0 0 33 33" fill="none" xmlns="http://www.w3.org/2000/svg">
<circle cx="16.413" cy="16.413" r="16.413" fill="#3C3B6E"/>
<path d="M12.7772 20.3323C11.6368 20.3077 10.6383 19.6922 10.0703 18.7808C10.4191 18.7737 10.7622 18.7291 11.0859 18.6406L11.0542 17.6684C9.81481 17.4149 8.82212 16.4507 8.53277 15.2152C8.88426 15.3215 9.25566 15.3844 9.63329 15.3916L11.3385 15.4239L9.92068 14.476C9.05552 13.8976 8.47572 12.8981 8.47572 11.7727C8.47572 11.431 8.52908 11.1027 8.62754 10.7925C10.5462 12.8356 13.2162 14.1551 16.2008 14.3007L16.8585 14.3328L16.7128 13.6906C16.6612 13.463 16.6382 13.2154 16.6382 12.9454C16.6382 11.1526 18.0886 9.69141 19.8888 9.69141C20.8167 9.69141 21.668 10.0849 22.2658 10.7213L22.4559 10.9238L22.7282 10.8694C23.0841 10.7983 23.4319 10.705 23.77 10.59C23.5726 10.7922 23.3484 10.969 23.1028 11.1157L23.4221 12.041C23.6263 12.015 23.8284 11.9821 24.0284 11.9421C23.8154 12.1398 23.5897 12.3238 23.3512 12.4931L23.1274 12.6519L23.1412 12.926C23.149 13.0803 23.1543 13.2314 23.1543 13.3859C23.1543 18.1297 19.545 23.5656 12.9723 23.5656C11.6455 23.5656 10.3831 23.3156 9.22523 22.8565C10.6659 22.657 11.9872 22.0765 13.0744 21.226L14.1782 20.3626L12.7772 20.3323Z" fill="#3C3B6E" stroke="#E4B335"/>
</svg>
