<svg width="17" height="17" viewBox="0 0 17 17" fill="none" xmlns="http://www.w3.org/2000/svg">
<path d="M16.3859 1H0.614014V11.6842H3.41226V15.5L8.24559 11.6842H16.3859V1Z" stroke="#DF1A1A"/>
<path d="M9.22042 6.59663L11.2015 4.61547C11.3304 4.48661 11.3304 4.27825 11.2015 4.14938C11.0726 4.02052 10.8643 4.02052 10.7354 4.14938L8.75428 6.13054L6.77322 4.14938C6.6443 4.02052 6.43601 4.02052 6.30714 4.14938C6.17822 4.27825 6.17822 4.48661 6.30714 4.61547L8.2882 6.59663L6.30714 8.57779C6.17822 8.70666 6.17822 8.91501 6.30714 9.04388C6.37136 9.10816 6.4558 9.14045 6.54018 9.14045C6.62456 9.14045 6.70894 9.10816 6.77322 9.04388L8.75428 7.06272L10.7354 9.04388C10.7997 9.10816 10.8841 9.14045 10.9684 9.14045C11.0528 9.14045 11.1372 9.10816 11.2015 9.04388C11.3304 8.91501 11.3304 8.70666 11.2015 8.57779L9.22042 6.59663Z" fill="#DF1A1A"/>
</svg>
