<svg width="14" height="14" viewBox="0 0 14 14" fill="none" xmlns="http://www.w3.org/2000/svg">
<path d="M9.94518 6.76465C9.75584 7.00307 9.54312 7.22318 9.29881 7.42184C10.6934 8.22178 11.6348 9.72568 11.6348 11.4454C11.6348 12.3746 9.5989 13.1025 6.99985 13.1025C4.4008 13.1025 2.36486 12.3746 2.36486 11.4454C2.36486 9.72568 3.30634 8.22178 4.70088 7.42184C4.4566 7.22318 4.24389 7.0031 4.05452 6.76465C2.50153 7.74536 1.46777 9.4768 1.46777 11.4454C1.46777 12.0417 1.7943 12.8728 3.34996 13.4455C4.32034 13.8028 5.61656 13.9996 6.99988 13.9996C8.3832 13.9996 9.67942 13.8028 10.6498 13.4455C12.2054 12.8728 12.532 12.0417 12.532 11.4454C12.5319 9.4768 11.4982 7.74536 9.94518 6.76465Z" fill="white"/>
<path d="M7.00008 7.35619C8.74354 7.35619 10.0861 5.67092 10.0861 3.67811C10.0861 1.68438 8.74287 0 7.00008 0C5.25661 0 3.91406 1.68527 3.91406 3.67808C3.91406 5.67181 5.25732 7.35619 7.00008 7.35619ZM7.00008 0.897087C8.20703 0.897087 9.189 2.14463 9.189 3.67808C9.189 5.21153 8.20703 6.45907 7.00008 6.45907C5.79312 6.45907 4.81115 5.21153 4.81115 3.67808C4.81115 2.14463 5.79312 0.897087 7.00008 0.897087Z" fill="white"/>
</svg>
